<svg enable-background="new 0 0 427.3 430.9" viewBox="0 0 427.3 430.9" xmlns="http://www.w3.org/2000/svg"><g fill="#ea706e"><path d="m207.5 218.3c5 4.3 8 3.8 12.7-.3 23.8-20.8 47.9-41.3 71.9-61.9 8.4-7.2 16.8-14.5 26.6-23-70.6 0-139.1 0-207.7 0-.4.7-.8 1.4-1.3 2.1 1.5.9 3.1 1.7 4.4 2.8 31.2 26.7 62.4 53.3 93.4 80.3z"/><path d="m222.6 238.1c-7.7 6.6-10.2 6.6-18.1-.1-7.8-6.7-15.6-13.4-24-20.5-24.5 28-48.5 55.5-73.7 84.4h213.8c-25.3-29-49.4-56.5-73.8-84.4-8.5 7.2-16.4 13.9-24.2 20.6z"/><path d="m97 145.8c-.5.4-1.1.8-1.6 1.2v139.2c.5.3.9.7 1.4 1 23.4-26.8 46.9-53.6 70.8-81-24-20.5-47.3-40.5-70.6-60.4z"/><path d="m331.8 288.6c0-48.8 0-95.4 0-144.1-24.8 21.3-48.2 41.3-72 61.8 24 27.4 47.4 54.2 72 82.3z"/><path d="m213.7 12.3c-113.4 0-205.2 91.9-205.2 205.2s91.9 205.2 205.2 205.2 205.2-91.9 205.2-205.2c-.1-113.3-91.9-205.2-205.2-205.2zm98.5 307.2c-33 .1-66 0-98.9 0-32.8 0-65.5 0-98.3 0-23.4 0-37.2-13.9-37.3-37.3 0-43.1 0-86.2 0-129.3 0-23.4 13.9-37.3 37.3-37.3 65.7 0 131.5-.1 197.2 0 23.5 0 37.2 13.8 37.2 37.3.1 43.1.1 86.2 0 129.3.1 23.5-13.6 37.2-37.2 37.3z"/></g></svg>