<svg fill="none" height="24" viewBox="0 0 25 24" width="25" xmlns="http://www.w3.org/2000/svg" xmlns:xlink="http://www.w3.org/1999/xlink"><clipPath id="a"><path d="m.5 0h24v24h-24z"/></clipPath><g clip-path="url(#a)"><path d="m12.5 0c-6.616 0-12 5.384-12 12s5.384 12 12 12 12-5.384 12-12-5.384-12-12-12zm0 2c5.535 0 10 4.465 10 10 .0024 2.394-.856 4.709-2.4187 6.5226-1.5626 1.8136-3.7253 3.0049-6.0933 3.3564v-6.963h2.848l.447-2.893h-3.295v-1.58c0-1.2.395-2.267 1.518-2.267h1.805v-2.524c-.317-.043-.988-.136-2.256-.136-2.648 0-4.2 1.398-4.2 4.584v1.923h-2.722v2.893h2.722v6.938c-2.33525-.3844-4.45776-1.5865-5.98831-3.3917-1.53054-1.8051-2.3694-4.0956-2.36669-6.4623 0-5.535 4.465-10 10-10z" fill="#fff"/></g></svg>