<svg fill="none" height="172" viewBox="0 0 172 172" width="172" xmlns="http://www.w3.org/2000/svg"><path d="m85.9997 137.998c28.7183 0 51.9983-23.28 51.9983-51.998 0-28.7179-23.28-51.9983-51.9983-51.9983-28.7178 0-51.9982 23.2804-51.9982 51.9983 0 28.718 23.2804 51.998 51.9982 51.998z" fill="#f1fbff"/><g fill="#424e58"><path d="m86.0001 143.235c-31.5678 0-57.1612-25.667-57.1612-57.1613 0-31.494 25.6672-57.1612 57.1612-57.1612 31.4939 0 57.1609 25.6672 57.1609 57.1612 0 31.4943-25.593 57.1613-57.1609 57.1613zm0-112.2573c-30.3139 0-55.0223 24.7084-55.0223 55.0223 0 30.314 24.7084 55.022 55.0223 55.022s55.0219-24.634 55.0219-55.022c0-30.3877-24.708-55.0223-55.0219-55.0223z"/><path d="m86 172c-47.4254 0-86-38.575-86-86 0-47.4254 38.5746-86 86-86 47.425 0 86 38.5746 86 86 0 47.425-38.575 86-86 86zm0-169.78731c-46.1715 0-83.78731 37.61581-83.78731 83.78731 0 46.172 37.61581 83.861 83.86111 83.861 46.2452 0 83.8612-37.616 83.8612-83.861 0-46.2453-37.69-83.78731-83.935-83.78731z"/><path d="m42.6309 42.3362c-.7375.7376-1.5488 1.3276-2.4339 1.6964s-1.8439.5901-2.729.5901-1.8439-.1476-2.8028-.5163c-.885-.3688-1.6964-.8851-2.4339-1.6227-.7376-.7375-1.3276-1.5489-1.6964-2.4339-.3688-.8851-.5901-1.844-.5901-2.729 0-.8851.1475-1.8439.5163-2.8028.3688-.8851.8851-1.6964 1.6227-2.5077.5163-.5163 1.0326-.9588 1.5488-1.2539.5901-.3687 1.1064-.59 1.7702-.7375.1475-.0738.295-.0738.4425 0 .1476.0737.2213.1475.3688.2212.1475.1476.2213.3688.2951.5901 0 .2213-.0738.4425-.2213.59-.0738.0738-.1475.0738-.2213.1476-.0737.0737-.1475.0737-.2213.1475-.4425.1475-.885.3688-1.3276.59-.4425.2951-.8113.5901-1.2538.9589-.7376.7375-1.2539 1.6226-1.4752 2.5814-.2212.9589-.2212 1.9177.0738 2.8765.295.9589.8113 1.7702 1.6226 2.5815.7376.7376 1.6227 1.2539 2.5815 1.4751.9588.2213 1.9177.2213 2.8765 0 .9588-.2212 1.8439-.8113 2.5815-1.5488.3688-.3688.7376-.8851 1.0326-1.3277.295-.5163.5163-1.0326.59-1.4751l.2213.4426-3.0978-3.0241h.4426l-2.139 2.2127c-.1475.1475-.3688.2213-.59.2213-.2213 0-.4426-.0738-.5901-.2213s-.2212-.3688-.2212-.59c0-.2213.0737-.4426.2212-.5901l2.5815-2.6552c.1475-.1475.3688-.2213.5901-.2213.2212 0 .4425.0738.59.2213l3.3928 3.2453c.1475.1475.2213.2212.2213.3688 0 .1475.0737.295 0 .4425-.1475.7376-.3688 1.4014-.7376 2.1389-.3688.7376-.8113 1.3277-1.4014 1.9177z"/><path d="m46.7612 23.4545 2.1389 12.4649c.0737.1475 0 .295-.0738.5163-.0737.1475-.1475.295-.295.3688-.2213.1475-.4425.2212-.59.1475-.1476-.0738-.2951-.1475-.4426-.2951-.0737-.0737-.0737-.1475-.1475-.295l-2.3602-13.7187c-.0738-.2213 0-.3688.0738-.5163.0737-.1475.2212-.295.3687-.3688.1476-.0737.2951-.1475.5163-.1475.1475 0 .2951.0738.4426.1475l11.2847 7.9657c.0738.0738.1475.1475.2213.2213.1475.2213.1475.4425.0737.5901-.0737.1475-.1475.3687-.3688.4425-.1475.0737-.295.1475-.4425.1475s-.295-.0737-.4425-.2213l-10.3259-7.3018zm1.2538 9.0721-.295-1.6964 5.1629-3.2453 1.1064 1.1801z"/><path d="m62.3237 28.9125c-.2212.0738-.5163.0738-.7375 0-.2213-.0737-.3688-.2212-.4426-.4425l-4.0566-11.9486c-.0737-.2212-.0737-.4425.0738-.6638.0737-.2212.2212-.3687.5163-.3687l5.3104-1.7702c.7376-.2213 1.4014-.295 2.139-.1475.6638.1475 1.3276.4425 1.8439.8851.5163.4425.9588 1.0326 1.1801 1.8439.2212.5163.2212 1.1063.2212 1.6226-.0737.5163-.2212 1.0326-.4425 1.4751-.2213.4426-.59.8851-.9588 1.1802l-.5901-.2951c.4426-.0737.9589 0 1.3276.1475.4426.1476.8114.3688 1.1801.7376.3688.3688.6638.7376.8114 1.3276.2212.4426.3687.8113.5163 1.1064.1475.295.295.4425.3687.59.1475.1475.2951.2213.4426.295.2212.0738.3688.1476.5163.3688.1475.2213.1475.3688.0737.5901-.0737.1475-.1475.2212-.2212.3688-.0738.1475-.2951.1475-.4426.2212-.1475 0-.295 0-.4425 0-.2213-.0737-.5163-.1475-.8113-.295-.2951-.1475-.5163-.4425-.8114-.8113-.295-.3688-.5163-.9589-.8113-1.6964-.1475-.4426-.295-.7376-.5163-.9589-.2212-.2212-.4425-.3687-.7375-.4425-.2951-.0737-.5901-.1475-.8851-.0737-.295.0737-.5901.0737-.8851.2212l-4.2779 1.4752.1476-.4426 1.6964 5.0155c.0737.2212.0737.4425 0 .59.0737.0738-.0738.2213-.2951.295zm-1.8439-7.0806 4.7204-1.6226c.3688-.1475.6638-.3688.9589-.7376.2212-.3688.4425-.7376.5163-1.2539.0737-.5162-.0001-1.0325-.1476-1.5488-.2212-.6638-.6638-1.1801-1.2538-1.4752-.5901-.295-1.1801-.3688-1.8439-.1475l-4.5729 1.5489v-.4425l1.9914 5.9005z"/><path d="m79.5829 12.3911-3.7616 12.096c-.0737.1475-.1475.2951-.2213.4426-.0737.1475-.295.1475-.4425.2212-.2213 0-.4425 0-.59-.1475-.1476-.1475-.2213-.295-.2213-.4425 0-.0738 0-.2213 0-.295l4.1304-13.2762c.0737-.2213.1475-.3688.295-.4425.1475-.0738.295-.1475.4425-.1475s.3688 0 .5163.0737c.1475.0738.2213.2213.295.3688l6.4168 12.2436c.0738.0737.0738.2212.0738.295 0 .2213-.0738.4425-.2213.59-.1475.1476-.295.2213-.5163.2951-.1475 0-.295 0-.4425-.0738-.1475-.0737-.2213-.2213-.3688-.3688l-5.9005-11.2109zm-3.024 8.7032.5163-1.6226 6.048-.5163.4425 1.5489z"/><path d="m102.669 11.6535c.221.0738.368.1475.516.295.074.1475.147.3688.147.5901l-1.917 12.5386c-.074.2212-.148.4425-.369.59s-.369.1475-.59.1475c-.148 0-.221-.0737-.369-.1475-.074-.0737-.2212-.1475-.2212-.2212l-6.9331-12.8337.4425-.1475-1.7702 11.211c-.0737.2213-.1475.3688-.295.5163s-.3688.1475-.59.1475c-.2213 0-.3688-.1475-.5163-.295s-.1475-.3688-.1475-.5901l1.9914-12.5386c.0737-.2212.1475-.4425.295-.5163.1475-.1475.3688-.1475.5901-.1475.1475 0 .2212.0738.3687.1475.1476.0738.2213.1476.2213.2951l6.7853 12.6123-.295.295 1.697-11.1372c.073-.2212.147-.3688.295-.5163.221-.295.442-.295.664-.295z"/><path d="m109.749 29.06c-.221-.0737-.368-.2212-.442-.4425s-.074-.4425 0-.6638l4.868-11.6535 1.622.6638-4.868 11.6535c-.073.2213-.221.3688-.442.4425-.221.0738-.443.0738-.738 0zm.59-13.5711c-.221-.0738-.368-.2213-.442-.4426s-.074-.3688 0-.59c.074-.2213.221-.3688.442-.4426.222-.0737.443-.0737.59 0l8.777 3.6878c.222.0738.369.2213.443.4426s.074.3688 0 .59c-.074.2213-.221.3688-.443.4426-.221.0737-.442.0737-.663 0z"/><path d="m120.075 33.5592c-.147.2212-.295.295-.516.3688-.221.0737-.442 0-.664-.1476-.221-.1475-.369-.295-.369-.5162-.073-.2213 0-.4426.148-.5901l6.712-10.6947c.147-.2213.295-.3688.516-.3688s.443 0 .664.1475c.221.1476.295.2951.369.5163.073.2213 0 .4426-.148.6639zm7.007-12.5386c-.147-.0738-.221-.2213-.295-.3688 0-.1475 0-.2213.074-.3688.074-.0737.074-.1475.147-.1475.074 0 .148-.0737.222-.0737l2.286-.2951h.443c.147 0 .295.0738.369.1475.147.0738.295.2951.295.4426s.073.3688-.074.59c-.074.1475-.221.2213-.369.2951-.148.0737-.295.0737-.516.0737l-2.213-.2213c-.074 0-.147 0-.221 0-.074-.0737-.148-.0737-.148-.0737z"/><path d="m135.564 31.199-11.359 5.458c-.147.0737-.295.1475-.442.0737-.148-.0738-.295-.0738-.443-.2213-.221-.1475-.295-.3687-.295-.5163 0-.1475.074-.3687.222-.5163.073-.0737.147-.1475.221-.2212l12.539-6.0481c.147-.0737.368-.1475.516-.0737.147 0 .295.1475.442.2213.148.1475.222.2212.295.4425.074.1475 0 .3688-.073.5163l-4.573 12.9811c-.074.1475-.074.2213-.148.2951-.147.2212-.369.295-.59.295s-.369-.0738-.59-.2213c-.147-.1475-.221-.2213-.221-.3688-.074-.1475 0-.3688.074-.5163l4.204-11.9485zm-8.334 3.6878 1.548-.7376 4.5 4.0566-.812 1.4014z"/><path d="m39.4595 149.209c-.1475.222-.295.295-.59.295-.2213 0-.4426 0-.5901-.147-.2212-.148-.295-.369-.3688-.59 0-.222 0-.443.1476-.59l7.6706-10.105c.1475-.221.3688-.295.5901-.295.2212 0 .4425 0 .6638.221.2213.148.295.295.3688.517.0737.221 0 .442-.1475.663z"/><path d="m52.9569 142.202c.1475.074.2213.148.2951.295.0737.148.1475.222.2212.369l1.3276 9.736-.6638-.295 8.482-4.942c.2951-.147.5163-.147.8114 0 .2212.074.295.295.4425.443.1475.147.0737.442-.0738.664l-5.5317 11.284c-.0738.222-.2213.369-.5163.443-.2213.074-.4425.074-.6638-.074-.2213-.147-.3688-.295-.4425-.516-.0738-.221-.0738-.443.0737-.664l4.8679-9.957.4426.295-7.5232 4.499c-.1475.074-.2212.074-.3688.074-.1475 0-.2212 0-.3687-.074-.1476-.074-.2213-.147-.2951-.221-.0737-.148-.1475-.221-.1475-.369l-1.1801-8.629.5901-.295-5.0155 10.399c-.0737.222-.2212.369-.4425.443s-.4426.074-.5901 0-.3688-.295-.3688-.443c0-.147 0-.442.0738-.664l5.5317-11.358c.0738-.221.2213-.369.4426-.443.1475-.147.3688-.147.59 0z"/><path d="m74.5676 150.021c.7376.147 1.3276.442 1.8439.958.5163.443.8851 1.033 1.1063 1.771.2213.663.2213 1.475.0738 2.212-.1475.812-.4425 1.475-.9588 2.065-.4426.591-1.0326.959-1.6964 1.254s-1.3276.295-2.0652.148l-4.0566-.811.2213-.222-1.0326 5.016c-.0738.221-.1475.442-.3688.516s-.3688.148-.5901.148c-.2212-.074-.4425-.148-.5163-.369-.0737-.222-.1475-.369-.0737-.664l2.5077-12.391c.0738-.221.1475-.443.3688-.516.2213-.148.3688-.148.59-.148zm-1.3276 6.859c.4425.074.8851.074 1.2538-.148.3688-.147.7376-.442.9589-.811.2212-.369.4425-.811.59-1.254.0738-.516.0738-.959 0-1.401-.1475-.443-.295-.811-.59-1.106-.2951-.295-.6638-.517-1.1064-.59l-4.0566-.812.2213-.221-1.1801 5.753-.0738-.221z"/><path d="m84.377 165.436c-.2213 0-.5163-.074-.6639-.222-.1475-.147-.295-.368-.295-.59l-.4425-12.612c0-.221.0737-.443.2213-.59.1475-.148.3687-.221.59-.221l5.6055-.222c.7376 0 1.4751.148 2.0652.443.59.295 1.1063.811 1.4751 1.401s.5901 1.254.5901 2.066c0 .59-.0738 1.106-.2951 1.622-.2212.516-.5163.959-.8851 1.328-.3687.369-.8113.664-1.2538.885l-.4425-.295c.4425.074.885.295 1.2538.516.3688.295.6638.59.9588 1.033.2213.442.3688.885.4426 1.475.0737.516.0737.885.1475 1.18.0737.295.1475.516.2213.664.0737.147.2212.295.3687.369.2213.147.2951.295.3688.442.0738.221.0738.369-.0737.59-.0738.148-.2213.221-.3688.295s-.295.074-.4425.074c-.1476 0-.2951-.074-.3688-.074-.2213-.147-.4426-.295-.6638-.516-.2213-.221-.3688-.59-.5163-1.033-.1475-.442-.2213-1.032-.2951-1.844 0-.442-.0737-.811-.2212-1.106s-.3688-.516-.5901-.664c-.2213-.147-.5163-.295-.8113-.369-.295-.073-.59-.073-.8851-.073l-4.5729.147.2213-.369.1475 5.311c0 .221-.0737.442-.2213.59 0 .221-.1475.369-.3687.369zm.295-7.302 5.0154-.148c.3688-.073.7376-.221 1.1064-.442.3687-.295.59-.59.8113-1.033.2213-.442.295-.959.295-1.549 0-.737-.295-1.327-.7376-1.77-.4425-.442-1.0325-.664-1.7701-.664l-4.7942.148.1475-.369.2213 6.196z"/><path d="m99.3501 149.726 7.0069-1.844c.221-.074.442-.074.664.073.221.074.295.295.369.517.073.221 0 .442-.074.59-.074.147-.295.295-.517.369l-6.343 1.696.074-.369 1.328 5.016-.295-.148 5.458-1.401c.221-.074.442-.074.664.073.221.074.295.295.368.517.074.221 0 .442-.073.59-.148.221-.295.295-.517.369l-5.458 1.401.074-.221 1.328 5.089-.148-.074 6.343-1.623c.221-.073.443 0 .664.074.221.148.295.295.369.443.074.221 0 .442-.074.59-.147.221-.295.295-.516.369l-7.007 1.843c-.221.074-.443 0-.664-.073-.221-.148-.295-.295-.369-.517l-3.1712-12.243c-.0738-.221 0-.443.0737-.59 0-.369.2213-.443.4426-.516z"/><path d="m121.624 157.101c-.885.443-1.77.738-2.581.812-.812.073-1.697 0-2.582-.296-.147-.073-.221-.073-.369-.147-.073-.074-.221-.148-.221-.295-.074-.221-.147-.443-.074-.664.074-.221.222-.369.443-.516.148-.074.369-.074.59 0 .738.221 1.401.295 2.065.295s1.402-.221 2.065-.59c.517-.295.959-.59 1.328-.959s.59-.811.664-1.254c.074-.442.074-.811-.148-1.254-.221-.442-.59-.811-1.032-1.032-.443-.222-.959-.295-1.549-.222-.59 0-1.254.148-1.918.295-.664.148-1.254.222-1.77.295-.59.074-1.106 0-1.549-.147-.442-.148-.959-.295-1.327-.664-.369-.295-.738-.737-1.033-1.327-.369-.664-.443-1.402-.369-2.139.074-.738.443-1.402.885-1.992.517-.59 1.18-1.106 1.992-1.549.737-.369 1.475-.59 2.286-.664.811-.073 1.475 0 2.139.222.369.074.59.295.664.516s.074.369 0 .59-.221.369-.443.516c-.147.074-.295.074-.442.074-.295-.147-.664-.221-1.107-.221-.442 0-.811 0-1.253.074-.443.073-.812.221-1.181.368-.59.295-1.032.59-1.327.959s-.59.812-.664 1.18c-.074.443 0 .812.148 1.254.221.443.59.812.958.959.443.148.885.221 1.476.221.59 0 1.106-.147 1.77-.221.663-.147 1.327-.295 1.917-.295.59-.074 1.18-.074 1.697.074.516.074.959.295 1.401.664.443.295.811.811 1.106 1.475s.443 1.401.295 2.065c-.147.737-.442 1.401-.958 1.991-.517.59-1.18 1.107-1.992 1.549z"/><path d="m135.564 148.177c-.811.663-1.549 1.032-2.36 1.327-.812.222-1.697.295-2.655.222-.148 0-.296-.074-.369-.074-.148-.074-.222-.148-.295-.221-.148-.148-.222-.369-.148-.591 0-.221.148-.442.295-.59.148-.147.295-.147.517-.147.737.074 1.401 0 2.065-.148.663-.147 1.254-.516 1.917-.958.443-.369.812-.812 1.107-1.254.295-.443.368-.885.442-1.328.074-.442-.147-.811-.369-1.18-.368-.443-.737-.664-1.18-.738-.442-.073-.958-.073-1.549.074-.59.148-1.18.369-1.843.664-.59.295-1.181.516-1.697.664-.516.147-1.032.221-1.549.221-.516 0-.959-.147-1.401-.369-.443-.221-.885-.59-1.254-1.032-.442-.59-.738-1.254-.811-1.992-.074-.737.147-1.401.516-2.139.369-.737.959-1.327 1.623-1.917.663-.517 1.327-.885 2.139-1.18.737-.222 1.475-.295 2.139-.222.368.074.663.148.811.369.147.148.147.369.147.59s-.147.443-.295.59c-.147.074-.295.148-.442.148-.369-.074-.738-.074-1.107 0-.368.073-.811.147-1.18.368-.442.148-.811.369-1.106.664-.516.369-.885.812-1.106 1.254-.295.443-.369.885-.369 1.328 0 .442.147.811.442 1.18.295.442.664.664 1.181.737.516.074.958.074 1.475-.073.516-.148 1.106-.369 1.696-.59.59-.295 1.254-.517 1.77-.738s1.107-.295 1.623-.295 1.032.074 1.475.369c.443.221.959.664 1.401 1.18.443.59.738 1.254.738 1.991 0 .738-.148 1.402-.516 2.139-.738.517-1.254 1.18-1.918 1.697z"/><path d="m118.453 58.5626c-.295 4.6467-.443 9.1458-.885 13.5712-1.107 10.9159-3.762 21.4631-9.146 31.1992-4.647 8.482-10.916 15.562-19.398 20.504-2.1389 1.254-3.9091 1.254-6.048 0-8.9246-5.237-15.3414-12.686-20.0618-21.684-4.7942-9.2199-7.3019-19.0295-8.3345-29.2816-.4425-4.2779-.5163-8.6296-.8113-12.9812-.0737-1.0326.295-1.4013 1.2539-1.6964 9.4408-2.2127 18.8816-4.2041 28.6175-4.6466 7.5231-.3688 14.8988.8113 22.2002 2.2127 4.057.885 8.114 1.8439 12.613 2.8027z"/><path d="m86 125.828c-1.1801 0-2.3602-.368-3.6141-1.106-8.5557-5.015-15.2675-12.243-20.4305-22.201-4.4991-8.7028-7.3019-18.3649-8.482-29.5759-.295-2.729-.4425-5.458-.59-8.1132-.0738-1.6226-.1475-3.2453-.2951-4.8679-.1475-1.5489.5901-2.434 2.0652-2.8028 8.9983-2.1389 18.7342-4.2041 28.8388-4.6466 7.9657-.3688 15.7839.9588 22.4957 2.2127 2.803.5163 5.532 1.1801 8.482 1.7701 1.328.2951 2.729.5901 4.13.8851l.959.2213-.074.9588c-.073 1.4751-.147 2.8765-.221 4.3516-.147 3.1716-.295 6.1956-.664 9.2934-1.254 12.1698-4.278 22.4957-9.293 31.5674-5.089 9.294-11.5797 16.153-19.7667 20.947-1.2538.738-2.3602 1.106-3.5403 1.106zm-31.199-66.3066v.3688c.1476 1.6227.2213 3.2453.2951 4.9417.1475 2.6552.295 5.3842.5163 7.9657 1.1801 10.9897 3.8353 20.3568 8.2607 28.8384 5.0154 9.515 11.3585 16.522 19.6192 21.316 1.8439 1.033 3.1715 1.033 4.9417 0 7.8919-4.573 14.087-11.137 18.955-20.062 4.868-8.8505 7.819-18.8814 8.999-30.7562.295-3.024.442-5.9743.663-9.1458.074-1.1063.148-2.2865.222-3.4666-1.107-.2212-2.139-.4425-3.246-.7375-2.876-.6638-5.679-1.2539-8.408-1.7702-8.1868-1.5489-14.9723-2.5077-21.9792-2.2127-9.8834.3688-19.4717 2.434-28.3962 4.4992-.295.1475-.4426.1475-.4426.2212z"/></g><path d="m104.144 85.1149c-.368-.295-.885-.3688-1.327-.295-.517.0737-.885.3688-1.18.7375-.148.2213-.295.3688-.443.5163-3.6877 4.868-9.4407 7.597-15.4888 7.597-6.2692 0-12.1698-3.0978-15.8576-8.1133-.295-.3687-.7375-.6638-1.1801-.7375-.0737 0-.2213 0-.295 0-.3688 0-.7376.1475-1.0326.3688-.8113.59-.9588 1.6964-.4425 2.5077 4.3516 6.048 11.3585 9.5883 18.7341 9.5883 7.2281 0 13.8662-3.2453 18.2915-8.9983.148-.2212.295-.4425.516-.6638.738-.8113.517-1.9176-.295-2.5077z" fill="#fb635b"/><path d="m148.84 48.458 2.213 4.4991 4.942.6638-3.614 3.5403.885 4.9417-4.426-2.3602-4.425 2.3602.811-4.9417-3.614-3.5403 5.016-.6638z" fill="#fb635b"/><path d="m154.962 80.3208 2.213 4.4991 4.942.7376-3.54 3.4665.811 4.9417-4.426-2.2864-4.425 2.2864.885-4.9417-3.614-3.4665 4.942-.7376z" fill="#fb635b"/><path d="m146.775 115.355 2.213 4.499 4.942.664-3.614 3.54.885 4.942-4.426-2.36-4.425 2.36.811-4.942-3.54-3.54 4.942-.664z" fill="#fb635b"/><path d="m22.2008 48.458-2.2127 4.4991-4.9417.6638 3.5403 3.5403-.8113 4.9417 4.4254-2.3602 4.4253 2.3602-.8113-4.9417 3.5403-3.5403-4.9416-.6638z" fill="#fb635b"/><path d="m16.005 80.3208-2.2127 4.4991-4.94171.7376 3.61411 3.4665-.8851 4.9417 4.4254-2.2864 4.4253 2.2864-.8113-4.9417 3.5403-3.4665-4.9416-.7376z" fill="#fb635b"/><path d="m24.2657 115.355-2.2127 4.499-4.9417.664 3.5403 3.54-.8113 4.942 4.4254-2.36 4.4254 2.36-.8851-4.942 3.6141-3.54-4.9417-.664z" fill="#fb635b"/></svg>