<svg fill="none" height="26" viewBox="0 0 25 26" width="25" xmlns="http://www.w3.org/2000/svg" xmlns:xlink="http://www.w3.org/1999/xlink"><clipPath id="a"><path d="m.5 0h24v25.4545h-24z"/></clipPath><g clip-path="url(#a)"><path d="m12.5 0c-3.26216 0-3.66871.015752-4.94537.0697587-1.28191.0630083-2.14902.2617823-2.91411.5588203-.80076.302303-1.52595.775611-2.12502 1.386921-.61302.59767-1.08659 1.32327-1.38692 2.12502-.297039.76509-.495813 1.6322-.558821 2.91411-.057757 1.27741-.069759 1.68321-.069759 4.94537 0 3.2622.015752 3.6687.069759 4.9454.063008 1.2781.261782 2.149.558821 2.9141.3023.8007.77561 1.5259 1.38692 2.125.59767.613 1.32327 1.0866 2.12502 1.3869.76509.2933 1.63595.4958 2.91411.5588 1.27741.0578 1.68321.0698 4.94537.0698 3.2622 0 3.6687-.0158 4.9454-.0698 1.2781-.063 2.149-.2662 2.9141-.5588.8007-.3023 1.5259-.7756 2.125-1.3869.6138-.597 1.0875-1.3228 1.3869-2.125.2933-.7651.4958-1.636.5588-2.9141.0578-1.2774.0698-1.6832.0698-4.9454 0-3.26216-.0158-3.66871-.0698-4.94537-.063-1.27816-.2662-2.15352-.5588-2.91411-.3023-.80076-.7756-1.52595-1.3869-2.12502-.597-.61381-1.3228-1.087499-2.125-1.386921-.7651-.297038-1.636-.495812-2.9141-.5588203-1.2774-.0577572-1.6832-.0697587-4.9454-.0697587zm0 2.16027c3.2037 0 3.5862.01575 4.8524.06976 1.1679.05476 1.8039.24978 2.2262.4148.5221.19272.9946.49945 1.3832.89786.3977.38692.7033.85837.8941 1.37943.165.4223.3601 1.05838.4148 2.22627.054 1.26616.0698 1.64946.0698 4.85231 0 3.203-.0158 3.5862-.0743 4.8524-.063 1.1679-.258 1.804-.4223 2.2263-.2273.5633-.4808.9571-.8993 1.3832-.3899.3959-.8621.7011-1.3832.8941-.4171.165-1.0621.36-2.2345.4148-1.273.054-1.648.0697-4.8599.0697s-3.5862-.0157-4.86061-.0742c-1.1679-.063-1.81223-.2581-2.23453-.4223-.57007-.2273-.96087-.4808-1.37942-.8994-.42231-.4223-.69084-.8243-.89787-1.3832-.16802-.417-.36004-1.0621-.4223-2.2345-.04275-1.2579-.06301-1.648-.06301-4.8449 0-3.19535.02026-3.58615.06301-4.85981.06226-1.1724.25428-1.81598.4223-2.23453.20703-.57082.47631-.96087.89787-1.38317.4178-.4178.80935-.68784 1.37942-.89936.4223-.16427 1.05088-.3593 2.22328-.41781 1.27291-.04575 1.64795-.06225 4.85536-.06225zm0 3.68071c-.8091-.0003-1.6103.15885-2.3579.46834-.74754.30949-1.42679.76326-1.9989 1.33538-.57212.57211-1.02589 1.25136-1.33538 1.99892-.30949.74758-.46864 1.54878-.46834 2.35788-.0003.8091.15885 1.6103.46834 2.3579.30949.7475.76326 1.4268 1.33538 1.9989.57211.5721 1.25136 1.0259 1.9989 1.3354.7476.3095 1.5488.4686 2.3579.4683.8091.0003 1.6103-.1588 2.3579-.4683.7475-.3095 1.4268-.7633 1.9989-1.3354s1.0259-1.2514 1.3354-1.9989c.3095-.7476.4686-1.5488.4683-2.3579.0003-.8091-.1588-1.6103-.4683-2.35788-.3095-.74756-.7633-1.42681-1.3354-1.99892-.5721-.57212-1.2514-1.02589-1.9989-1.33538-.7476-.30949-1.5488-.46864-2.3579-.46834zm0 10.16082c-2.2113 0-4.00025-1.789-4.00025-4.0003 0-2.21128 1.78895-4.00025 4.00025-4.00025s4.0002 1.78897 4.0002 4.00025c0 2.2113-1.7889 4.0003-4.0002 4.0003zm7.849-10.40685c-.0004.3823-.1526.7488-.423 1.01898-.2705.27019-.6372.42195-1.0194.42195-.1891 0-.3763-.03723-.5509-.10957s-.3333-.17837-.467-.31203c-.1336-.13366-.2397-.29234-.312-.46698s-.1096-.36182-.1096-.55085.0373-.37621.1096-.55085.1784-.33332.312-.46698c.1337-.13366.2924-.23969.467-.31203s.3618-.10957.5509-.10957c.7928 0 1.4424.64508 1.4424 1.43793z" fill="#fff"/></g></svg>