<svg enable-background="new 0 0 427.3 430.9" viewBox="0 0 427.3 430.9" xmlns="http://www.w3.org/2000/svg"><path d="m215.7 422.8c-113.5-.2-205.6-92.9-205.4-206.5.3-113.8 92.7-205.9 206.3-205.6s205.7 92.9 205.4 206.5-92.9 205.8-206.3 205.6zm72.9-90.4c15.6 3.4 24.5-8.9 34.2-19.4 14.8-16.1 10.3-39.1-9.8-47.9-8.2-3.6-17.2-5-25.7-7.8-15.1-5-28.3-2.8-38.9 9.7-4.1 4.8-8.3 5.5-14.1 3.3-34-12.9-57.7-35.9-70.8-69.9-2.6-6.9-2.5-11.7 3.4-16.7 11.5-9.7 13.4-22.4 9.4-36.3-1.6-5.8-3.3-11.5-4.8-17.3-5-19.6-19-31-35-28.7-15.4 2.2-36.7 24.9-35.7 39.5 1 14.5 2.7 29.2 5.8 43.4 18.2 82.3 95.8 145.8 182 148.1z" fill="#ea706e"/></svg>