<svg enable-background="new 0 0 412.2 430.9" viewBox="0 0 412.2 430.9" xmlns="http://www.w3.org/2000/svg"><g fill="#ea706e"><path d="m205.6 11.2c114.1 0 206.7 92.4 206.6 206.2-.1 114-92.8 206.7-206.5 206.4-113.6-.3-205.6-92.2-205.7-205.6-.1-114.4 91.7-206.9 205.6-207zm-124.8 333.7c18.5-4.3 34.6-7.5 50.3-12 10.6-3 19.6-1.6 29.9 2.4 48.1 18.8 93.4 12.4 133-20.8 39.1-32.9 54.3-76.2 43.6-126.1-11.2-52.7-44.5-87.1-96.8-99.7-52.8-12.7-98.5 3.1-132.4 45.8-33.4 42.2-36.9 89.1-15.2 138.4 2.5 5.7 2.9 13.3 1.5 19.5-3.6 16.8-8.7 33.4-13.9 52.5z"/><path d="m108.5 316.3c13.7-24.5 8.5-43.7-.3-65.4-19.8-48.6 2.1-103.8 47.4-130.2 45.1-26.3 102.8-16.7 137.2 22.9 33.9 39.1 35.7 96.9 4.1 138-31.7 41.3-88.8 54.1-135.8 31.2-6.6-3.2-15.3-3.3-23-2.8-8.4.5-16.7 3.4-29.6 6.3zm134.6-39.6c14.7.5 29.3-8.5 29.2-18-.1-8.2-24-27.5-32.6-26-2.3.4-5.1 2.4-6 4.4-5.9 13.4-15.7 11.1-24.1 4.6-10.7-8.3-20.2-18.2-29.6-28.1-5.8-6.1-4.9-12.4 2.4-17.3 7.8-5.3 6.5-11.2 1.2-17.5-2.5-3-4.3-6.9-7.5-8.9-6.5-4.2-16.1-11.9-19.9-9.8-6.1 3.4-9.1 13.2-12.4 20.8-1.3 2.8-.4 6.9.3 10.2 5.6 31.3 67.2 84.4 99 85.6z"/></g></svg>