<svg width="24" height="24" viewBox="0 0 24 24" fill="none" xmlns="http://www.w3.org/2000/svg">
<path fill-rule="evenodd" clip-rule="evenodd" d="M12.5603 2.00407C15.2136 2.00407 17.698 3.03606 19.5794 4.90806C20.5027 5.82648 21.2348 6.91723 21.7336 8.11776C22.2323 9.31829 22.488 10.605 22.4859 11.904C22.4859 17.352 18.0236 21.78 12.5482 21.78C10.7633 21.78 9.01457 21.312 7.49497 20.4L7.13316 20.196L3.37035 21.18L4.37136 17.532L4.13015 17.148C3.1339 15.5744 2.60695 13.7518 2.61055 11.892C2.62261 6.44405 7.07286 2.00407 12.5603 2.00407ZM7.51909 6.76805C7.79648 6.46805 8.12211 6.39605 8.31507 6.39605C8.5201 6.39605 8.71306 6.40805 8.88191 6.40805C9.07487 6.42005 9.31608 6.34805 9.55729 6.92405C9.81055 7.51205 10.4136 9.00004 10.4859 9.13204C10.5583 9.27604 10.6065 9.44404 10.51 9.64804C10.4136 9.84004 10.3653 9.97204 10.2085 10.14C10.0879 10.32 9.89497 10.536 9.76231 10.668C9.61759 10.8 9.48492 10.98 9.62965 11.268C9.81055 11.568 10.4015 12.54 11.294 13.332C12.4276 14.34 13.3925 14.652 13.706 14.808C13.9955 14.952 14.1643 14.928 14.3452 14.724C14.5141 14.532 15.093 13.86 15.2859 13.56C15.5151 13.272 15.6839 13.32 15.9613 13.416C16.2266 13.512 17.698 14.232 17.9995 14.4C18.301 14.532 18.494 14.604 18.5784 14.724C18.6508 14.856 18.6507 15.444 18.3975 16.14C18.1442 16.836 16.9623 17.472 16.3834 17.556C15.8648 17.628 15.2136 17.664 14.502 17.436C14.0678 17.304 13.5131 17.124 12.8015 16.8C9.79849 15.528 7.84472 12.528 7.67588 12.324C7.54322 12.12 6.46985 10.716 6.46985 9.25204C6.46985 7.80005 7.25377 7.06805 7.51909 6.76805Z" fill="#65CF72"/>
</svg>
