<svg fill="none" height="37" viewBox="0 0 78 37" width="78" xmlns="http://www.w3.org/2000/svg"><g fill="#fff" stroke="#424e58" stroke-miterlimit="10" stroke-width=".716792"><path d="m72.8445 13.5437c.339-1.0142 2.6378-4.93215 2.6378-4.93215v.01068c.2012-.34162.4131-.69392.5932-.99284 0 0 .3708 1.53729.4767 2.24188.2542 1.80423.3178 3.61903-.1483 5.40183-.1589.5872-.4237 1.1744-.7521 1.6868-.4556.6832-1.1547.9715-1.9386.8754-2.4683-.1708-1.1865-3.3201-.8687-4.2916z"/><path d="m74.7004 11.1527c0-.1815.0106-.363 0-.5338-.053-1.45186-.2331-2.87172-.7839-4.22752-.1695-.42702-.2755-.45905-.5827-.13878-.5296.56581-1.0911 1.11026-1.5466 1.74012-1.0488 1.45189-2.553 4.63318-2.7013 6.80038-.0318 1.1316.339 1.4732 1.0805 1.9643 1.3877.9181 2.7755.5765 3.5912-.8967.1695-.3096.3072-.6406.4237-.9715.4132-1.2064.5403-2.4661.5191-3.7365z"/><path d="m71.0456 7.62956c0-.49108.0423-.90742-.0106-1.47323-.0954-.62986-.2225-1.19567-.4661-1.84689-.3284-.80067-.9852-1.13161-1.8327-1.06756-1.2289.08541-1.8857.42703-2.9026 1.30243-1.3454 1.21702-2.0022 2.53012-2.8073 4.45173-.6886 1.54796-.7521 2.75436-.8475 4.01406-.0635 1.3558.8793 2.3166 1.6208 3.0319 1.017.9821 2.1823 1.6333 3.6124 1.6226.2013 0 .4555-.1067.5932-.2562.7945-.8327 1.3242-1.8468 1.748-2.9037.8898-2.1992 1.1546-4.4624 1.2924-6.87514z"/><path d="m63.9261 5.14214c.0954 1.35581.2755 4.00336.2755 6.02106 0 1.6654.4343 6.5335-3.284 7.0459s-5.0425-2.0177-5.106-2.8504c-.0742-.8327-.9958-6.2559.6038-8.95684 1.4619-2.45539 3.3051-3.91795 5.4662-3.84322 1.5996.06405 1.9174.96081 2.0445 2.5835z"/><path d="m45.3889 20.9952c2.5531.0213 4.4069-.5552 6.1972-1.4626 1.1653-.5872 1.7479-1.6547 1.8751-3.1066.2542-3.0425-.1589-5.9677-1.1759-8.77536-.9005-2.48742-2.2988-4.49443-4.3327-5.80753-1.5891-1.024864-2.9556-.67257-4.1527.93945-1.017 1.36648-1.6526 2.90377-2.3306 4.50511-1.4407 3.41623-1.7055 7.12063-1.3665 10.83573.0953 1.0889.5509 1.7935 1.4831 2.1138 1.4407.5018 2.9026.7473 3.803.758z"/><path d="m29.9027 24.8278s.4025 4.5158 1.0699 6.416c.6674 1.9003 2.8073 3.8859 3.909 4.1955 1.1017.3203 2.214-.3202 2.5848-2.4554.3708-2.1351.1165-7.6757.1059-7.996-.0318-1.3451-.2542-1.9003-2.2458-1.9003s-3.0615.0748-3.9514.0748c-.8898 0-1.6949.2348-1.4724 1.6654z"/><path d="m19.7318 25.5216s.3602 3.9714.964 5.8823c.5932 1.9003 2.5212 3.8859 3.517 4.1955s1.409-.5338 2.32-2.4554c.9746-2.0604 1.2394-7.1313 1.2288-7.4622-.0317-1.3452-.233-1.9003-2.0233-1.9003s-3.8772.0747-4.6717.0747-1.5255.2456-1.3348 1.6654z"/><path d="m3.24972 23.0768c.23306-2.0071 1.97039-1.8576 2.88143-.8648.54026.5445.81569 1.185.78391 1.9323-.06356 1.516-.13771 1.9537-.24365 3.4696-.03178.4697-.09534.9501-.23305 1.3985-.15891.5018-.55086.6085-.9746.3096-.27543-.2028-.54027-.4591-.75214-.7366-1.05935-1.3345-1.19706-1.6334-1.4513-3.5123-.04238-.6512-.0106-1.3024-.0106-1.9963z"/><path d="m10.9375 23.1735c.5932.5658.7415 1.4732.8581 1.9323.2966 1.3664.2012 1.9002.2966 3.2347.0953 1.3665.1695 2.3059-.4026 3.3628-.3496.6512-.8263.822-1.4619.4911-.49788-.2562-.99577-.5872-1.36654-1.0035-1.44072-1.5907-2.01276-3.5123-1.91742-5.6581.02118-.5124.12712-1.0142.20127-1.5373.4873-2.3059 2.38354-1.9536 3.79249-.822z"/><path d="m56.787 24.9132s-.3708 3.9714-.9852 5.8823c-.6145 1.9109-2.5849 3.8859-3.6018 4.1955-1.017.3096-1.4407-.5338-2.373-2.4554-.9958-2.0604-1.2606-7.1313-1.2606-7.4622.0318-1.3452.2331-1.9003 2.0763-1.9003 1.8327 0 3.9726.0747 4.7883.0747s1.5572.2349 1.356 1.6654z"/><path d="m73.535 23.0768c-.2331-2.0071-1.9704-1.8576-2.8814-.8648-.5403.5445-.8157 1.185-.7839 1.9323.0635 1.516.1377 1.9537.2436 3.4696.0318.4697.0954.9501.2331 1.3985.1589.5018.5508.6085.9746.3096.2754-.2028.5402-.4591.7521-.7366 1.0594-1.3345 1.1971-1.6334 1.4513-3.5123.0424-.6512.0106-1.3024.0106-1.9963z"/><path d="m65.855 23.1735c-.5932.5658-.7415 1.4732-.858 1.9323-.2967 1.3664-.2013 1.9002-.2967 3.2347-.0953 1.3665-.1695 2.3059.4026 3.3628.3496.6512.8263.822 1.4619.4911.4979-.2562.9958-.5872 1.3666-1.0035 1.4407-1.5907 2.0127-3.5123 1.9174-5.6581-.0212-.5124-.1271-1.0142-.2013-1.5373-.4979-2.3059-2.3835-1.9536-3.7925-.822z"/><path d="m57.9948 28.3936c.1695 1.1956.5933 2.5087 1.0912 3.6937.2966.8434.6991 1.6654 1.1653 2.4341.3601.5978.9746.8327 1.6843.6192.7733-.2242 1.2183-.8221 1.589-1.484.6145-1.0889.9429-2.2952 1.1441-3.5336.3602-2.2419.1801-4.1315-.1695-6.352-.0211-.1174-.1801-.6085-.2754-.6512-.4979-.4484-.7733-.5231-1.7373-.6832-3.4853-.2349-4.5234.9821-4.4917 5.957z"/><path d="m46.8308 24.6674s-.3496 4.5158-.911 6.416c-.5615 1.9003-2.3942 3.886-3.337 4.1956s-1.8856-.3203-2.2034-2.4554c-.3178-2.1352-.106-7.6758-.0954-7.9961.0318-1.3451.2225-1.9003 1.9175-1.9003 1.6949 0 2.6165.0748 3.3687.0748.7521 0 1.4513.2348 1.2606 1.6654z"/><path d="m5.15464 13.5437c-.33899-1.0142-2.63778-4.93215-2.63778-4.93215v.01068c-.20127-.34162-.41314-.69392-.59323-.99284 0 0-.37077 1.53729-.47671 2.24188-.25424 1.80423-.3178 3.61903.14831 5.40183.1589.5872.42374 1.1744.75214 1.6868.45552.6832 1.15469.9715 1.9386.8754 2.46828-.1708 1.18647-3.3201.86867-4.2916z"/><path d="m3.29963 11.1527c0-.1815-.01059-.363 0-.5338.05297-1.45186.23306-2.87172.78392-4.22752.16949-.42702.27543-.45905.58264-.13878.52967.56581 1.09113 1.11026 1.54665 1.74012 1.04875 1.45189 2.55302 4.63318 2.70133 6.80038.03178 1.1316-.33899 1.4732-1.08053 1.9643-1.38775.9181-2.77549.5765-3.59119-.8967-.1695-.3096-.30721-.6406-.42374-.9715-.41315-1.2064-.54027-2.4661-.51908-3.7365z"/><path d="m6.95745 7.62956c0-.49108-.04237-.90742.0106-1.47323.09534-.62986.22246-1.19567.46611-1.84689.3284-.80067.98519-1.13161 1.83267-1.06756 1.22887.08541 1.88567.42703 2.90257 1.30243 1.3454 1.21702 2.0022 2.53012 2.8073 4.45173.6886 1.54796.7521 2.75436.8475 4.01406.0636 1.3558-.8793 2.3166-1.6208 3.0319-1.017.9821-2.1823 1.6333-3.6124 1.6226-.2013 0-.4555-.1067-.59322-.2562-.79451-.8327-1.32418-1.8468-1.74792-2.9037-.88985-2.1992-1.15469-4.4624-1.29241-6.87514z"/><path d="m13.4366 5.93218c-.0954 1.35581-.2754 4.00336-.2754 6.02102 0 1.6654-.4238 6.5335 3.2839 7.0459 3.7077.5125 5.0319-2.0176 5.1061-2.8503.0741-.8327.9958-6.25596-.6039-8.9569-1.4618-2.45539-3.3051-3.91795-5.4662-3.84322-1.6102.06405-1.928.96081-2.0445 2.5835z"/><path d="m31.7974 20.2054c-2.6484.0213-4.5658-.5551-6.4197-1.4626-1.2076-.5871-1.8115-1.6547-1.9386-3.1066-.2648-3.0425.1695-5.96766 1.2183-8.77535.9322-2.48742 2.3729-4.49444 4.481-5.80754 1.642-1.024859 3.0615-.672563 4.301.93946 1.0487 1.36648 1.7161 2.90377 2.4153 4.50511 1.4936 3.4162 1.7585 7.12062 1.4089 10.83572-.1059 1.089-.5615 1.7935-1.5361 2.1138-1.483.4911-2.9979.7366-3.9301.758z"/><path d="m19.2439 28.3936c-.1695 1.1956-.5933 2.5087-1.0912 3.6937-.2966.8434-.6991 1.6654-1.1653 2.4341-.3601.5978-.9746.8327-1.6843.6192-.7733-.2242-1.2183-.8221-1.589-1.484-.6145-1.0889-.9429-2.2952-1.1441-3.5336-.3602-2.2419-.1801-4.1315.1695-6.352.0212-.1174.1801-.6085.2754-.6512.4979-.4484.7733-.5231 1.7373-.6832 3.4853-.2349 4.5234.9821 4.4917 5.957z"/></g></svg>