<svg fill="none" height="34" viewBox="0 0 73 34" width="73" xmlns="http://www.w3.org/2000/svg"><g fill="#fff" stroke="#424e58" stroke-miterlimit="10" stroke-width=".71358"><path d="m68.024 12.7609c.3375-1.0097 2.6471-4.94195 2.6471-4.94195v.01063c.2003-.34009.4112-.69081.6011-.99901 0 0 .3796 1.54103.4745 2.24246.2531 1.81737.3164 3.63467-.1476 5.42017-.1582.5952-.4218 1.1797-.7593 1.6898-.4535.6802-1.1601.9672-1.9405.8715-2.4783-.17-1.1917-3.3265-.8753-4.2936z"/><path d="m69.8893 10.3588c0-.1806.0106-.36132 0-.54199-.0527-1.45601-.2425-2.88013-.7804-4.24049-.1687-.42511-.2742-.46762-.58-.13816-.5379.56327-1.0968 1.11592-1.5608 1.75358-1.0546 1.45601-2.5627 4.64436-2.7104 6.82306-.0316 1.1265.3375 1.4772 1.0863 1.9661 1.3921.914 2.7736.5739 3.5962-.8927.1687-.3082.3058-.6377.4218-.9778.4113-1.2115.5379-2.4762.5273-3.7516z"/><path d="m66.4733 7.277c.0422-.48888.1265-.89273.1265-1.46663-.0316-.63767-.1054-1.21157-.2847-1.88112-.2426-.82897-.8753-1.2222-1.7296-1.24345-1.2338-.03189-1.9193.24444-3.0161 1.02027-1.4554 1.08403-2.2358 2.33811-3.2271 4.16609-.8331 1.47726-1.0124 2.67824-1.2233 3.92164-.1899 1.3497.6538 2.3913 1.3288 3.1884.928 1.084 2.0248 1.8386 3.4485 1.9661.2004.0212.464-.0638.6117-.1913.8753-.744 1.4975-1.7111 2.0248-2.7314 1.0968-2.1255 1.5714-4.36797 1.9405-6.7486z"/><path d="m56.6357 4.51387c.3269 1.31784.9386 3.91103 1.276 5.89843.2742 1.6473 1.5187 6.3873-2.067 7.5245-3.5856 1.1371-5.3152-1.1372-5.5261-1.9449s-2.0354-6.01535-.8964-8.94862c1.0335-2.66757 2.6154-4.44241 4.7562-4.72936 1.603-.21256 2.0776.60578 2.4573 2.19995z"/><path d="m33.4944 20.1472c-2.9529.0319-5.1676-.5207-7.3506-1.4241-1.4237-.5845-2.2357-1.6367-2.5627-3.0821-.6855-3.0289-.5694-5.93026.2426-8.72537.7277-2.47628 2.0776-4.48493 4.2711-5.80278 1.7085-1.0308934 3.322-.680176 4.9145.91399 1.3499 1.36036 2.2779 2.88014 3.2692 4.46368 2.0987 3.39026 2.8685 7.06748 2.9529 10.77658.0211 1.084-.4007 1.7855-1.4448 2.1043-1.603.4995-3.2587.7546-4.2922.7758z"/><path d="m37.8101 19.6582c2.9212.457 5.1886.2126 7.4771-.3613 1.487-.372 2.4466-1.3073 2.9634-2.6889 1.0968-2.9014 1.4026-5.7921.9808-8.67226-.3691-2.5613-1.4343-4.72937-3.4064-6.34479-1.5502-1.275335-3.1954-1.169057-4.9988.1913-1.5186 1.1478-2.6576 2.51879-3.8598 3.95354-2.5521 3.0608-3.8282 6.58921-4.4293 10.24521-.1793 1.0734.1476 1.828 1.1284 2.285 1.5186.7333 3.1216 1.2115 4.1446 1.3922z"/><path d="m19.9942 21.752s.4007 3.9854 1.044 5.8984c.6539 1.9024 2.7525 3.8898 3.8282 4.2086 1.0863.3189 1.5398-.5314 2.5311-2.4656 1.0651-2.0618 1.3499-7.1525 1.3393-7.482-.0316-1.3497-.2531-1.9024-2.2041-1.9024s-4.2289.0744-5.1043.0744c-.8753 0-1.6451.2338-1.4342 1.6686z"/><path d="m4.84868 19.6156c.23202-2.0193 1.97211-1.8705 2.88961-.8715.54839.5527.81205 1.1903.79095 1.9449-.06327 1.5198-.14764 1.9555-.24256 3.4753-.03163.4676-.09491.9565-.24255 1.4029-.15819.4995-.55894.6164-.97024.3082-.28474-.2019-.53784-.457-.75931-.7333-1.0546-1.3391-1.20225-1.6473-1.45535-3.5178-.03164-.659-.01055-1.3073-.01055-2.0087z"/><path d="m12.5691 19.7115c.5906.5633.7383 1.4773.8543 1.9343.2953 1.371.2109 1.9024.2953 3.2415.0949 1.371.1687 2.3168-.4113 3.369-.3586.6483-.8226.829-1.4659.4889-.4957-.2657-1.0019-.5846-1.371-.999-1.44482-1.5942-2.0143-3.5285-1.91939-5.6753.02109-.5101.12655-1.0203.20037-1.541.50621-2.3063 2.40452-1.9449 3.81762-.8184z"/><path d="m53.575 21.752s-.4008 3.9854-1.0441 5.8984c-.6538 1.9024-2.7525 3.8898-3.8282 4.2086-1.0862.3189-1.5397-.5314-2.531-2.4656-1.0652-2.0618-1.3499-7.1525-1.3394-7.482.0316-1.3497.2531-1.9024 2.2041-1.9024 1.9511 0 4.229.0744 5.1043.0744.8754 0 1.6558.2338 1.4343 1.6686z"/><path d="m68.7208 19.6156c-.232-2.0193-1.9721-1.8705-2.8896-.8715-.5484.5527-.8121 1.1903-.791 1.9449.0633 1.5198.1477 1.9555.2426 3.4753.0316.4676.0949.9565.2426 1.4029.1581.4995.5589.6164.9702.3082.2847-.2019.5378-.457.7593-.7333 1.0546-1.3391 1.2022-1.6473 1.4553-3.5178.0422-.659.0106-1.3073.0106-2.0087z"/><path d="m61.0112 19.7115c-.5906.5633-.7382 1.4773-.8542 1.9343-.2953 1.371-.211 1.9024-.2953 3.2415-.0949 1.371-.1688 2.3168.4113 3.369.3585.6483.8226.829 1.4659.4889.4956-.2657 1.0018-.5846 1.3709-.999 1.4448-1.5942 2.0143-3.5285 1.9194-5.6753-.0211-.5101-.1265-1.0203-.2004-1.541-.5062-2.3063-2.4044-1.9449-3.8176-.8184z"/><path d="m44.9063 20.7106s-.4324 4.6656-1.1389 6.8018c-.7066 2.1362-2.9951 4.8675-4.1763 5.5583-1.1811.7014-2.3623.4464-2.763-1.5729-.3902-2.0193-.1266-7.652-.116-7.9815.0421-1.3603.2742-1.998 2.4045-2.6888s3.2692-.9778 4.2184-1.286c.9386-.2975 1.8033-.34 1.5713 1.1691z"/><path d="m27.8496 21.4118s1.139 4.5487 2.1725 6.5467c1.023 1.9981 3.7016 4.3362 4.9777 4.8463s2.4045.0744 2.4889-1.9768c.0843-2.0511-1.0441-7.5776-1.1074-7.907-.2425-1.3391-.58-1.9237-2.7841-2.2744s-3.3853-.457-4.3661-.6164c-.9807-.1594-1.8455-.0638-1.3815 1.3816z"/><path d="m4.97933 12.7609c-.33747-1.0097-2.64705-4.94195-2.64705-4.94195v.01063c-.20037-.34009-.41129-.69081-.60112-.99901 0 0-.37966 1.54103-.47457 2.24246-.25311 1.81737-.316383 3.63467.14764 5.42017.15819.5952.42184 1.1797.75931 1.6898.45348.6802 1.16006.9672 1.94047.8715 2.47831-.17 1.1917-3.3265.87532-4.2936z"/><path d="m3.11211 10.3588c0-.1806-.01055-.36132 0-.54199.05273-1.45601.24256-2.88013.7804-4.24049.16874-.42511.2742-.46762.58003-.13816.53785.56327 1.09679 1.11592 1.56081 1.75358 1.0546 1.45601 2.56268 4.64436 2.71033 6.82306.03163 1.1265-.33748 1.4772-1.08624 1.9661-1.39208.914-2.7736.5739-3.59619-.8927-.16874-.3082-.30583-.6377-.42184-.9778-.41129-1.2115-.53785-2.4762-.5273-3.7516z"/><path d="m6.78355 6.83053c0-.48888-.04218-.90337.01055-1.47727.09491-.62704.22147-1.20094.46402-1.84923.32693-.79709.99133-1.13718 1.83501-1.07341 1.22337.08502 1.88777.42511 2.91067 1.30722 1.3499 1.2222 2.0038 2.54004 2.8158 4.46367.696 1.55166.7488 2.76319.8437 4.01729.0633 1.3604-.8859 2.3169-1.6241 3.0396-1.023.9883-2.183 1.6366-3.6278 1.626-.2004 0-.4535-.1063-.5906-.2551-.80149-.8289-1.32879-1.8492-1.75063-2.912-.88587-2.1999-1.14952-4.47427-1.28662-6.88677z"/><path d="m15.6308 5.65087c.0632 1.36036.2003 4.01731.4323 6.02593.2004 1.658.3375 6.5574 4.1024 6.6318 3.765.0744 4.7774-2.6145 4.7563-3.4434-.0317-.8396.2636-6.34483-1.6557-8.84236-1.7401-2.26372-3.7544-3.50717-5.8953-3.17771-1.5924.24444-1.8033 1.16906-1.74 2.80574z"/><path d="m53.1335 24.7595c.1687 1.201.6011 2.5188 1.0968 3.6985.2953.8502.7066 1.6686 1.1706 2.4444.3586.5952.9702.829 1.6874.6164.7804-.2338 1.2233-.8183 1.6029-1.4879.6117-1.0946.9492-2.2956 1.1496-3.539.3691-2.2531.1792-4.1449-.1688-6.3767-.0211-.1169-.1898-.6058-.2847-.6483-.4957-.4464-.7699-.5208-1.7401-.6908-3.5118-.2338-4.5453.9884-4.5137 5.9834z"/><path d="m20.3513 24.7595c-.1688 1.201-.6012 2.5188-1.0968 3.6985-.2953.8502-.7066 1.6686-1.1706 2.4444-.3586.5952-.9703.829-1.6874.6164-.7804-.2338-1.2233-.8183-1.603-1.4879-.6116-1.0946-.9491-2.2956-1.1495-3.539-.3691-2.2531-.1793-4.1449.1687-6.3767.0211-.1169.1899-.6058.2848-.6483.4957-.4464.7698-.5208 1.7401-.6908 3.5118-.2338 4.5558.9884 4.5137 5.9834z"/></g></svg>