<svg fill="none" height="40" viewBox="0 0 78 40" width="78" xmlns="http://www.w3.org/2000/svg"><g fill="#fff" stroke="#424e58" stroke-miterlimit="10" stroke-width=".71358"><path d="m55.5792 24.433s-.4083 4.0492-1.0851 5.9941c-.6768 1.9343-2.8469 3.9536-3.9749 4.283-1.128.3189-1.59-.542-2.6213-2.5081-1.0958-2.1043-1.3966-7.2694-1.3859-7.6095.0322-1.371.2578-1.9343 2.2883-1.9343 2.0197 0 4.3832.085 5.2856.085.8917-.0106 1.7189.2338 1.4933 1.6898z"/><path d="m71.2625 22.8073c-.2363-2.0512-2.0519-1.9024-2.9866-.8821-.5586.5526-.8487 1.2116-.8164 1.9768.0644 1.541.1504 1.9874.247 3.539.0323.4783.0967.9672.2471 1.4242.1612.5101.5802.6164 1.0099.3082.2901-.2126.5586-.4677.7842-.744 1.0958-1.3603 1.2462-1.6685 1.5041-3.5816.0322-.6589.0107-1.3284.0107-2.0405z"/><path d="m63.2702 22.9134c-.6123.5739-.7627 1.4985-.8917 1.9661-.3008 1.3923-.2148 1.9343-.3008 3.2946-.0967 1.3923-.1719 2.3488.419 3.4328.3653.6589.8487.8396 1.5148.4995.5157-.2657 1.0313-.5951 1.4181-1.0202 1.504-1.6155 2.0949-3.5816 1.9875-5.7709-.0215-.5208-.129-1.0309-.2042-1.573-.5156-2.3487-2.4709-1.9767-3.9427-.8289z"/><path d="m55.127 27.5687c.1396 1.2222.5479 2.572 1.0313 3.7941.2901.8715.6876 1.7217 1.1388 2.5188.3545.6164.9776.8715 1.7296.6802.8165-.2125 1.2892-.7971 1.6974-1.4666.6661-1.0947 1.0421-2.3063 1.2892-3.5603.4405-2.2744.3116-4.2086 0-6.483-.0107-.1169-.1719-.627-.2686-.6695-.5049-.4677-.7842-.5527-1.7833-.744-3.6205-.3507-4.727.8609-4.8344 5.9303z"/><path d="m46.5961 24.433s-.4512 4.6019-1.1817 6.5361c-.7305 1.9343-3.1048 3.9536-4.3295 4.283-1.2247.3189-2.4494-.3188-2.8577-2.5081-.4082-2.1787-.1289-7.8221-.1181-8.1515.0429-1.371.29-1.9343 2.4924-1.9343 2.2023 0 3.384.085 4.3617.085.9776 0 1.88.2338 1.6329 1.6898z"/><path d="m20.2762 24.433s.4083 4.0492 1.0851 5.9941 2.8469 3.9536 3.9749 4.283c1.1281.3189 1.59-.542 2.6214-2.5081 1.0958-2.1043 1.3966-7.2694 1.3858-7.6095-.0322-1.371-.2578-1.9343-2.2883-1.9343-2.0304 0-4.3832.085-5.2856.085s-1.7189.2338-1.4933 1.6898z"/><path d="m4.59168 22.8073c.23635-2.0512 2.05194-1.9024 2.98659-.8821.55864.5526.84871 1.2116.81648 1.9768-.06446 1.541-.1504 1.9874-.24709 3.539-.03223.4783-.09669.9672-.2471 1.4242-.16114.5101-.58012.6164-1.00985.3082-.29006-.2126-.55864-.4677-.78425-.744-1.0958-1.3603-1.2462-1.6685-1.50404-3.5816-.04297-.6589-.01074-1.3284-.01074-2.0405z"/><path d="m12.5732 22.9134c.6124.5739.7628 1.4985.8917 1.9661.3008 1.3923.2148 1.9343.3008 3.2946.0967 1.3923.1719 2.3488-.419 3.4328-.3653.6589-.8487.8396-1.5148.4995-.5156-.2657-1.0313-.5951-1.4181-1.0202-1.504-1.6155-2.09487-3.5816-1.98744-5.7709.02149-.5208.12892-1.0309.20412-1.573.51567-2.3487 2.48162-1.9767 3.94272-.8289z"/><path d="m20.727 27.5687c-.1396 1.2222-.5479 2.572-1.0313 3.7941-.2901.8715-.6876 1.7217-1.1388 2.5188-.3545.6164-.9776.8715-1.7296.6802-.8165-.2125-1.2892-.7971-1.6974-1.4666-.6661-1.0947-1.0421-2.3063-1.2892-3.5603-.4405-2.2744-.3116-4.2086 0-6.483.0107-.1169.1719-.627.2686-.6695.5049-.4677.7842-.5527 1.7833-.744 3.6205-.3507 4.727.8609 4.8344 5.9303z"/><path d="m30.3606 29.263s1.6268 4.3283 2.8331 6.0075c1.2063 1.6793 4.0222 3.0153 5.2905 3.0165 1.2655-.009 2.2835-.9419 2.1111-3.1623-.1695-2.2101-1.8999-7.5889-1.9956-7.9043-.3963-1.3132-.7808-1.7933-2.9081-1.2233s-3.2468.958-4.1911 1.211c-.947.2428-1.7555.7125-1.1399 2.0549z"/><path d="m73.2285 17.1429c.3545-1.0309 2.7395-5.0269 2.7395-5.0269v.0106c.2149-.3507.4298-.7015.6231-1.0097 0 0 .3868 1.573.4942 2.285.2578 1.8386.333 3.6879-.1504 5.5052-.1611.6058-.4405 1.201-.7842 1.7217-.4727.6908-1.1925.9884-2.009.8927-2.5784-.1806-1.2462-3.3902-.9132-4.3786z"/><path d="m75.1635 14.6982c0-.1807.0108-.3614 0-.542-.0537-1.4773-.2471-2.9333-.8165-4.3043-.1826-.43573-.29-.46762-.6016-.14878-.5586.57388-1.1388 1.13718-1.6115 1.77488-1.085 1.4772-2.6535 4.7187-2.8039 6.9293-.0322 1.1478.3545 1.4985 1.128 1.998 1.4396.9352 2.8792.5845 3.7279-.914.1826-.3188.3223-.6483.4405-.999.4189-1.2116.5479-2.4975.5371-3.7941z"/><path d="m71.3613 11.1168c0-.4995.0429-.9247-.0108-1.49856-.0967-.63766-.2363-1.22219-.4834-1.88111-.3331-.81834-1.0206-1.14781-1.9015-1.09467-1.2677.09565-1.9553.42511-3.0081 1.32848-1.3966 1.24345-2.0735 2.58256-2.9114 4.53806-.7198 1.5835-.7843 2.8164-.881 4.0917-.0644 1.3816.9132 2.3594 1.6867 3.0927 1.0636 1.0096 2.2668 1.6579 3.7494 1.6579.2041 0 .4727-.1063.6123-.255.8273-.8396 1.3751-1.8812 1.8156-2.9652.9239-2.2531 1.1925-4.5593 1.3322-7.0143z"/><path d="m62.2301 9.23707c-.2642 1.35953-.7761 4.01713-1.3069 5.99833-.4401 1.6425-1.2992 6.5506-5.1594 6.0554-3.8601-.4952-4.52-3.3456-4.3726-4.1864.1474-.8407.6438-6.4291 2.9751-8.65411 2.1096-2.02038 4.3549-2.97012 6.4913-2.30965 1.6024.49536 1.6875 1.4644 1.3725 3.09643z"/><path d="m44.243 24.7415c2.9006.0213 5.0063-.5633 7.0367-1.4879 1.3214-.6058 1.9875-1.6898 2.1272-3.1671.29-3.1033-.1827-6.0791-1.3429-8.9379-1.0206-2.54009-2.6106-4.58062-4.9204-5.91972-1.8048-1.04153-3.3518-.69081-4.7162.9565-1.1495 1.39224-1.88 2.95452-2.6536 4.59122-1.6436 3.4859-1.9337 7.2588-1.547 11.0529.1075 1.1159.6231 1.828 1.676 2.1468 1.6544.4889 3.3088.7439 4.3402.7652z"/><path d="m4.77317 17.972c-.35452-1.0309-2.7395-5.0269-2.7395-5.0269v.0106c-.21486-.3507-.42972-.7014-.6231-1.0097 0 0-.38675 1.573-.494181 2.285-.257835 1.8386-.333037 3.6879.150401 5.5052.16115.6058.44047 1.201.78425 1.7217.4727.6908 1.19249.9884 2.00897.8928 2.57835-.1913 1.2462-3.4009.91316-4.3787z"/><path d="m2.83876 15.5275c0-.1806-.01074-.3613 0-.542.05371-1.4773.24709-2.9333.81648-4.3042.18263-.4358.29006-.4677.60161-.1488.55865.5739 1.13877 1.1371 1.61147 1.7748 1.08506 1.4773 2.65356 4.7187 2.80396 6.9293.03223 1.1478-.35452 1.4985-1.12803 1.9981-1.43958.9352-2.87916.5845-3.72787-.914-.18263-.3189-.32229-.6483-.44046-.999-.41899-1.2222-.5479-2.4976-.53716-3.7942z"/><path d="m6.64127 11.9349c0-.4995-.04297-.9246.01075-1.4985.09668-.63771.23635-1.22223.48344-1.88116.33303-.81834 1.02059-1.1478 1.90153-1.09466 1.26771.09565 1.95521.42511 3.00811 1.32847 1.3966 1.24345 2.0734 2.58255 2.9114 4.53805.7197 1.5836.7842 2.8164.8809 4.0917.0644 1.3816-.9132 2.3594-1.6867 3.0927-1.0635 1.0097-2.2668 1.658-3.7493 1.658-.2042 0-.47273-.1063-.61239-.2551-.82722-.8396-1.37512-1.8811-1.81559-2.9652-.92391-2.2424-1.19249-4.5593-1.33215-7.0143z"/><path d="m16.6979 9.38424c-.0967 1.38166-.2901 4.08106-.2901 6.13226 0 1.7004-.4405 6.6636 3.4163 7.1844 3.8568.5207 5.2319-2.0618 5.3071-2.912.0752-.8503 1.0421-6.3767-.6338-9.1293-1.5148-2.49755-3.4378-3.99607-5.6724-3.91105-1.6652.06377-1.9982.97776-2.1271 2.63569z"/><path d="m31.6513 21.1736c-3.0296.0213-5.232-.5632-7.3591-1.4879-1.3859-.6057-2.0842-1.6898-2.2238-3.167-.3008-3.1034.1934-6.0791 1.3966-8.93802 1.0743-2.54004 2.7287-4.58057 5.1459-5.91968 1.8908-1.041519 3.5023-.690802 4.9311.95651 1.2033 1.39224 1.966 2.95452 2.7718 4.5912 1.7081 3.48589 2.0197 7.25879 1.6222 11.05289-.1182 1.1159-.6446 1.828-1.7511 2.1468-1.7189.4889-3.4593.744-4.5336.7652z"/></g></svg>