<svg fill="none" height="36" viewBox="0 0 77 36" width="77" xmlns="http://www.w3.org/2000/svg"><g fill="#fff" stroke="#424e58" stroke-miterlimit="10" stroke-width=".71358"><path d="m72.1952 13.474c.3375-1.0097 2.626-4.91006 2.626-4.91006v.01063c.2004-.34009.4113-.69081.5906-.98839 0 0 .3691 1.5304.4745 2.23184.2531 1.79608.3164 3.60278-.1476 5.37768-.1582.5845-.4218 1.169-.7488 1.6792-.4534.6801-1.1495.9671-1.9299.8714-2.4572-.17-1.1811-3.3052-.8648-4.2723z"/><path d="m74.0405 11.0939c0-.1807.0105-.3613 0-.5314-.0528-1.44537-.2321-2.85886-.7804-4.20859-.1688-.42511-.2742-.457-.5801-.13816-.5273.56327-1.0862 1.10529-1.5397 1.73233-1.044 1.44538-2.5416 4.61242-2.6892 6.76992-.0316 1.1265.3375 1.4666 1.0757 1.9555 1.3815.914 2.763.5739 3.5751-.8927.1687-.3082.3058-.6377.4218-.9672.4113-1.2009.5378-2.455.5168-3.7197z"/><path d="m70.4023 7.58643c0-.48888.0422-.90336-.0105-1.46663-.095-.62704-.2215-1.19032-.4641-1.83861-.3269-.79709-.9807-1.12655-1.8244-1.06278-1.2234.08502-1.8772.42511-2.8896 1.29659-1.3394 1.21157-1.9932 2.51879-2.7947 4.43179-.6855 1.54101-.7488 2.74201-.8437 3.99601-.0633 1.3498.8753 2.3063 1.6135 3.0183 1.0125.9778 2.1725 1.6261 3.5962 1.6155.2004 0 .4535-.1063.5906-.2551.7909-.829 1.3182-1.8386 1.7401-2.8908.8859-2.1893 1.1495-4.44239 1.2866-6.84427z"/><path d="m63.316 5.11053c.0949 1.34973.2742 3.98543.2742 5.99407 0 1.6579.4324 6.5042-3.2692 7.0143-3.7017.5102-5.0199-2.0086-5.0832-2.8376-.0738-.8289-.9913-6.22786.6011-8.91669 1.4554-2.44439 3.2904-3.9004 5.4418-3.826 1.5924.06377 1.9088.9565 2.0353 2.57192z"/><path d="m44.8607 20.8921c2.5416.0213 4.3872-.5526 6.1695-1.456 1.16-.5845 1.7401-1.6473 1.8666-3.0927.2531-3.0289-.1582-5.9409-1.1706-8.73602-.8964-2.47627-2.2885-4.4743-4.3133-5.78151-1.5819-1.020271-2.9424-.66955-4.1341.93524-1.0124 1.36036-1.6451 2.89076-2.3201 4.48493-1.4342 3.40086-1.6979 7.08876-1.3604 10.78716.0949 1.0841.5484 1.7855 1.4764 2.1043 1.4343.4996 2.8896.744 3.786.7546z"/><path d="m29.4435 24.7077s.4007 4.4955 1.0651 6.3873c.6644 1.8917 2.7947 3.8685 3.8915 4.1767 1.0968.3188 2.2041-.3188 2.5732-2.4444.3692-2.1256.1161-7.6414.1055-7.9602-.0316-1.3391-.2531-1.8918-2.2357-1.8918-1.9827 0-3.0478.0744-3.9337.0744s-1.6874.2338-1.4659 1.658z"/><path d="m19.3176 25.3986s.3586 3.9535.9597 5.8559c.5905 1.8917 2.5099 3.8685 3.5012 4.1767.9914.3082 1.4027-.5314 2.3096-2.4444.9703-2.0511 1.2339-7.0993 1.2234-7.4288-.0317-1.3391-.2321-1.8917-2.0143-1.8917-1.7823 0-3.8599.0744-4.6508.0744-.791 0-1.5186.2444-1.3288 1.6579z"/><path d="m2.90787 22.9647c.23202-1.998 1.96156-1.8492 2.86852-.8608.53784.542.81204 1.1797.7804 1.9236-.06328 1.5091-.1371 1.9449-.24256 3.454-.03164.4677-.09491.9459-.23201 1.3923-.15819.4995-.54839.6058-.97023.3082-.2742-.202-.53785-.457-.74877-.7333-1.0546-1.3285-1.1917-1.6261-1.4448-3.4966-.04218-.6483-.01055-1.2966-.01055-1.9874z"/><path d="m10.5641 23.0606c.5905.5633.7382 1.4667.8542 1.9237.2953 1.3603.2004 1.8917.2953 3.2202.0949 1.3603.1687 2.2956-.4008 3.3477-.348.6483-.8226.8184-1.45531.4889-.49567-.2551-.99133-.5845-1.36044-.999-1.43426-1.5836-2.00374-3.4966-1.90883-5.6327.02109-.5102.12655-1.0097.20038-1.5304.48511-2.2956 2.37285-1.9449 3.7755-.8184z"/><path d="m56.2071 24.7926s-.3691 3.9536-.9807 5.8559c-.6117 1.9024-2.5733 3.8686-3.5857 4.1768s-1.4342-.5314-2.3623-2.4444c-.9913-2.0512-1.255-7.0994-1.255-7.4289.0317-1.3391.2321-1.8917 2.0671-1.8917 1.8244 0 3.9547.0744 4.7668.0744.812 0 1.5502.2338 1.3498 1.6579z"/><path d="m72.8818 22.9647c-.232-1.998-1.9615-1.8492-2.8685-.8608-.5378.542-.812 1.1797-.7804 1.9236.0633 1.5091.1371 1.9449.2426 3.454.0316.4677.0949.9459.232 1.3923.1582.4995.5484.6058.9702.3082.2742-.202.5379-.457.7488-.7333 1.0546-1.3285 1.1917-1.6261 1.4448-3.4966.0422-.6483.0105-1.2966.0105-1.9874z"/><path d="m65.2363 23.0606c-.5906.5633-.7382 1.4667-.8542 1.9237-.2953 1.3603-.2004 1.8917-.2953 3.2202-.095 1.3603-.1688 2.2956.4007 3.3477.348.6483.8226.8184 1.4554.4889.4956-.2551.9913-.5845 1.3604-.999 1.4343-1.5836 2.0037-3.4966 1.9088-5.6327-.0211-.5102-.1265-1.0097-.2003-1.5304-.4957-2.2956-2.3729-1.9449-3.7755-.8184z"/><path d="m57.4109 28.2574c.1687 1.1903.5905 2.4975 1.0862 3.6772.2953.8396.696 1.6579 1.1601 2.4231.3585.5952.9702.829 1.6768.6164.7698-.2231 1.2128-.8183 1.5819-1.4772.6116-1.0841.9386-2.285 1.1389-3.5178.3586-2.2319.1793-4.113-.1687-6.3236-.0211-.1169-.1793-.6057-.2742-.6483-.4957-.4463-.7698-.5207-1.7295-.6801-3.4697-.2339-4.5032.9777-4.4715 5.9303z"/><path d="m46.2953 24.5483s-.3481 4.4955-.907 6.3873c-.5589 1.8917-2.3834 3.8685-3.322 4.1767s-1.8772-.3188-2.1936-2.4444c-.3163-2.1256-.1054-7.6414-.0949-7.9602.0317-1.3391.2215-1.8918 1.9088-1.8918 1.6874 0 2.6049.0744 3.3537.0744.7487 0 1.4448.2338 1.255 1.658z"/><path d="m4.80707 13.474c-.33748-1.0097-2.62596-4.91006-2.62596-4.91006v.01063c-.20037-.34009-.4113-.69081-.59058-.98839 0 0-.36911 1.5304-.47457 2.23184-.253102 1.79608-.316378 3.60278.14765 5.37768.15819.5845.42184 1.169.74876 1.6792.45348.6801 1.14952.9671 1.92992.8714 2.45722-.17 1.18116-3.3052.86478-4.2723z"/><path d="m2.96172 11.0939c0-.1807-.01055-.3613 0-.5314.05273-1.44537.23201-2.85886.7804-4.20859.16874-.42511.2742-.457.58003-.13816.5273.56327 1.08624 1.10529 1.53972 1.73233 1.04406 1.44538 2.54159 4.61242 2.68923 6.76992.03164 1.1265-.33747 1.4666-1.07569 1.9555-1.38153.914-2.76305.5739-3.5751-.8927-.16873-.3082-.30583-.6377-.42184-.9672-.41129-1.2009-.53784-2.455-.51675-3.7197z"/><path d="m6.59996 7.58643c0-.48888-.04218-.90336.01055-1.46663.09491-.62704.22146-1.19032.46402-1.83861.32693-.79709.98078-1.12655 1.82446-1.06278 1.22331.08502 1.87721.42511 2.88961 1.29659 1.3393 1.21157 1.9932 2.51879 2.7947 4.43179.6855 1.54101.7488 2.74201.8437 3.99601.0632 1.3498-.8754 2.3063-1.6136 3.0183-1.0124.9778-2.1724 1.6261-3.5962 1.6155-.2003 0-.45344-.1063-.59054-.2551-.79095-.829-1.31825-1.8386-1.74009-2.8908-.88586-2.1893-1.14951-4.44239-1.28661-6.84427z"/><path d="m13.0544 5.89667c-.0949 1.34973-.2742 3.98542-.2742 5.99403 0 1.658-.4218 6.5043 3.2693 7.0144s5.0093-2.0087 5.0832-2.8376c.0738-.829.9913-6.22792-.6012-8.91675-1.4553-2.4444-3.2903-3.9004-5.4417-3.82601-1.603.06377-1.9194.9565-2.0354 2.57193z"/><path d="m31.3299 20.106c-2.6365.0212-4.5453-.5527-6.3909-1.456-1.2022-.5845-1.8034-1.6473-1.9299-3.0927-.2637-3.0289.1687-5.94094 1.2128-8.73605.928-2.47627 2.3623-4.4743 4.4609-5.78152 1.6347-1.0202641 3.0478-.669547 4.2817.93525 1.0441 1.36036 1.7085 2.89076 2.4045 4.48493 1.487 3.40089 1.7506 7.08869 1.4026 10.78719-.1054 1.0841-.5589 1.7855-1.5291 2.1043-1.4765.4889-2.9846.7333-3.9126.7546z"/><path d="m18.8322 28.2574c-.1687 1.1903-.5906 2.4975-1.0862 3.6772-.2953.8396-.6961 1.6579-1.1601 2.4231-.3586.5952-.9702.829-1.6768.6164-.7699-.2231-1.2128-.8183-1.5819-1.4772-.6117-1.0841-.9386-2.285-1.139-3.5178-.3585-2.2319-.1793-4.113.1688-6.3236.0211-.1169.1792-.6057.2742-.6483.4956-.4463.7698-.5207 1.7295-.6801 3.4696-.2339 4.5032.9777 4.4715 5.9303z"/></g></svg>