<svg fill="none" height="28" viewBox="0 0 75 28" width="75" xmlns="http://www.w3.org/2000/svg"><g fill="#fff" stroke="#424e58" stroke-miterlimit="10" stroke-width=".716792"><path d="m54.4782 16.2479s-.3846 3.9714-1.0291 5.8823c-.6341 1.9003-2.6924 3.8859-3.7528 4.1955-1.0603.3203-1.5073-.5338-2.4741-2.4554-1.0395-2.0604-1.3202-7.1313-1.3098-7.4622.0312-1.3452.2495-1.9003 2.1622-1.9003 1.9128 0 4.1374.0747 4.9899.0747.842 0 1.6217.2349 1.4137 1.6654z"/><path d="m69.3024 14.6576c-.2287-2.007-1.9336-1.8576-2.8276-.8648-.5302.5445-.8004 1.185-.7692 1.9323.0623 1.516.1351 1.9537.239 3.4696.0312.4697.0936.9501.2287 1.3985.156.5018.5406.6085.9564.3096.2703-.2028.5302-.459.7381-.7366 1.0396-1.3345 1.1747-1.6334 1.4242-3.5123.0312-.6512.0104-1.3024.0104-1.9963z"/><path d="m61.7541 14.7538c-.5822.5658-.7277 1.4732-.842 1.9323-.2911 1.3665-.1976 1.9002-.2911 3.2347-.0936 1.3665-.1663 2.3059.395 3.3628.3431.6512.8109.822 1.4346.4911.4886-.2562.9772-.5872 1.341-1.0035 1.4138-1.5907 1.9751-3.5123 1.8816-5.6581-.0208-.5124-.1248-1.0142-.1975-1.5373-.4886-2.3059-2.339-1.9536-3.7216-.822z"/><path d="m54.0508 19.3226c.1351 1.1956.5197 2.5301.9771 3.7258.2703.854.6446 1.6867 1.0812 2.466.343.6085.9252.8541 1.6321.6619.7692-.2028 1.2162-.79 1.6008-1.4412.6342-1.0782.9876-2.2632 1.2163-3.5016.4158-2.2312.2911-4.1208 0-6.3627-.0104-.1174-.1663-.6085-.2599-.6619-.4782-.459-.738-.5444-1.684-.7366-3.4201-.3096-4.4701.8754-4.5636 5.8503z"/><path d="m45.9821 16.2479s-.4262 4.5158-1.1227 6.4161-2.9316 3.8859-4.0855 4.1955c-1.1539.3203-2.3181-.3202-2.7028-2.4554-.3846-2.1351-.1247-7.6758-.1143-7.996.0416-1.3452.2703-1.9003 2.3493-1.9003 2.0791 0 3.2019.0747 4.1271.0747.9355 0 1.7776.2349 1.5489 1.6654z"/><path d="m21.1082 16.2479s.3846 3.9714 1.0292 5.8823c.6445 1.9109 2.6924 3.8859 3.7527 4.1955 1.0604.3203 1.5074-.5338 2.4741-2.4554 1.0396-2.0604 1.3203-7.1313 1.3099-7.4622-.0312-1.3452-.2495-1.9003-2.1623-1.9003s-4.1374.0747-4.9898.0747c-.842 0-1.6217.2349-1.4138 1.6654z"/><path d="m6.29443 14.6578c.2287-2.007 1.93356-1.8575 2.82757-.8647.53016.5444.80045 1.185.76926 1.9323-.06237 1.5159-.13514 1.9536-.2391 3.4696-.03118.4697-.09355.9501-.2287 1.3985-.15593.5017-.54056.6085-.95638.3096-.27028-.2029-.53017-.4591-.73808-.7367-1.03954-1.3344-1.17468-1.6333-1.42417-3.5122-.04159-.6513-.0104-1.3025-.0104-1.9964z"/><path d="m13.8411 14.7535c.5822.5659.7277 1.4733.8421 1.9323.2911 1.3665.1975 1.9003.2911 3.2348.0935 1.3664.1663 2.3059-.3951 3.3628-.343.6512-.8108.822-1.4345.4911-.4886-.2563-.9772-.5872-1.3411-1.0036-1.4137-1.5906-1.9751-3.5122-1.88154-5.658.02079-.5125.12474-1.0142.19754-1.5373.4782-2.306 2.339-1.9537 3.7215-.8221z"/><path d="m21.5325 19.3226c-.1351 1.1956-.5198 2.5301-.9772 3.7258-.2703.854-.6445 1.6867-1.0811 2.466-.3431.6085-.9252.8541-1.6321.6619-.7693-.2028-1.2163-.79-1.6009-1.4412-.6341-1.0782-.9876-2.2632-1.2163-3.5016-.4158-2.2312-.291-4.1208 0-6.3627.0104-.1174.1664-.6085.2599-.6619.4782-.459.7381-.5444 1.6841-.7366 3.4201-.3096 4.47.8754 4.5636 5.8503z"/><path d="m29.6024 16.2479s.4262 4.5158 1.1227 6.4161 2.9315 3.8859 4.0854 4.1955c1.1539.3203 2.3182-.3202 2.7028-2.4554.3847-2.1351.1248-7.6758.1144-7.996-.0416-1.3452-.2703-1.9003-2.3494-1.9003s-3.2018.0747-4.127.0747c-.9356 0-1.7776.2349-1.5489 1.6654z"/><path d="m70.7119 13.4834c.3326-1.0142 2.5884-4.93215 2.5884-4.93215v.01068c.1976-.34163.4055-.69392.5822-.99284 0 0 .3638 1.53729.4678 2.24189.2495 1.80422.3118 3.61902-.1456 5.40182-.1559.5872-.4158 1.1744-.738 1.6868-.447.6832-1.1331.9715-1.9024.8754-2.4221-.1815-1.1643-3.3308-.8524-4.2916z"/><path d="m72.5329 11.0817c0-.1815.0104-.363 0-.5338-.052-1.4519-.2287-2.87176-.7693-4.22756-.1663-.42703-.2702-.45906-.5717-.13879-.5198.56581-1.0707 1.11027-1.5177 1.74013-1.0292 1.45188-2.5053 4.63322-2.6509 6.80032-.0312 1.1317.3327 1.4733 1.0604 1.9644 1.3618.9181 2.7236.5764 3.524-.8968.1663-.3096.3015-.6405.4158-.9715.4054-1.2063.5302-2.4554.5094-3.7364z"/><path d="m68.9442 7.56901c0-.49107.0416-.90742-.0104-1.47323-.0935-.62986-.2183-1.19567-.4574-1.84688-.3222-.80067-.9667-1.13162-1.7984-1.06757-1.2059.08541-1.8504.42703-2.8483 1.30243-1.3203 1.21702-1.9648 2.53012-2.7548 4.45173-.6757 1.54801-.7381 2.75431-.8317 4.01401-.0623 1.3558.8628 2.3166 1.5905 3.0319.998.9822 2.1415 1.6334 3.5449 1.6227.1975 0 .447-.1068.5821-.2562.7797-.8327 1.2995-1.8469 1.7153-2.9038.8732-2.1992 1.1331-4.47307 1.2682-6.87509z"/><path d="m60.4831 5.86089c.0936 1.35581.2703 4.00336.2703 6.02101 0 1.6654.4158 6.5335-3.2226 7.046-3.6488.5124-4.9378-2.0177-5.0106-2.8504s-.9772-6.25595.5926-8.95688c1.4345-2.4554 3.2433-3.91796 5.364-3.84323 1.5801.07473 1.892.96081 2.0063 2.5835z"/><path d="m43.5815 20.9349c2.8692.0213 4.9483-.5552 6.9546-1.4626 1.3098-.5872 1.9647-1.6547 2.0999-3.1066.291-3.0426-.1767-5.9677-1.3202-8.77536-1.0084-2.48742-2.5781-4.49444-4.8651-5.80754-1.7776-1.024856-3.3162-.67256-4.6572.93946-1.1435 1.36648-1.8608 2.90377-2.6196 4.50511-1.6217 3.41623-1.9128 7.12063-1.5282 10.83573.1144 1.0889.6133 1.7935 1.6633 2.1138 1.6113.4911 3.2538.7366 4.2725.758z"/><path d="m4.28673 13.4834c-.33265-1.0142-2.58847-4.93215-2.58847-4.93215v.01068c-.19751-.34163-.40542-.69392-.58214-.99284 0 0-.363845 1.53729-.4678 2.24189-.249491 1.80422-.311864 3.61902.145537 5.40182.155931.5872.415823 1.1744.738073 1.6868.44701.6832 1.13311.9715 1.90237.8754 2.42215-.1815 1.1643-3.3308.85243-4.2916z"/><path d="m2.46556 11.0817c0-.1815-.0104-.363 0-.5338.05198-1.4519.2287-2.87176.76926-4.22756.16633-.42703.27028-.45906.57175-.13879.51978.56581 1.07074 1.11027 1.51774 1.74013 1.02915 1.45188 2.50531 4.63322 2.65085 6.80032.03118 1.1317-.33266 1.4733-1.06034 1.9644-1.36181.9181-2.72361.5764-3.52407-.8968-.16632-.3096-.30146-.6405-.41581-.9715-.40543-1.2063-.53017-2.4554-.50938-3.7364z"/><path d="m6.05481 7.56901c0-.49107-.04158-.90742.01039-1.47323.09356-.62986.21831-1.19567.45741-1.84688.32225-.80067.96677-1.13162 1.79841-1.06757 1.20588.08541 1.85038.42703 2.84838 1.30243 1.3202 1.21702 1.9647 2.53012 2.7548 4.45173.6757 1.54801.7381 2.75431.8316 4.01401.0624 1.3558-.8628 2.3166-1.5905 3.0319-.998.9822-2.1415 1.6334-3.54485 1.6227-.19751 0-.447-.1068-.58214-.2562-.77966-.8327-1.29944-1.8469-1.71525-2.9038-.87322-2.1992-1.13311-4.47307-1.26825-6.87509z"/><path d="m14.5171 5.86089c-.0936 1.35581-.2703 4.00336-.2703 6.02101 0 1.6654-.4158 6.5335 3.2226 7.046 3.6488.5124 4.9379-2.0177 5.0106-2.8504.0728-.8327.9772-6.25595-.5925-8.95688-1.4346-2.4554-3.2434-3.91796-5.3641-3.84323-1.5801.07473-1.892.96081-2.0063 2.5835z"/><path d="m31.4181 20.9349c-2.8692.0213-4.9483-.5552-6.9546-1.4626-1.3098-.5872-1.9647-1.6547-2.0999-3.1066-.291-3.0426.1768-5.9677 1.3203-8.77536 1.0083-2.48742 2.578-4.49444 4.865-5.80754 1.7777-1.024856 3.3162-.67256 4.6572.93946 1.1435 1.36648 1.8608 2.90377 2.6197 4.50511 1.6216 3.41623 1.9127 7.12063 1.5281 10.83573-.1144 1.0889-.6133 1.7935-1.6633 2.1138-1.6113.4911-3.2538.7366-4.2725.758z"/></g></svg>