<svg fill="none" height="34" viewBox="0 0 78 34" width="78" xmlns="http://www.w3.org/2000/svg"><g fill="#fff" stroke="#424e58" stroke-miterlimit="10" stroke-width=".716792"><path d="m72.8158 12.8318c.339-1.0142 2.659-4.96421 2.659-4.96421v.01068c.2013-.34162.4131-.69392.6038-1.00351 0 0 .3814 1.54796.4767 2.25255.2543 1.82549.3178 3.65109-.1483 5.44459-.1589.5978-.4237 1.185-.7627 1.6974-.4555.6832-1.1653.9715-1.9492.8754-2.4895-.1708-1.1971-3.3415-.8793-4.3129z"/><path d="m74.6901 10.4188c0-.1815.0106-.363 0-.54444-.053-1.46256-.2437-2.89309-.784-4.25957-.1695-.42703-.2754-.46973-.5826-.13879-.5403.56581-1.1017 1.12094-1.5678 1.76148-1.0594 1.46256-2.5743 4.66522-2.7226 6.85372-.0317 1.1316.339 1.4839 1.0912 1.975 1.3983.9181 2.7861.5765 3.6123-.8967.1695-.3096.3073-.6406.4238-.9822.4131-1.217.5403-2.4874.5297-3.7685z"/><path d="m71.2577 7.32331c.0424-.49108.1271-.89675.1271-1.47323-.0318-.64054-.1059-1.21702-.286-1.88959-.2437-.8327-.8793-1.2277-1.7373-1.24905-1.2395-.03202-1.9281.24554-3.0298 1.02486-1.4619 1.08892-2.2458 2.34864-3.2416 4.18485-.8369 1.48391-1.017 2.69025-1.2288 3.93935-.1907 1.3558.6568 2.402 1.3348 3.2026.9322 1.089 2.0339 1.8469 3.464 1.975.2013.0214.4661-.064.6144-.1921.8793-.7473 1.5043-1.7188 2.034-2.7437 1.1017-2.1351 1.5784-4.38765 1.9492-6.77899z"/><path d="m61.3749 4.5476c.3284 1.32378.9428 3.92863 1.2818 5.925.2754 1.6547 1.5255 6.416-2.0763 7.5583s-5.3391-1.1423-5.551-1.9536c-.2119-.8114-2.0446-6.0424-.9005-8.9889 1.0382-2.67958 2.6272-4.46241 4.7777-4.75065 1.6102-.21352 2.0869.60851 2.4683 2.20985z"/><path d="m33.8301 20.2514c-2.9662.032-5.1908-.5231-7.3837-1.4305-1.4301-.5872-2.2458-1.6441-2.5742-3.096-.6886-3.0425-.572-5.95696.2437-8.76465.7309-2.48743 2.0869-4.50512 4.2903-5.8289 1.7162-1.0355344 3.337-.683239 4.9366.91811 1.3559 1.36648 2.2882 2.89309 3.284 4.48376 2.1081 3.40553 2.8814 7.09928 2.9661 10.82508.0212 1.0889-.4025 1.7935-1.4513 2.1138-1.6102.5017-3.2734.758-4.3115.7793z"/><path d="m42.4629 19.7604c2.9344.459 5.212.2135 7.5108-.363 1.4937-.3736 2.4577-1.3131 2.9767-2.7009 1.1018-2.9145 1.409-5.8182.9852-8.71132-.3707-2.57283-1.4407-4.75066-3.4217-6.37335-1.5572-1.281077-3.2098-1.174321-5.0213.19216-1.5254 1.15297-2.6695 2.53012-3.8772 3.97133-2.5636 3.07458-3.8454 6.61888-4.4492 10.29128-.1801 1.0783.1483 1.8362 1.1335 2.2953 1.5254.7366 3.1356 1.217 4.1632 1.3985z"/><path d="m21.7033 21.8636s.4026 4.0034 1.0488 5.925c.6568 1.9109 2.7649 3.9073 3.8454 4.2275 1.0911.3203 1.5467-.5338 2.5424-2.4767 1.07-2.0711 1.356-7.1847 1.3454-7.5157-.0318-1.3558-.2542-1.9109-2.214-1.9109s-4.248.0747-5.1273.0747c-.8792 0-1.6525.2349-1.4407 1.6761z"/><path d="m6.48739 19.7175c.23305-2.0284 1.98098-1.8789 2.90261-.8754.55086.5551.8157 1.1956.7945 1.9536-.0635 1.5266-.1483 1.9643-.24364 3.4909-.03178.4698-.09534.9608-.24365 1.4092-.1589.5018-.56145.6192-.9746.3096-.28602-.2028-.54027-.459-.76273-.7366-1.05935-1.3451-1.20766-1.6547-1.4619-3.5336-.03178-.6619-.01059-1.3131-.01059-2.0177z"/><path d="m14.2416 19.8137c.5932.5658.7415 1.4839.858 1.9429.2967 1.3772.2119 1.911.2967 3.2561.0953 1.3771.1695 2.3273-.4132 3.3842-.3602.6512-.8263.8327-1.4725.491-.4979-.2668-1.0064-.5871-1.3771-1.0035-1.4513-1.6013-2.0234-3.5443-1.928-5.7008.0211-.5124.1271-1.0248.2012-1.5479.5085-2.3166 2.4153-1.9537 3.8349-.822z"/><path d="m56.1515 21.8636s-.4026 4.0034-1.0488 5.925c-.6568 1.9109-2.7649 3.9073-3.8455 4.2275-1.0911.3203-1.5466-.5338-2.5424-2.4767-1.0699-2.0711-1.356-7.1847-1.3454-7.5157.0318-1.3558.2543-1.9109 2.2141-1.9109s4.248.0747 5.1272.0747c.8793 0 1.6632.2349 1.4408 1.6761z"/><path d="m71.3624 19.7175c-.2331-2.0284-1.981-1.8789-2.9027-.8754-.5508.5551-.8156 1.1956-.7945 1.9536.0636 1.5266.1484 1.9643.2437 3.4909.0318.4698.0953.9608.2436 1.4092.1589.5018.5615.6192.9746.3096.2861-.2028.5403-.459.7628-.7366 1.0593-1.3451 1.2076-1.6547 1.4619-3.5336.0423-.6619.0106-1.3131.0106-2.0177z"/><path d="m63.6182 19.8137c-.5932.5658-.7415 1.4839-.8581 1.9429-.2966 1.3772-.2118 1.911-.2966 3.2561-.0953 1.3771-.1695 2.3273.4132 3.3842.3602.6512.8263.8327 1.4725.491.4979-.2668 1.0063-.5871 1.3771-1.0035 1.4513-1.6013 2.0234-3.5443 1.928-5.7008-.0212-.5124-.1271-1.0248-.2012-1.5479-.5085-2.3166-2.4154-1.9537-3.8349-.822z"/><path d="m47.4436 20.8172s-.4343 4.6866-1.1441 6.8324c-.7097 2.1458-3.0085 4.8894-4.195 5.5833-1.1865.7046-2.3729.4484-2.7755-1.58-.3919-2.0283-.1271-7.6864-.1165-8.0174.0424-1.3664.2754-2.007 2.4153-2.7009s3.284-.9821 4.2374-1.2917c.9428-.2989 1.8115-.3416 1.5784 1.1743z"/><path d="m29.5963 21.5218s1.1441 4.5692 2.1822 6.5762c1.0276 2.007 3.7184 4.3556 5.0002 4.8681 1.2818.5124 2.4153.0747 2.5-1.9857.0848-2.0604-1.0487-7.6117-1.1123-7.9427-.2436-1.3451-.5826-1.9322-2.7967-2.2845-2.214-.3523-3.4005-.4591-4.3857-.6192-.9852-.1602-1.8538-.0641-1.3877 1.3878z"/><path d="m5.18642 12.8318c-.33899-1.0142-2.65896-4.96421-2.65896-4.96421v.01068c-.20128-.34162-.41315-.69392-.60383-1.00351 0 0-.38137 1.54796-.47671 2.25255-.25424 1.82549-.3178 3.65109.14831 5.44459.1589.5978.42374 1.185.76273 1.6974.45552.6832 1.16528.9715 1.9492.8754 2.48947-.1708 1.19706-3.3415.87926-4.3129z"/><path d="m3.31135 10.4188c0-.1815-.01059-.363 0-.54444.05297-1.46256.24365-2.89309.78392-4.25957.16949-.42703.27543-.46973.58264-.13879.54026.56581 1.10172 1.12094 1.56783 1.76148 1.05935 1.46256 2.57421 4.66522 2.72252 6.85372.03178 1.1316-.33899 1.4839-1.09113 1.975-1.39833.9181-2.78608.5765-3.61237-.8967-.16949-.3096-.30721-.6406-.42374-.9822-.41314-1.217-.54026-2.4874-.52967-3.7685z"/><path d="m6.99847 6.87453c0-.49108-.04238-.90742.01059-1.48391.09534-.62986.22247-1.20634.46612-1.85756.32839-.80067.99578-1.14229 1.84326-1.07824 1.22886.08541 1.89626.42703 2.92376 1.31311 1.356 1.22769 2.0128 2.55147 2.8285 4.48376.6992 1.55864.7521 2.77571.8475 4.03541.0635 1.3665-.8899 2.3273-1.6314 3.0532-1.0276.9928-2.1929 1.6441-3.6442 1.6334-.2013 0-.4555-.1068-.5932-.2562-.80512-.8327-1.33479-1.8576-1.75853-2.9252-.88985-2.2098-1.15469-4.4944-1.2924-6.91777z"/><path d="m15.8886 5.68986c.0636 1.36648.2013 4.03539.4343 6.05304.2013 1.6654.339 6.5869 4.1209 6.6616 3.7819.0748 4.7988-2.6262 4.7777-3.4589-.0318-.8433.2648-6.37332-1.6632-8.88209-1.7479-2.27391-3.7713-3.52296-5.9218-3.19202-1.5996.24554-1.8114 1.17432-1.7479 2.81837z"/><path d="m55.7058 24.8845c.1695 1.2063.6038 2.5301 1.1017 3.7151.2966.8541.7098 1.6761 1.1759 2.4554.3601.5978.9746.8327 1.6949.6192.7839-.2349 1.2289-.822 1.6102-1.4946.6144-1.0996.9534-2.3059 1.1547-3.555.3708-2.2632.1801-4.1635-.1695-6.4054-.0212-.1174-.1907-.6085-.286-.6512-.4979-.4484-.7733-.5231-1.7479-.6939-3.5276-.2349-4.5658.9928-4.534 6.0104z"/><path d="m22.0601 24.8845c-.1695 1.2063-.6038 2.5301-1.1017 3.7151-.2966.8541-.7098 1.6761-1.1759 2.4554-.3602.5978-.9746.8327-1.695.6192-.7839-.2349-1.2288-.822-1.6102-1.4946-.6144-1.0996-.9534-2.3059-1.1547-3.555-.3707-2.2632-.18-4.1635.1695-6.4054.0212-.1174.1907-.6085.2861-.6512.4979-.4484.7733-.5231 1.7479-.6939 3.5276-.2349 4.5764.9928 4.534 6.0104z"/></g></svg>