<svg fill="none" height="32" viewBox="0 0 32 32" width="32" xmlns="http://www.w3.org/2000/svg"><path clip-rule="evenodd" d="m11.7071 10.2929c-.3905-.39053-1.0237-.39053-1.4142 0-.39053.3905-.39053 1.0237 0 1.4142l4.2427 4.2427-4.2426 4.2426c-.39048.3905-.39048 1.0237 0 1.4142.3906.3905 1.0237.3905 1.4143 0l4.2425-4.2426 4.2426 4.2426c.3905.3905 1.0237.3905 1.4142 0s.3905-1.0237 0-1.4142l-4.2426-4.2426 4.2428-4.2427c.3905-.3905.3905-1.0237 0-1.4142-.3906-.39052-1.0237-.39052-1.4143 0l-4.2427 4.2427z" fill="#424e58" fill-rule="evenodd"/></svg>