<svg fill="none" height="24" viewBox="0 0 480 24" width="480" xmlns="http://www.w3.org/2000/svg"><path d="m0 1.94455c21.8178 0 21.8178 19.55555 43.6356 19.55555 21.8177 0 21.8177-19.55555 43.6355-19.55555 21.8179 0 21.8179 19.55555 43.6359 19.55555 21.817 0 21.817-19.55555 43.635-19.55555s21.818 19.55555 43.636 19.55555 21.818-19.55555 43.635-19.55555c21.818 0 21.818 19.55555 43.636 19.55555s21.818-19.55555 43.635-19.55555c21.818 0 21.818 19.55555 43.636 19.55555s21.818-19.55555 43.64-19.55555c21.818 0 21.818 19.55555 43.64 19.55555" stroke="#eb5e5b" stroke-miterlimit="10" stroke-width="3.55556"/></svg>