<svg fill="none" height="49" viewBox="0 0 117 49" width="117" xmlns="http://www.w3.org/2000/svg" xmlns:xlink="http://www.w3.org/1999/xlink"><linearGradient id="a" gradientUnits="userSpaceOnUse" x1="62.4012" x2="70.4594" y1="-.015647" y2="36.1766"><stop offset="0" stop-color="#ddb65c"/><stop offset="1" stop-color="#7b6241"/></linearGradient><mask id="b" fill="#000" height="49" maskUnits="userSpaceOnUse" width="117" x="-.5" y="0"><path d="m-.5 0h117v49h-117z" fill="#fff"/><path d="m13.8432 2.00154-2.5355 12.06926h2.637l1.0649-4.98657h5.1557l.4395-2.06226h-5.1726l.5916-2.78913h5.9164l.4902-2.2313z" fill="#000"/><path d="m25.0297 7.46146.71-3.39766h2.5187c.2591 0 .5071.0169.7437.05071.2367.03381.4452.10142.6255.20285.1803.10142.3211.25355.4226.4564.1127.19158.169.45077.169.77758 0 .33807-.0789.63107-.2367.87899-.1465.23666-.3493.43387-.6085.59164-.2479.1465-.5353.25919-.8621.33807-.3268.06762-.6705.10142-1.0311.10142zm-1.5213-5.45992-2.5187 12.06926h2.637l.9973-4.71611h2.5018c.2592 0 .4959.02254.71.06762.2141.0338.3944.10705.5409.21974.1578.1127.2761.26483.355.45645.0901.1803.1352.4169.1352.7099 0 .4057-.0225.817-.0676 1.234-.0451.4057-.0676.8114-.0676 1.2171 0 .1352.0112.2704.0338.4057.0225.1239.0507.2591.0845.4056h2.5863c-.0676-.1803-.1127-.3887-.1353-.6254-.0225-.2479-.0338-.5071-.0338-.7776 0-.3718.0113-.7437.0338-1.1156.0339-.3832.0508-.71.0508-.9804 0-.4846-.0846-.91848-.2536-1.30163-.169-.39442-.5015-.67052-.9973-.82829v-.0338c.4057-.05635.7775-.18031 1.1156-.37189.3381-.19157.6311-.42823.879-.70996.2479-.29299.4395-.62544.5747-.99732.1353-.37188.2029-.76067.2029-1.16636 0-.586-.0845-1.08185-.2536-1.48754-.169-.40569-.4113-.7325-.7268-.98042-.3156-.25919-.6987-.4395-1.1495-.54092-.4395-.11269-.9297-.1634-1.4706-.15213z" fill="#000"/><path d="m38.7333 2.00154-7.1165 12.06926h2.7891l1.5214-2.6877h4.5133l.3888 2.6877h2.637l-2.0116-12.06926zm-1.758 7.40386 2.6032-4.80068h.0338l.5916 4.80068z" fill="#000"/><path d="m46.6201 2.00154-2.5356 12.06926h2.5018l1.8087-9.60131h.0338l1.1664 9.60131h2.0284l5.105-9.60131h.0338l-2.1975 9.60131h2.4849l2.5524-12.06926h-3.7019l-4.6486 8.73926h-.0338l-.9297-8.73926z" fill="#000"/><path d="m10.6165 17.9662-7.1165 12.0694h2.78913l1.52134-2.6878h4.51333l.3888 2.6878h2.637l-2.0116-12.0694zm-1.758 7.4039 2.6032-4.8007h.0338l.5916 4.8007z" fill="#000"/><path d="m27.0665 30.0356 5.6628-12.0694h-2.6539l-3.685 8.8069h-.0338l-.3043-8.8069h-2.5356l-3.8202 8.8407h-.0338l-.1691-8.8407h-2.6539l.8283 12.0694h2.6708l3.7527-8.621h.0338l.3042 8.621z" fill="#000"/><path d="m36.6497 17.9662-7.1165 12.0694h2.7891l1.5213-2.6878h4.5134l.3887 2.6878h2.637l-2.0115-12.0694zm-1.758 7.4039 2.6032-4.8007h.0338l.5916 4.8007z" fill="#000"/><path d="m46.0409 23.4262.71-3.3977h2.5186c.2592 0 .5072.0169.7438.0507.2367.0338.4451.1014.6255.2029.1803.1014.3211.2535.4225.4564.1127.1915.1691.4507.1691.7775 0 .3381-.0789.6311-.2367.879-.1465.2367-.3493.4339-.6085.5917-.2479.1465-.5353.2592-.8621.338-.3268.0677-.6705.1015-1.0311.1015zm-1.5213-5.46-2.5187 12.0694h2.637l.9973-4.7162h2.5018c.2592 0 .4958.0225.71.0676.2141.0338.3944.1071.5409.2198.1577.1126.2761.2648.355.4564.0901.1803.1352.4169.1352.7099 0 .4057-.0226.817-.0676 1.234-.0451.4057-.0676.8114-.0676 1.2171 0 .1352.0112.2704.0338.4057.0225.1239.0507.2592.0845.4057h2.5863c-.0677-.1804-.1127-.3888-.1353-.6255-.0225-.2479-.0338-.5071-.0338-.7776 0-.3718.0113-.7437.0338-1.1156.0338-.3832.0507-.71.0507-.9804 0-.4846-.0845-.9185-.2535-1.3016-.1691-.3944-.5015-.6705-.9973-.8283v-.0338c.4056-.0564.7775-.1803 1.1156-.3719s.6311-.4282.879-.71c.2479-.293.4395-.6254.5747-.9973.1353-.3719.2029-.7607.2029-1.1664 0-.586-.0845-1.0818-.2536-1.4875-.169-.4057-.4113-.7325-.7268-.9804-.3156-.2592-.6987-.4395-1.1495-.5409-.4395-.1127-.9297-.1634-1.4706-.1522z" fill="#000"/><path d="m56.9723 27.8042 1.6227-7.6067h1.9947c.4733 0 .8733.0733 1.2001.2198.3381.1352.6142.3324.8283.5916s.3663.5691.4564.9297c.1015.3494.1522.7438.1522 1.1833 0 .6423-.0958 1.2452-.2874 1.8087-.1803.5635-.4508 1.0593-.8114 1.4875-.3493.4283-.7888.7663-1.3185 1.0143-.5184.2479-1.1156.3718-1.7918.3718zm-.5748-9.838-2.5355 12.0694h5.0373c1.1607 0 2.175-.186 3.0427-.5579.879-.3719 1.6058-.8846 2.1806-1.5382.586-.6649 1.0255-1.4481 1.3185-2.3497.293-.9015.4395-1.8763.4395-2.9243 0-1.4988-.4283-2.6539-1.2847-3.4653-.8565-.8226-2.1355-1.234-3.8372-1.234z" fill="#000"/><path d="m68.7071 26.0293h-2.5187c0 1.4763.4113 2.5582 1.234 3.2456.8339.6874 2.096 1.0311 3.7864 1.0311.5748 0 1.1551-.0732 1.7411-.2197.586-.1353 1.11-.3607 1.5721-.6762.4733-.3155.8564-.7269 1.1494-1.234.3043-.5071.4564-1.1213.4564-1.8425 0-.5409-.0788-.9973-.2366-1.3692s-.3832-.6874-.6762-.9466c-.2817-.2592-.6198-.4677-1.0142-.6254-.3944-.1691-.8283-.3156-1.3016-.4395-.2028-.0451-.4677-.1015-.7945-.1691-.3268-.0789-.648-.1803-.9635-.3042-.3043-.1353-.5691-.2987-.7945-.4903-.2141-.2028-.3211-.4507-.3211-.7437 0-.2818.0619-.5184.1859-.71s.2874-.3437.4902-.4564c.2029-.124.4282-.2085.6762-.2535.2591-.0564.5127-.0846.7606-.0846.3043 0 .5917.0338.8621.1015.2705.0563.5015.1577.6931.3042.2028.1465.355.3381.4564.5748.1127.2253.1634.5071.1521.8451h2.5187c0-.6986-.124-1.2903-.3719-1.7749-.2366-.4958-.5635-.9015-.9804-1.217-.4057-.3156-.8847-.5409-1.4368-.6762-.541-.1465-1.1213-.2197-1.7411-.2197-.586 0-1.1664.0732-1.7411.2197-.5635.1353-1.0706.355-1.5214.6593-.4507.293-.817.6761-1.0987 1.1494s-.4226 1.0481-.4226 1.7242c0 .5184.0845.9579.2536 1.3185.1803.3606.4113.6649.693.9128.293.2479.6198.4508.9804.6086.3606.1577.7325.293 1.1157.4056.3719.1127.7381.2198 1.0987.3212.3719.1014.6987.2198.9804.355.293.1352.5297.2986.71.4902.1803.1803.2705.417.2705.71 0 .3042-.0733.5634-.2198.7775-.1352.2142-.3155.3888-.5409.5241-.2141.1352-.4564.2366-.7269.3042-.2704.0676-.5409.1015-.8114.1015-.3831 0-.7381-.0339-1.0649-.1015-.3268-.0789-.6085-.2028-.8452-.3719-.2366-.169-.4169-.3944-.5409-.6761-.124-.293-.1747-.6536-.1521-1.0819z" fill="#000"/><path d="m12.1022 38.4273h2.282c.0112-.3268.0676-.6367.169-.9297.1127-.293.2592-.5522.4395-.7775.1916-.2254.417-.4001.6762-.5241.2704-.1352.5691-.2028.8959-.2028.5071 0 .9353.1296 1.2846.3888.3607.2479.541.6705.541 1.2678 0 .3944-.1015.7381-.3043 1.0311s-.4564.5578-.7607.7945c-.293.2254-.6141.4282-.9635.6085-.3381.1803-.6536.355-.9466.524-.5747.3043-1.1382.6198-1.6904.9467-.5522.3268-1.048.6986-1.4875 1.1156-.4395.4057-.8001.879-1.0819 1.4199-.2817.5409-.4451 1.1776-.4902 1.9101h8.7562l.4733-2.0622h-5.8318c.3043-.3268.6818-.6311 1.1326-.9128.4507-.2817.924-.5635 1.4199-.8452.4958-.293.9917-.5916 1.4875-.8959.5071-.3043.9579-.6367 1.3523-.9973.3944-.3719.7156-.7832.9635-1.234.2479-.462.3719-.9804.3719-1.5552 0-.6085-.107-1.1381-.3212-1.5889-.2028-.4508-.4845-.8227-.8452-1.1157-.3606-.293-.7775-.5071-1.2508-.6423-.4733-.1465-.9805-.2198-1.5214-.2198-1.3635 0-2.4679.3945-3.3131 1.1833-.8452.7776-1.3242 1.882-1.4368 3.3131z" fill="#000"/><path d="m22.7459 42.18c0-.2817.0169-.6311.0507-1.048.0451-.417.1127-.8565.2028-1.3185.0902-.4621.2085-.9241.355-1.3862.1578-.4733.3494-.8959.5747-1.2677.2254-.3719.4902-.6706.7945-.8959.3043-.2367.6536-.355 1.0481-.355.3042 0 .5634.0563.7775.169.2254.1127.4057.2648.5409.4564.1465.1916.248.417.3043.6762.0676.2592.1014.5353.1014.8283 0 .2704-.0225.6141-.0676 1.0311-.0338.4057-.1014.8395-.2028 1.3016-.0902.462-.2141.9241-.3719 1.3861s-.3493.879-.5747 1.2509-.4959.6761-.8114.9128c-.3043.2254-.6593.3381-1.065.3381-.3268 0-.5972-.0564-.8113-.1691-.2142-.1127-.3832-.2592-.5072-.4395-.1239-.1916-.2141-.4113-.2704-.6592-.0451-.2592-.0676-.5297-.0676-.8114zm-2.3835-.4902c0 .6085.0676 1.1889.2029 1.7411.1352.5409.3493 1.0198.6423 1.4368s.6762.7494 1.1495.9973c.4846.2367 1.0649.355 1.7411.355.6649 0 1.2678-.1127 1.8087-.3381s1.0255-.5296 1.4537-.9128c.4282-.3831.8001-.8339 1.1157-1.3523.3268-.5184.5916-1.0649.7944-1.6397.2142-.5747.3719-1.1663.4733-1.7749.1015-.6198.1522-1.217.1522-1.7918 0-.6648-.0845-1.2677-.2536-1.8087-.1577-.5522-.4-1.0255-.7268-1.4199s-.7382-.6987-1.234-.9128c-.4959-.2254-1.0762-.3381-1.7411-.3381-.6311 0-1.2114.1127-1.7411.3381-.5184.2254-.9861.5353-1.403.9297-.4057.3832-.7663.8339-1.0819 1.3523-.3042.5184-.5578 1.065-.7606 1.6397-.1916.5747-.3381 1.1607-.4395 1.758-.1015.5973-.1522 1.1776-.1522 1.7411z" fill="#000"/><path d="m30.2117 38.4273h2.282c.0113-.3268.0676-.6367.169-.9297.1127-.293.2592-.5522.4395-.7775.1916-.2254.417-.4001.6762-.5241.2704-.1352.5691-.2028.8959-.2028.5071 0 .9353.1296 1.2847.3888.3606.2479.5409.6705.5409 1.2678 0 .3944-.1014.7381-.3043 1.0311-.2028.293-.4564.5578-.7607.7945-.293.2254-.6141.4282-.9635.6085-.338.1803-.6536.355-.9466.524-.5747.3043-1.1382.6198-1.6904.9467-.5522.3268-1.048.6986-1.4875 1.1156-.4395.4057-.8001.879-1.0818 1.4199-.2818.5409-.4452 1.1776-.4903 1.9101h8.7562l.4733-2.0622h-5.8318c.3043-.3268.6818-.6311 1.1326-.9128.4507-.2817.924-.5635 1.4199-.8452.4958-.293.9917-.5916 1.4875-.8959.5071-.3043.9579-.6367 1.3523-.9973.3944-.3719.7156-.7832.9635-1.234.248-.462.3719-.9804.3719-1.5552 0-.6085-.107-1.1381-.3211-1.5889-.2029-.4508-.4846-.8227-.8452-1.1157-.3607-.293-.7776-.5071-1.2509-.6423-.4733-.1465-.9804-.2198-1.5214-.2198-1.3635 0-2.4679.3945-3.3131 1.1833-.8452.7776-1.3241 1.882-1.4368 3.3131z" fill="#000"/><path d="m40.8554 42.18c0-.2817.0169-.6311.0507-1.048.0451-.417.1127-.8565.2028-1.3185.0902-.4621.2085-.9241.355-1.3862.1578-.4733.3494-.8959.5748-1.2677.2253-.3719.4902-.6706.7944-.8959.3043-.2367.6536-.355 1.0481-.355.3042 0 .5634.0563.7775.169.2254.1127.4057.2648.541.4564.1465.1916.2479.417.3042.6762.0676.2592.1015.5353.1015.8283 0 .2704-.0226.6141-.0677 1.0311-.0338.4057-.1014.8395-.2028 1.3016-.0902.462-.2141.9241-.3719 1.3861s-.3493.879-.5747 1.2509-.4959.6761-.8114.9128c-.3043.2254-.6593.3381-1.0649.3381-.3268 0-.5973-.0564-.8114-.1691s-.3832-.2592-.5071-.4395c-.124-.1916-.2141-.4113-.2705-.6592-.0451-.2592-.0676-.5297-.0676-.8114zm-2.3834-.4902c0 .6085.0676 1.1889.2028 1.7411.1352.5409.3493 1.0198.6423 1.4368s.6762.7494 1.1495.9973c.4846.2367 1.0649.355 1.7411.355.6649 0 1.2678-.1127 1.8087-.3381s1.0255-.5296 1.4537-.9128c.4283-.3831.8001-.8339 1.1157-1.3523.3268-.5184.5916-1.0649.7945-1.6397.2141-.5747.3718-1.1663.4733-1.7749.1014-.6198.1521-1.217.1521-1.7918 0-.6648-.0845-1.2677-.2536-1.8087-.1577-.5522-.4-1.0255-.7268-1.4199s-.7382-.6987-1.234-.9128c-.4958-.2254-1.0762-.3381-1.7411-.3381-.6311 0-1.2114.1127-1.7411.3381-.5184.2254-.986.5353-1.403.9297-.4057.3832-.7663.8339-1.0818 1.3523-.3043.5184-.5579 1.065-.7607 1.6397-.1916.5747-.3381 1.1607-.4395 1.758s-.1521 1.1776-.1521 1.7411z" fill="#000"/><path d="m53.1442 33.9309.8959 12.0693h1.2678l5.274-10.9705h.0338l.7944 10.9705h1.2509l5.8149-12.0693h-1.2001l-4.9359 10.6325h-.0339l-.8282-10.6325h-1.3862l-5.1387 10.7339h-.0338l-.6255-10.7339z" fill="#000"/><path d="m69.5785 33.9309-2.5525 12.0693h1.1495l2.5525-12.0693z" fill="#000"/><path d="m72.9538 33.9309-2.6031 12.0693h1.0987l2.2482-10.7846h.0338l4.8176 10.7846h1.2678l2.637-12.0693h-1.1157l-2.2313 10.7847h-.0338l-4.8176-10.7847z" fill="#000"/><path d="m84.5178 33.9309-2.6032 12.0693h1.0987l2.2482-10.7846h.0338l4.8176 10.7846h1.2678l2.637-12.0693h-1.1156l-2.2314 10.7847h-.0338l-4.8175-10.7847z" fill="#000"/><path d="m96.1324 33.9309-2.5694 12.0693h8.249l.22-.9804h-7.0998l1.0142-4.7668h6.4576l.219-.9805h-6.4737l.9297-4.3611h6.931l.219-.9805z" fill="#000"/><path d="m105.433 39.6613 1.014-4.7499h4.142c.744 0 1.273.1746 1.589.524.315.3493.473.879.473 1.5889 0 .4508-.084.8396-.253 1.1664-.158.3268-.384.6029-.677.8283-.281.2141-.614.3775-.997.4902-.372.1014-.778.1521-1.217.1521zm.068-5.7304-2.57 12.0693h1.15l1.132-5.3585h4.26c.62 0 1.048.186 1.285.5579.248.3606.372.8283.372 1.403 0 .3606-.028.7212-.085 1.0818-.056.3606-.084.7213-.084 1.0819v.2366c.011.124.022.2592.034.4057.011.1352.028.2648.05.3888.023.1127.051.1803.085.2028h1.183c-.09-.1239-.146-.293-.169-.5071s-.034-.3944-.034-.5409c0-.4169.028-.8339.085-1.2509.056-.4169.084-.8395.084-1.2678 0-.5521-.112-1.0198-.338-1.403-.225-.3831-.625-.6367-1.2-.7606v-.0338c.439-.0339.845-.1409 1.217-.3212.383-.1803.71-.417.98-.71.271-.293.479-.6311.626-1.0142.158-.3944.237-.8114.237-1.2509 0-.9917-.271-1.7411-.812-2.2482s-1.324-.7607-2.349-.7607z" fill="#000"/><path d="m69.7587 2.00155-3.0239 12.06935h-8.4214l.4732-2.2313h5.9099l.7423-2.95821h-4.8171l.4996-2.06226h4.7871l.6683-2.58628h-6.209l.4695-2.2313z" fill="#000"/></mask><g fill="url(#a)"><path d="m13.8432 2.00154-2.5355 12.06926h2.637l1.0649-4.98657h5.1557l.4395-2.06226h-5.1726l.5916-2.78913h5.9164l.4902-2.2313z"/><path d="m25.0297 7.46146.71-3.39766h2.5187c.2591 0 .5071.0169.7437.05071.2367.03381.4452.10142.6255.20285.1803.10142.3211.25355.4226.4564.1127.19158.169.45077.169.77758 0 .33807-.0789.63107-.2367.87899-.1465.23666-.3493.43387-.6085.59164-.2479.1465-.5353.25919-.8621.33807-.3268.06762-.6705.10142-1.0311.10142zm-1.5213-5.45992-2.5187 12.06926h2.637l.9973-4.71611h2.5018c.2592 0 .4959.02254.71.06762.2141.0338.3944.10705.5409.21974.1578.1127.2761.26483.355.45645.0901.1803.1352.4169.1352.7099 0 .4057-.0225.817-.0676 1.234-.0451.4057-.0676.8114-.0676 1.2171 0 .1352.0112.2704.0338.4057.0225.1239.0507.2591.0845.4056h2.5863c-.0676-.1803-.1127-.3887-.1353-.6254-.0225-.2479-.0338-.5071-.0338-.7776 0-.3718.0113-.7437.0338-1.1156.0339-.3832.0508-.71.0508-.9804 0-.4846-.0846-.91848-.2536-1.30163-.169-.39442-.5015-.67052-.9973-.82829v-.0338c.4057-.05635.7775-.18031 1.1156-.37189.3381-.19157.6311-.42823.879-.70996.2479-.29299.4395-.62544.5747-.99732.1353-.37188.2029-.76067.2029-1.16636 0-.586-.0845-1.08185-.2536-1.48754-.169-.40569-.4113-.7325-.7268-.98042-.3156-.25919-.6987-.4395-1.1495-.54092-.4395-.11269-.9297-.1634-1.4706-.15213z"/><path d="m38.7333 2.00154-7.1165 12.06926h2.7891l1.5214-2.6877h4.5133l.3888 2.6877h2.637l-2.0116-12.06926zm-1.758 7.40386 2.6032-4.80068h.0338l.5916 4.80068z"/><path d="m46.6201 2.00154-2.5356 12.06926h2.5018l1.8087-9.60131h.0338l1.1664 9.60131h2.0284l5.105-9.60131h.0338l-2.1975 9.60131h2.4849l2.5524-12.06926h-3.7019l-4.6486 8.73926h-.0338l-.9297-8.73926z"/><path d="m10.6165 17.9662-7.1165 12.0694h2.78913l1.52134-2.6878h4.51333l.3888 2.6878h2.637l-2.0116-12.0694zm-1.758 7.4039 2.6032-4.8007h.0338l.5916 4.8007z"/><path d="m27.0665 30.0356 5.6628-12.0694h-2.6539l-3.685 8.8069h-.0338l-.3043-8.8069h-2.5356l-3.8202 8.8407h-.0338l-.1691-8.8407h-2.6539l.8283 12.0694h2.6708l3.7527-8.621h.0338l.3042 8.621z"/><path d="m36.6497 17.9662-7.1165 12.0694h2.7891l1.5213-2.6878h4.5134l.3887 2.6878h2.637l-2.0115-12.0694zm-1.758 7.4039 2.6032-4.8007h.0338l.5916 4.8007z"/><path d="m46.0409 23.4262.71-3.3977h2.5186c.2592 0 .5072.0169.7438.0507.2367.0338.4451.1014.6255.2029.1803.1014.3211.2535.4225.4564.1127.1915.1691.4507.1691.7775 0 .3381-.0789.6311-.2367.879-.1465.2367-.3493.4339-.6085.5917-.2479.1465-.5353.2592-.8621.338-.3268.0677-.6705.1015-1.0311.1015zm-1.5213-5.46-2.5187 12.0694h2.637l.9973-4.7162h2.5018c.2592 0 .4958.0225.71.0676.2141.0338.3944.1071.5409.2198.1577.1126.2761.2648.355.4564.0901.1803.1352.4169.1352.7099 0 .4057-.0226.817-.0676 1.234-.0451.4057-.0676.8114-.0676 1.2171 0 .1352.0112.2704.0338.4057.0225.1239.0507.2592.0845.4057h2.5863c-.0677-.1804-.1127-.3888-.1353-.6255-.0225-.2479-.0338-.5071-.0338-.7776 0-.3718.0113-.7437.0338-1.1156.0338-.3832.0507-.71.0507-.9804 0-.4846-.0845-.9185-.2535-1.3016-.1691-.3944-.5015-.6705-.9973-.8283v-.0338c.4056-.0564.7775-.1803 1.1156-.3719s.6311-.4282.879-.71c.2479-.293.4395-.6254.5747-.9973.1353-.3719.2029-.7607.2029-1.1664 0-.586-.0845-1.0818-.2536-1.4875-.169-.4057-.4113-.7325-.7268-.9804-.3156-.2592-.6987-.4395-1.1495-.5409-.4395-.1127-.9297-.1634-1.4706-.1522z"/><path d="m56.9723 27.8042 1.6227-7.6067h1.9947c.4733 0 .8733.0733 1.2001.2198.3381.1352.6142.3324.8283.5916s.3663.5691.4564.9297c.1015.3494.1522.7438.1522 1.1833 0 .6423-.0958 1.2452-.2874 1.8087-.1803.5635-.4508 1.0593-.8114 1.4875-.3493.4283-.7888.7663-1.3185 1.0143-.5184.2479-1.1156.3718-1.7918.3718zm-.5748-9.838-2.5355 12.0694h5.0373c1.1607 0 2.175-.186 3.0427-.5579.879-.3719 1.6058-.8846 2.1806-1.5382.586-.6649 1.0255-1.4481 1.3185-2.3497.293-.9015.4395-1.8763.4395-2.9243 0-1.4988-.4283-2.6539-1.2847-3.4653-.8565-.8226-2.1355-1.234-3.8372-1.234z"/><path d="m68.7071 26.0293h-2.5187c0 1.4763.4113 2.5582 1.234 3.2456.8339.6874 2.096 1.0311 3.7864 1.0311.5748 0 1.1551-.0732 1.7411-.2197.586-.1353 1.11-.3607 1.5721-.6762.4733-.3155.8564-.7269 1.1494-1.234.3043-.5071.4564-1.1213.4564-1.8425 0-.5409-.0788-.9973-.2366-1.3692s-.3832-.6874-.6762-.9466c-.2817-.2592-.6198-.4677-1.0142-.6254-.3944-.1691-.8283-.3156-1.3016-.4395-.2028-.0451-.4677-.1015-.7945-.1691-.3268-.0789-.648-.1803-.9635-.3042-.3043-.1353-.5691-.2987-.7945-.4903-.2141-.2028-.3211-.4507-.3211-.7437 0-.2818.0619-.5184.1859-.71s.2874-.3437.4902-.4564c.2029-.124.4282-.2085.6762-.2535.2591-.0564.5127-.0846.7606-.0846.3043 0 .5917.0338.8621.1015.2705.0563.5015.1577.6931.3042.2028.1465.355.3381.4564.5748.1127.2253.1634.5071.1521.8451h2.5187c0-.6986-.124-1.2903-.3719-1.7749-.2366-.4958-.5635-.9015-.9804-1.217-.4057-.3156-.8847-.5409-1.4368-.6762-.541-.1465-1.1213-.2197-1.7411-.2197-.586 0-1.1664.0732-1.7411.2197-.5635.1353-1.0706.355-1.5214.6593-.4507.293-.817.6761-1.0987 1.1494s-.4226 1.0481-.4226 1.7242c0 .5184.0845.9579.2536 1.3185.1803.3606.4113.6649.693.9128.293.2479.6198.4508.9804.6086.3606.1577.7325.293 1.1157.4056.3719.1127.7381.2198 1.0987.3212.3719.1014.6987.2198.9804.355.293.1352.5297.2986.71.4902.1803.1803.2705.417.2705.71 0 .3042-.0733.5634-.2198.7775-.1352.2142-.3155.3888-.5409.5241-.2141.1352-.4564.2366-.7269.3042-.2704.0676-.5409.1015-.8114.1015-.3831 0-.7381-.0339-1.0649-.1015-.3268-.0789-.6085-.2028-.8452-.3719-.2366-.169-.4169-.3944-.5409-.6761-.124-.293-.1747-.6536-.1521-1.0819z"/><path d="m12.1022 38.4273h2.282c.0112-.3268.0676-.6367.169-.9297.1127-.293.2592-.5522.4395-.7775.1916-.2254.417-.4001.6762-.5241.2704-.1352.5691-.2028.8959-.2028.5071 0 .9353.1296 1.2846.3888.3607.2479.541.6705.541 1.2678 0 .3944-.1015.7381-.3043 1.0311s-.4564.5578-.7607.7945c-.293.2254-.6141.4282-.9635.6085-.3381.1803-.6536.355-.9466.524-.5747.3043-1.1382.6198-1.6904.9467-.5522.3268-1.048.6986-1.4875 1.1156-.4395.4057-.8001.879-1.0819 1.4199-.2817.5409-.4451 1.1776-.4902 1.9101h8.7562l.4733-2.0622h-5.8318c.3043-.3268.6818-.6311 1.1326-.9128.4507-.2817.924-.5635 1.4199-.8452.4958-.293.9917-.5916 1.4875-.8959.5071-.3043.9579-.6367 1.3523-.9973.3944-.3719.7156-.7832.9635-1.234.2479-.462.3719-.9804.3719-1.5552 0-.6085-.107-1.1381-.3212-1.5889-.2028-.4508-.4845-.8227-.8452-1.1157-.3606-.293-.7775-.5071-1.2508-.6423-.4733-.1465-.9805-.2198-1.5214-.2198-1.3635 0-2.4679.3945-3.3131 1.1833-.8452.7776-1.3242 1.882-1.4368 3.3131z"/><path d="m22.7459 42.18c0-.2817.0169-.6311.0507-1.048.0451-.417.1127-.8565.2028-1.3185.0902-.4621.2085-.9241.355-1.3862.1578-.4733.3494-.8959.5747-1.2677.2254-.3719.4902-.6706.7945-.8959.3043-.2367.6536-.355 1.0481-.355.3042 0 .5634.0563.7775.169.2254.1127.4057.2648.5409.4564.1465.1916.248.417.3043.6762.0676.2592.1014.5353.1014.8283 0 .2704-.0225.6141-.0676 1.0311-.0338.4057-.1014.8395-.2028 1.3016-.0902.462-.2141.9241-.3719 1.3861s-.3493.879-.5747 1.2509-.4959.6761-.8114.9128c-.3043.2254-.6593.3381-1.065.3381-.3268 0-.5972-.0564-.8113-.1691-.2142-.1127-.3832-.2592-.5072-.4395-.1239-.1916-.2141-.4113-.2704-.6592-.0451-.2592-.0676-.5297-.0676-.8114zm-2.3835-.4902c0 .6085.0676 1.1889.2029 1.7411.1352.5409.3493 1.0198.6423 1.4368s.6762.7494 1.1495.9973c.4846.2367 1.0649.355 1.7411.355.6649 0 1.2678-.1127 1.8087-.3381s1.0255-.5296 1.4537-.9128c.4282-.3831.8001-.8339 1.1157-1.3523.3268-.5184.5916-1.0649.7944-1.6397.2142-.5747.3719-1.1663.4733-1.7749.1015-.6198.1522-1.217.1522-1.7918 0-.6648-.0845-1.2677-.2536-1.8087-.1577-.5522-.4-1.0255-.7268-1.4199s-.7382-.6987-1.234-.9128c-.4959-.2254-1.0762-.3381-1.7411-.3381-.6311 0-1.2114.1127-1.7411.3381-.5184.2254-.9861.5353-1.403.9297-.4057.3832-.7663.8339-1.0819 1.3523-.3042.5184-.5578 1.065-.7606 1.6397-.1916.5747-.3381 1.1607-.4395 1.758-.1015.5973-.1522 1.1776-.1522 1.7411z"/><path d="m30.2117 38.4273h2.282c.0113-.3268.0676-.6367.169-.9297.1127-.293.2592-.5522.4395-.7775.1916-.2254.417-.4001.6762-.5241.2704-.1352.5691-.2028.8959-.2028.5071 0 .9353.1296 1.2847.3888.3606.2479.5409.6705.5409 1.2678 0 .3944-.1014.7381-.3043 1.0311-.2028.293-.4564.5578-.7607.7945-.293.2254-.6141.4282-.9635.6085-.338.1803-.6536.355-.9466.524-.5747.3043-1.1382.6198-1.6904.9467-.5522.3268-1.048.6986-1.4875 1.1156-.4395.4057-.8001.879-1.0818 1.4199-.2818.5409-.4452 1.1776-.4903 1.9101h8.7562l.4733-2.0622h-5.8318c.3043-.3268.6818-.6311 1.1326-.9128.4507-.2817.924-.5635 1.4199-.8452.4958-.293.9917-.5916 1.4875-.8959.5071-.3043.9579-.6367 1.3523-.9973.3944-.3719.7156-.7832.9635-1.234.248-.462.3719-.9804.3719-1.5552 0-.6085-.107-1.1381-.3211-1.5889-.2029-.4508-.4846-.8227-.8452-1.1157-.3607-.293-.7776-.5071-1.2509-.6423-.4733-.1465-.9804-.2198-1.5214-.2198-1.3635 0-2.4679.3945-3.3131 1.1833-.8452.7776-1.3241 1.882-1.4368 3.3131z"/><path d="m40.8554 42.18c0-.2817.0169-.6311.0507-1.048.0451-.417.1127-.8565.2028-1.3185.0902-.4621.2085-.9241.355-1.3862.1578-.4733.3494-.8959.5748-1.2677.2253-.3719.4902-.6706.7944-.8959.3043-.2367.6536-.355 1.0481-.355.3042 0 .5634.0563.7775.169.2254.1127.4057.2648.541.4564.1465.1916.2479.417.3042.6762.0676.2592.1015.5353.1015.8283 0 .2704-.0226.6141-.0677 1.0311-.0338.4057-.1014.8395-.2028 1.3016-.0902.462-.2141.9241-.3719 1.3861s-.3493.879-.5747 1.2509-.4959.6761-.8114.9128c-.3043.2254-.6593.3381-1.0649.3381-.3268 0-.5973-.0564-.8114-.1691s-.3832-.2592-.5071-.4395c-.124-.1916-.2141-.4113-.2705-.6592-.0451-.2592-.0676-.5297-.0676-.8114zm-2.3834-.4902c0 .6085.0676 1.1889.2028 1.7411.1352.5409.3493 1.0198.6423 1.4368s.6762.7494 1.1495.9973c.4846.2367 1.0649.355 1.7411.355.6649 0 1.2678-.1127 1.8087-.3381s1.0255-.5296 1.4537-.9128c.4283-.3831.8001-.8339 1.1157-1.3523.3268-.5184.5916-1.0649.7945-1.6397.2141-.5747.3718-1.1663.4733-1.7749.1014-.6198.1521-1.217.1521-1.7918 0-.6648-.0845-1.2677-.2536-1.8087-.1577-.5522-.4-1.0255-.7268-1.4199s-.7382-.6987-1.234-.9128c-.4958-.2254-1.0762-.3381-1.7411-.3381-.6311 0-1.2114.1127-1.7411.3381-.5184.2254-.986.5353-1.403.9297-.4057.3832-.7663.8339-1.0818 1.3523-.3043.5184-.5579 1.065-.7607 1.6397-.1916.5747-.3381 1.1607-.4395 1.758s-.1521 1.1776-.1521 1.7411z"/><path d="m53.1442 33.9309.8959 12.0693h1.2678l5.274-10.9705h.0338l.7944 10.9705h1.2509l5.8149-12.0693h-1.2001l-4.9359 10.6325h-.0339l-.8282-10.6325h-1.3862l-5.1387 10.7339h-.0338l-.6255-10.7339z"/><path d="m69.5785 33.9309-2.5525 12.0693h1.1495l2.5525-12.0693z"/><path d="m72.9538 33.9309-2.6031 12.0693h1.0987l2.2482-10.7846h.0338l4.8176 10.7846h1.2678l2.637-12.0693h-1.1157l-2.2313 10.7847h-.0338l-4.8176-10.7847z"/><path d="m84.5178 33.9309-2.6032 12.0693h1.0987l2.2482-10.7846h.0338l4.8176 10.7846h1.2678l2.637-12.0693h-1.1156l-2.2314 10.7847h-.0338l-4.8175-10.7847z"/><path d="m96.1324 33.9309-2.5694 12.0693h8.249l.22-.9804h-7.0998l1.0142-4.7668h6.4576l.219-.9805h-6.4737l.9297-4.3611h6.931l.219-.9805z"/><path d="m105.433 39.6613 1.014-4.7499h4.142c.744 0 1.273.1746 1.589.524.315.3493.473.879.473 1.5889 0 .4508-.084.8396-.253 1.1664-.158.3268-.384.6029-.677.8283-.281.2141-.614.3775-.997.4902-.372.1014-.778.1521-1.217.1521zm.068-5.7304-2.57 12.0693h1.15l1.132-5.3585h4.26c.62 0 1.048.186 1.285.5579.248.3606.372.8283.372 1.403 0 .3606-.028.7212-.085 1.0818-.056.3606-.084.7213-.084 1.0819v.2366c.011.124.022.2592.034.4057.011.1352.028.2648.05.3888.023.1127.051.1803.085.2028h1.183c-.09-.1239-.146-.293-.169-.5071s-.034-.3944-.034-.5409c0-.4169.028-.8339.085-1.2509.056-.4169.084-.8395.084-1.2678 0-.5521-.112-1.0198-.338-1.403-.225-.3831-.625-.6367-1.2-.7606v-.0338c.439-.0339.845-.1409 1.217-.3212.383-.1803.71-.417.98-.71.271-.293.479-.6311.626-1.0142.158-.3944.237-.8114.237-1.2509 0-.9917-.271-1.7411-.812-2.2482s-1.324-.7607-2.349-.7607z"/><path d="m69.7587 2.00155-3.0239 12.06935h-8.4214l.4732-2.2313h5.9099l.7423-2.95821h-4.8171l.4996-2.06226h4.7871l.6683-2.58628h-6.209l.4695-2.2313z"/></g><path d="m13.8432 2.00154-2.5355 12.06926h2.637l1.0649-4.98657h5.1557l.4395-2.06226h-5.1726l.5916-2.78913h5.9164l.4902-2.2313z" mask="url(#b)" stroke="#fff" stroke-width="4"/><path d="m25.0297 7.46146.71-3.39766h2.5187c.2591 0 .5071.0169.7437.05071.2367.03381.4452.10142.6255.20285.1803.10142.3211.25355.4226.4564.1127.19158.169.45077.169.77758 0 .33807-.0789.63107-.2367.87899-.1465.23666-.3493.43387-.6085.59164-.2479.1465-.5353.25919-.8621.33807-.3268.06762-.6705.10142-1.0311.10142zm-1.5213-5.45992-2.5187 12.06926h2.637l.9973-4.71611h2.5018c.2592 0 .4959.02254.71.06762.2141.0338.3944.10705.5409.21974.1578.1127.2761.26483.355.45645.0901.1803.1352.4169.1352.7099 0 .4057-.0225.817-.0676 1.234-.0451.4057-.0676.8114-.0676 1.2171 0 .1352.0112.2704.0338.4057.0225.1239.0507.2591.0845.4056h2.5863c-.0676-.1803-.1127-.3887-.1353-.6254-.0225-.2479-.0338-.5071-.0338-.7776 0-.3718.0113-.7437.0338-1.1156.0339-.3832.0508-.71.0508-.9804 0-.4846-.0846-.91848-.2536-1.30163-.169-.39442-.5015-.67052-.9973-.82829v-.0338c.4057-.05635.7775-.18031 1.1156-.37189.3381-.19157.6311-.42823.879-.70996.2479-.29299.4395-.62544.5747-.99732.1353-.37188.2029-.76067.2029-1.16636 0-.586-.0845-1.08185-.2536-1.48754-.169-.40569-.4113-.7325-.7268-.98042-.3156-.25919-.6987-.4395-1.1495-.54092-.4395-.11269-.9297-.1634-1.4706-.15213z" mask="url(#b)" stroke="#fff" stroke-width="4"/><path d="m38.7333 2.00154-7.1165 12.06926h2.7891l1.5214-2.6877h4.5133l.3888 2.6877h2.637l-2.0116-12.06926zm-1.758 7.40386 2.6032-4.80068h.0338l.5916 4.80068z" mask="url(#b)" stroke="#fff" stroke-width="4"/><path d="m46.6201 2.00154-2.5356 12.06926h2.5018l1.8087-9.60131h.0338l1.1664 9.60131h2.0284l5.105-9.60131h.0338l-2.1975 9.60131h2.4849l2.5524-12.06926h-3.7019l-4.6486 8.73926h-.0338l-.9297-8.73926z" mask="url(#b)" stroke="#fff" stroke-width="4"/><path d="m10.6165 17.9662-7.1165 12.0694h2.78913l1.52134-2.6878h4.51333l.3888 2.6878h2.637l-2.0116-12.0694zm-1.758 7.4039 2.6032-4.8007h.0338l.5916 4.8007z" mask="url(#b)" stroke="#fff" stroke-width="4"/><path d="m27.0665 30.0356 5.6628-12.0694h-2.6539l-3.685 8.8069h-.0338l-.3043-8.8069h-2.5356l-3.8202 8.8407h-.0338l-.1691-8.8407h-2.6539l.8283 12.0694h2.6708l3.7527-8.621h.0338l.3042 8.621z" mask="url(#b)" stroke="#fff" stroke-width="4"/><path d="m36.6497 17.9662-7.1165 12.0694h2.7891l1.5213-2.6878h4.5134l.3887 2.6878h2.637l-2.0115-12.0694zm-1.758 7.4039 2.6032-4.8007h.0338l.5916 4.8007z" mask="url(#b)" stroke="#fff" stroke-width="4"/><path d="m46.0409 23.4262.71-3.3977h2.5186c.2592 0 .5072.0169.7438.0507.2367.0338.4451.1014.6255.2029.1803.1014.3211.2535.4225.4564.1127.1915.1691.4507.1691.7775 0 .3381-.0789.6311-.2367.879-.1465.2367-.3493.4339-.6085.5917-.2479.1465-.5353.2592-.8621.338-.3268.0677-.6705.1015-1.0311.1015zm-1.5213-5.46-2.5187 12.0694h2.637l.9973-4.7162h2.5018c.2592 0 .4958.0225.71.0676.2141.0338.3944.1071.5409.2198.1577.1126.2761.2648.355.4564.0901.1803.1352.4169.1352.7099 0 .4057-.0226.817-.0676 1.234-.0451.4057-.0676.8114-.0676 1.2171 0 .1352.0112.2704.0338.4057.0225.1239.0507.2592.0845.4057h2.5863c-.0677-.1804-.1127-.3888-.1353-.6255-.0225-.2479-.0338-.5071-.0338-.7776 0-.3718.0113-.7437.0338-1.1156.0338-.3832.0507-.71.0507-.9804 0-.4846-.0845-.9185-.2535-1.3016-.1691-.3944-.5015-.6705-.9973-.8283v-.0338c.4056-.0564.7775-.1803 1.1156-.3719s.6311-.4282.879-.71c.2479-.293.4395-.6254.5747-.9973.1353-.3719.2029-.7607.2029-1.1664 0-.586-.0845-1.0818-.2536-1.4875-.169-.4057-.4113-.7325-.7268-.9804-.3156-.2592-.6987-.4395-1.1495-.5409-.4395-.1127-.9297-.1634-1.4706-.1522z" mask="url(#b)" stroke="#fff" stroke-width="4"/><path d="m56.9723 27.8042 1.6227-7.6067h1.9947c.4733 0 .8733.0733 1.2001.2198.3381.1352.6142.3324.8283.5916s.3663.5691.4564.9297c.1015.3494.1522.7438.1522 1.1833 0 .6423-.0958 1.2452-.2874 1.8087-.1803.5635-.4508 1.0593-.8114 1.4875-.3493.4283-.7888.7663-1.3185 1.0143-.5184.2479-1.1156.3718-1.7918.3718zm-.5748-9.838-2.5355 12.0694h5.0373c1.1607 0 2.175-.186 3.0427-.5579.879-.3719 1.6058-.8846 2.1806-1.5382.586-.6649 1.0255-1.4481 1.3185-2.3497.293-.9015.4395-1.8763.4395-2.9243 0-1.4988-.4283-2.6539-1.2847-3.4653-.8565-.8226-2.1355-1.234-3.8372-1.234z" mask="url(#b)" stroke="#fff" stroke-width="4"/><path d="m68.7071 26.0293h-2.5187c0 1.4763.4113 2.5582 1.234 3.2456.8339.6874 2.096 1.0311 3.7864 1.0311.5748 0 1.1551-.0732 1.7411-.2197.586-.1353 1.11-.3607 1.5721-.6762.4733-.3155.8564-.7269 1.1494-1.234.3043-.5071.4564-1.1213.4564-1.8425 0-.5409-.0788-.9973-.2366-1.3692s-.3832-.6874-.6762-.9466c-.2817-.2592-.6198-.4677-1.0142-.6254-.3944-.1691-.8283-.3156-1.3016-.4395-.2028-.0451-.4677-.1015-.7945-.1691-.3268-.0789-.648-.1803-.9635-.3042-.3043-.1353-.5691-.2987-.7945-.4903-.2141-.2028-.3211-.4507-.3211-.7437 0-.2818.0619-.5184.1859-.71s.2874-.3437.4902-.4564c.2029-.124.4282-.2085.6762-.2535.2591-.0564.5127-.0846.7606-.0846.3043 0 .5917.0338.8621.1015.2705.0563.5015.1577.6931.3042.2028.1465.355.3381.4564.5748.1127.2253.1634.5071.1521.8451h2.5187c0-.6986-.124-1.2903-.3719-1.7749-.2366-.4958-.5635-.9015-.9804-1.217-.4057-.3156-.8847-.5409-1.4368-.6762-.541-.1465-1.1213-.2197-1.7411-.2197-.586 0-1.1664.0732-1.7411.2197-.5635.1353-1.0706.355-1.5214.6593-.4507.293-.817.6761-1.0987 1.1494s-.4226 1.0481-.4226 1.7242c0 .5184.0845.9579.2536 1.3185.1803.3606.4113.6649.693.9128.293.2479.6198.4508.9804.6086.3606.1577.7325.293 1.1157.4056.3719.1127.7381.2198 1.0987.3212.3719.1014.6987.2198.9804.355.293.1352.5297.2986.71.4902.1803.1803.2705.417.2705.71 0 .3042-.0733.5634-.2198.7775-.1352.2142-.3155.3888-.5409.5241-.2141.1352-.4564.2366-.7269.3042-.2704.0676-.5409.1015-.8114.1015-.3831 0-.7381-.0339-1.0649-.1015-.3268-.0789-.6085-.2028-.8452-.3719-.2366-.169-.4169-.3944-.5409-.6761-.124-.293-.1747-.6536-.1521-1.0819z" mask="url(#b)" stroke="#fff" stroke-width="4"/><path d="m12.1022 38.4273h2.282c.0112-.3268.0676-.6367.169-.9297.1127-.293.2592-.5522.4395-.7775.1916-.2254.417-.4001.6762-.5241.2704-.1352.5691-.2028.8959-.2028.5071 0 .9353.1296 1.2846.3888.3607.2479.541.6705.541 1.2678 0 .3944-.1015.7381-.3043 1.0311s-.4564.5578-.7607.7945c-.293.2254-.6141.4282-.9635.6085-.3381.1803-.6536.355-.9466.524-.5747.3043-1.1382.6198-1.6904.9467-.5522.3268-1.048.6986-1.4875 1.1156-.4395.4057-.8001.879-1.0819 1.4199-.2817.5409-.4451 1.1776-.4902 1.9101h8.7562l.4733-2.0622h-5.8318c.3043-.3268.6818-.6311 1.1326-.9128.4507-.2817.924-.5635 1.4199-.8452.4958-.293.9917-.5916 1.4875-.8959.5071-.3043.9579-.6367 1.3523-.9973.3944-.3719.7156-.7832.9635-1.234.2479-.462.3719-.9804.3719-1.5552 0-.6085-.107-1.1381-.3212-1.5889-.2028-.4508-.4845-.8227-.8452-1.1157-.3606-.293-.7775-.5071-1.2508-.6423-.4733-.1465-.9805-.2198-1.5214-.2198-1.3635 0-2.4679.3945-3.3131 1.1833-.8452.7776-1.3242 1.882-1.4368 3.3131z" mask="url(#b)" stroke="#fff" stroke-width="4"/><path d="m22.7459 42.18c0-.2817.0169-.6311.0507-1.048.0451-.417.1127-.8565.2028-1.3185.0902-.4621.2085-.9241.355-1.3862.1578-.4733.3494-.8959.5747-1.2677.2254-.3719.4902-.6706.7945-.8959.3043-.2367.6536-.355 1.0481-.355.3042 0 .5634.0563.7775.169.2254.1127.4057.2648.5409.4564.1465.1916.248.417.3043.6762.0676.2592.1014.5353.1014.8283 0 .2704-.0225.6141-.0676 1.0311-.0338.4057-.1014.8395-.2028 1.3016-.0902.462-.2141.9241-.3719 1.3861s-.3493.879-.5747 1.2509-.4959.6761-.8114.9128c-.3043.2254-.6593.3381-1.065.3381-.3268 0-.5972-.0564-.8113-.1691-.2142-.1127-.3832-.2592-.5072-.4395-.1239-.1916-.2141-.4113-.2704-.6592-.0451-.2592-.0676-.5297-.0676-.8114zm-2.3835-.4902c0 .6085.0676 1.1889.2029 1.7411.1352.5409.3493 1.0198.6423 1.4368s.6762.7494 1.1495.9973c.4846.2367 1.0649.355 1.7411.355.6649 0 1.2678-.1127 1.8087-.3381s1.0255-.5296 1.4537-.9128c.4282-.3831.8001-.8339 1.1157-1.3523.3268-.5184.5916-1.0649.7944-1.6397.2142-.5747.3719-1.1663.4733-1.7749.1015-.6198.1522-1.217.1522-1.7918 0-.6648-.0845-1.2677-.2536-1.8087-.1577-.5522-.4-1.0255-.7268-1.4199s-.7382-.6987-1.234-.9128c-.4959-.2254-1.0762-.3381-1.7411-.3381-.6311 0-1.2114.1127-1.7411.3381-.5184.2254-.9861.5353-1.403.9297-.4057.3832-.7663.8339-1.0819 1.3523-.3042.5184-.5578 1.065-.7606 1.6397-.1916.5747-.3381 1.1607-.4395 1.758-.1015.5973-.1522 1.1776-.1522 1.7411z" mask="url(#b)" stroke="#fff" stroke-width="4"/><path d="m30.2117 38.4273h2.282c.0113-.3268.0676-.6367.169-.9297.1127-.293.2592-.5522.4395-.7775.1916-.2254.417-.4001.6762-.5241.2704-.1352.5691-.2028.8959-.2028.5071 0 .9353.1296 1.2847.3888.3606.2479.5409.6705.5409 1.2678 0 .3944-.1014.7381-.3043 1.0311-.2028.293-.4564.5578-.7607.7945-.293.2254-.6141.4282-.9635.6085-.338.1803-.6536.355-.9466.524-.5747.3043-1.1382.6198-1.6904.9467-.5522.3268-1.048.6986-1.4875 1.1156-.4395.4057-.8001.879-1.0818 1.4199-.2818.5409-.4452 1.1776-.4903 1.9101h8.7562l.4733-2.0622h-5.8318c.3043-.3268.6818-.6311 1.1326-.9128.4507-.2817.924-.5635 1.4199-.8452.4958-.293.9917-.5916 1.4875-.8959.5071-.3043.9579-.6367 1.3523-.9973.3944-.3719.7156-.7832.9635-1.234.248-.462.3719-.9804.3719-1.5552 0-.6085-.107-1.1381-.3211-1.5889-.2029-.4508-.4846-.8227-.8452-1.1157-.3607-.293-.7776-.5071-1.2509-.6423-.4733-.1465-.9804-.2198-1.5214-.2198-1.3635 0-2.4679.3945-3.3131 1.1833-.8452.7776-1.3241 1.882-1.4368 3.3131z" mask="url(#b)" stroke="#fff" stroke-width="4"/><path d="m40.8554 42.18c0-.2817.0169-.6311.0507-1.048.0451-.417.1127-.8565.2028-1.3185.0902-.4621.2085-.9241.355-1.3862.1578-.4733.3494-.8959.5748-1.2677.2253-.3719.4902-.6706.7944-.8959.3043-.2367.6536-.355 1.0481-.355.3042 0 .5634.0563.7775.169.2254.1127.4057.2648.541.4564.1465.1916.2479.417.3042.6762.0676.2592.1015.5353.1015.8283 0 .2704-.0226.6141-.0677 1.0311-.0338.4057-.1014.8395-.2028 1.3016-.0902.462-.2141.9241-.3719 1.3861s-.3493.879-.5747 1.2509-.4959.6761-.8114.9128c-.3043.2254-.6593.3381-1.0649.3381-.3268 0-.5973-.0564-.8114-.1691s-.3832-.2592-.5071-.4395c-.124-.1916-.2141-.4113-.2705-.6592-.0451-.2592-.0676-.5297-.0676-.8114zm-2.3834-.4902c0 .6085.0676 1.1889.2028 1.7411.1352.5409.3493 1.0198.6423 1.4368s.6762.7494 1.1495.9973c.4846.2367 1.0649.355 1.7411.355.6649 0 1.2678-.1127 1.8087-.3381s1.0255-.5296 1.4537-.9128c.4283-.3831.8001-.8339 1.1157-1.3523.3268-.5184.5916-1.0649.7945-1.6397.2141-.5747.3718-1.1663.4733-1.7749.1014-.6198.1521-1.217.1521-1.7918 0-.6648-.0845-1.2677-.2536-1.8087-.1577-.5522-.4-1.0255-.7268-1.4199s-.7382-.6987-1.234-.9128c-.4958-.2254-1.0762-.3381-1.7411-.3381-.6311 0-1.2114.1127-1.7411.3381-.5184.2254-.986.5353-1.403.9297-.4057.3832-.7663.8339-1.0818 1.3523-.3043.5184-.5579 1.065-.7607 1.6397-.1916.5747-.3381 1.1607-.4395 1.758s-.1521 1.1776-.1521 1.7411z" mask="url(#b)" stroke="#fff" stroke-width="4"/><path d="m53.1442 33.9309.8959 12.0693h1.2678l5.274-10.9705h.0338l.7944 10.9705h1.2509l5.8149-12.0693h-1.2001l-4.9359 10.6325h-.0339l-.8282-10.6325h-1.3862l-5.1387 10.7339h-.0338l-.6255-10.7339z" mask="url(#b)" stroke="#fff" stroke-width="4"/><path d="m69.5785 33.9309-2.5525 12.0693h1.1495l2.5525-12.0693z" mask="url(#b)" stroke="#fff" stroke-width="4"/><path d="m72.9538 33.9309-2.6031 12.0693h1.0987l2.2482-10.7846h.0338l4.8176 10.7846h1.2678l2.637-12.0693h-1.1157l-2.2313 10.7847h-.0338l-4.8176-10.7847z" mask="url(#b)" stroke="#fff" stroke-width="4"/><path d="m84.5178 33.9309-2.6032 12.0693h1.0987l2.2482-10.7846h.0338l4.8176 10.7846h1.2678l2.637-12.0693h-1.1156l-2.2314 10.7847h-.0338l-4.8175-10.7847z" mask="url(#b)" stroke="#fff" stroke-width="4"/><path d="m96.1324 33.9309-2.5694 12.0693h8.249l.22-.9804h-7.0998l1.0142-4.7668h6.4576l.219-.9805h-6.4737l.9297-4.3611h6.931l.219-.9805z" mask="url(#b)" stroke="#fff" stroke-width="4"/><path d="m105.433 39.6613 1.014-4.7499h4.142c.744 0 1.273.1746 1.589.524.315.3493.473.879.473 1.5889 0 .4508-.084.8396-.253 1.1664-.158.3268-.384.6029-.677.8283-.281.2141-.614.3775-.997.4902-.372.1014-.778.1521-1.217.1521zm.068-5.7304-2.57 12.0693h1.15l1.132-5.3585h4.26c.62 0 1.048.186 1.285.5579.248.3606.372.8283.372 1.403 0 .3606-.028.7212-.085 1.0818-.056.3606-.084.7213-.084 1.0819v.2366c.011.124.022.2592.034.4057.011.1352.028.2648.05.3888.023.1127.051.1803.085.2028h1.183c-.09-.1239-.146-.293-.169-.5071s-.034-.3944-.034-.5409c0-.4169.028-.8339.085-1.2509.056-.4169.084-.8395.084-1.2678 0-.5521-.112-1.0198-.338-1.403-.225-.3831-.625-.6367-1.2-.7606v-.0338c.439-.0339.845-.1409 1.217-.3212.383-.1803.71-.417.98-.71.271-.293.479-.6311.626-1.0142.158-.3944.237-.8114.237-1.2509 0-.9917-.271-1.7411-.812-2.2482s-1.324-.7607-2.349-.7607z" mask="url(#b)" stroke="#fff" stroke-width="4"/><path d="m69.7587 2.00155-3.0239 12.06935h-8.4214l.4732-2.2313h5.9099l.7423-2.95821h-4.8171l.4996-2.06226h4.7871l.6683-2.58628h-6.209l.4695-2.2313z" mask="url(#b)" stroke="#fff" stroke-width="4"/></svg>