<svg fill="none" height="40" viewBox="0 0 200 40" width="200" xmlns="http://www.w3.org/2000/svg" xmlns:xlink="http://www.w3.org/1999/xlink"><clipPath id="a"><path d="m0 0h200v40h-200z"/></clipPath><g clip-path="url(#a)"><path d="m141.128 25.3352c-.179-.1192-.416-.1788-.594-.1192-.237.0596-.415.1788-.534.3577-.059.0596-.119.1788-.178.2384-1.721 2.2653-4.332 3.5172-7.122 3.5172-2.908 0-5.638-1.4307-7.3-3.7556-.118-.1789-.296-.2981-.534-.3577-.059 0-.118 0-.118 0-.178 0-.356.0596-.475.1788-.356.2385-.475.775-.178 1.1327 2.018 2.8018 5.222 4.4709 8.665 4.4709 3.323 0 6.409-1.4903 8.427-4.1728.059-.1193.119-.1789.237-.2981.119-.4173.06-.9538-.296-1.1923z" fill="#e15f58"/><g fill="#fff"><path d="m1.54303 30.8793c-.17804.1788-.35608.2384-.593471.2384-.296736 0-.534132-.0596-.712174-.2384-.1780414-.1788-.237385-.4173-.237385-.6558v-29.329312c0-.23845.0593436-.476904.237385-.655742.178042-.1788371.415434-.238446.652823-.238446.237392 0 .474782.0596089.652822.238446.17804.178838.23739.417292.23739.655742v29.329312c.05934.2385-.05935.477-.23739.6558z"/><path d="m49.0208 11.0284c1.3056 1.6095 1.9584 3.6959 1.9584 6.2593v12.9955c0 .2385-.0593.4173-.2373.5961-.1781.1789-.3561.2385-.6529.2385-.2967 0-.4747-.0596-.6528-.2385-.178-.1788-.2374-.3576-.2374-.5961v-12.8167c0-2.0864-.5341-3.8152-1.543-5.1267s-2.5519-1.9672-4.6291-1.9672c-1.2463 0-2.5519.2981-3.7388.9538-1.2463.6558-2.2552 1.5499-3.0267 2.623-.7716 1.073-1.1276 2.2652-1.1276 3.5171v12.8167c0 .2385-.0594.4173-.2374.5961-.1781.1789-.3561.2385-.6528.2385-.2374 0-.4748-.0596-.6529-.2385-.178-.1788-.2374-.3576-.2374-.5961v-13.0552c0-2.0268-.4747-3.6959-1.4836-5.0074-.9496-1.2518-2.4333-1.9076-4.4511-1.9076-1.2463 0-2.4332.2981-3.6202.9538-1.1869.5961-2.1364 1.4903-2.908 2.5633-.7715 1.073-1.1276 2.2057-1.1276 3.4576v13.0551c0 .2384-.0593.4173-.2374.5961-.178.1789-.356.2385-.5934.2385s-.4748-.0596-.6528-.2385c-.1781-.1788-.2374-.3577-.2374-.5961v-20.56632c0-.23845.0593-.41729.2374-.59613.178-.17883.356-.23842.5934-.23842s.4748.05959.6528.23842c.1781.17884.2374.35768.2374.59613v3.09982c.8309-1.2518 1.9585-2.2652 3.3828-3.09982 1.365-.77496 2.8487-1.19225 4.3324-1.19225 1.6023 0 3.086.41731 4.3323 1.25188 1.2463.83459 2.1958 2.02679 2.7893 3.63639.5935-1.3711 1.7805-2.5038 3.5015-3.4576 1.7211-.95376 3.4421-1.43067 5.1039-1.43067 2.5519.05961 4.451.8346 5.816 2.44417z"/><path d="m80.9497 28.4948c1.3056-.8346 2.3145-1.9672 3.0861-3.4576.7715-1.4903 1.1276-3.1594 1.1276-5.0074s-.3561-3.5172-1.1276-4.9479c-.7716-1.4903-1.7805-2.6229-3.0861-3.4575s-2.7893-1.2519-4.3917-1.2519c-1.6617 0-3.1454.4173-4.451 1.2519-1.3057.8346-2.3146 1.9672-3.0861 3.4575-.7121 1.4904-1.0682 3.1595-1.0682 5.0075s.3561 3.5767 1.0682 5.0074c.7122 1.4904 1.7211 2.623 3.0861 3.4576 1.3056.8345 2.7893 1.2518 4.451 1.2518 1.6024-.0596 3.0861-.4769 4.3917-1.3114zm1.0089-18.4203c1.543.9538 2.7893 2.3249 3.6795 4.0536.8902 1.7288 1.3057 3.696 1.3057 5.8421 0 2.146-.4748 4.0536-1.365 5.842-.8902 1.7288-2.1365 3.0998-3.6795 4.1132-1.5431 1.0135-3.3235 1.4904-5.2226 1.4904-1.7804 0-3.3828-.4173-4.8665-1.3115-1.4836-.8942-2.6706-2.1461-3.6201-3.8152v12.8763c0 .2384-.0594.4173-.2374.5961-.1781.1788-.3561.2385-.6528.2385-.2374 0-.4155-.0597-.5935-.2385-.1781-.1788-.2374-.3577-.2374-.5961v-29.62741c0-.23845.0593-.41729.2374-.59613.178-.17884.3561-.23846.6528-.23846.2374 0 .4748.05962.6528.23846.1781.17884.2374.35768.2374.59613v4.11321c.8902-1.6691 2.0772-2.9806 3.5608-3.75555 1.4837-.83458 3.1454-1.25185 4.9852-1.25185 1.7804 0 3.5608.47688 5.1632 1.4307z"/><path d="m112.819 9.1802c0 .23845-.059.47692-.237.65576-.119.17884-.357.23844-.594.23844-.059 0-.297-.0596-.653-.17885-.356-.11922-.712-.17883-1.068-.17883-1.187 0-2.433.47688-3.62 1.43068s-2.196 2.2057-2.968 3.6364c-.771 1.4307-1.127 2.921-1.127 4.2325v11.1475c0 .2385-.119.4173-.297.5961-.178.1789-.356.2385-.593.2385-.297 0-.475-.0596-.653-.2385-.178-.1788-.238-.3576-.238-.5961v-20.38748c0-.23845.06-.41729.238-.59612.178-.17884.356-.23843.593-.23843.238 0 .475.05959.653.23843.178.17883.238.35767.238.59612v4.70938c.652-1.7884 1.721-3.3383 3.145-4.53055s3.145-1.78836 5.104-1.84797c1.424.05961 2.077.41728 2.077 1.07302z"/><path d="m154.896 26.7659c0-.1789.119-.4173.356-.5961.119-.1193.297-.2385.534-.2385.297 0 .535.1192.713.3577 1.721 2.4441 4.095 3.696 7.181 3.696 1.543 0 2.967-.4173 4.154-1.1923 1.187-.7749 1.78-1.848 1.78-3.2191s-.534-2.3845-1.543-3.0998c-1.009-.6558-2.433-1.2519-4.273-1.6692-2.374-.5961-4.273-1.3711-5.638-2.3845s-2.077-2.3845-2.077-4.2324c0-1.7288.712-3.2191 2.077-4.35174s3.205-1.72878 5.401-1.72878c1.187 0 2.433.23846 3.62.71536s2.315 1.25186 3.264 2.26526c.178.1788.297.3577.297.5961 0 .2385-.119.4769-.297.7154-.237.1192-.415.1788-.593.1788s-.356-.0596-.534-.2384c-1.543-1.6692-3.502-2.56338-5.935-2.56338-1.543 0-2.908.35768-3.976 1.13268-1.069.7749-1.603 1.8479-1.603 3.219.06 1.2519.653 2.2653 1.781 2.9807 1.068.7153 2.67 1.3114 4.747 1.848 1.484.3576 2.79.8345 3.739 1.2518 1.009.4769 1.781 1.1326 2.374 1.9672.594.8346.89 1.9076.89 3.2787 0 1.848-.712 3.3383-2.136 4.4113-1.424 1.0731-3.324 1.6096-5.638 1.6096-3.383 0-6.172-1.3115-8.309-3.9941-.237-.2384-.356-.4769-.356-.7153z"/><path d="m183.561 26.7659c0-.1789.118-.4173.356-.5961.118-.1193.296-.2385.534-.2385.297 0 .534.1192.712.3577 1.721 2.4441 4.095 3.696 7.181 3.696 1.543 0 2.967-.4173 4.154-1.1923 1.187-.7749 1.781-1.848 1.781-3.2191s-.534-2.3845-1.543-3.0998c-1.009-.6558-2.433-1.2519-4.273-1.6692-2.374-.5961-4.273-1.3711-5.638-2.3845s-2.077-2.3845-2.077-4.2324c0-1.7288.712-3.2191 2.077-4.35174s3.205-1.72878 5.4-1.72878c1.187 0 2.434.23846 3.621.71536s2.314 1.25186 3.264 2.26526c.178.1788.296.3577.296.5961 0 .2385-.118.4769-.296.7154-.238.1192-.416.1788-.594.1788-.237 0-.415-.0596-.534-.2384-1.543-1.6692-3.501-2.56338-5.935-2.56338-1.543 0-2.908.35768-3.976 1.13268-1.068.7749-1.602 1.8479-1.602 3.219.059 1.2519.653 2.2653 1.78 2.9807 1.068.7153 2.671 1.3114 4.748 1.848 1.484.3576 2.789.8345 3.739 1.2518 1.009.4769 1.78 1.1326 2.374 1.9672.593.8346.89 1.9076.89 3.2787 0 1.848-.712 3.3383-2.137 4.4113-1.424 1.0731-3.323 1.6096-5.638 1.6096-3.382 0-6.172-1.3115-8.308-3.9941-.238-.2384-.356-.4769-.356-.7153z"/><path d="m140.831 17.586h-8.19-8.19v-.4173c.178-1.4903.653-2.8018 1.424-3.8748.831-1.0731 1.84-1.9076 3.027-2.5038 1.187-.5365 2.433-.83455 3.68-.83455 1.305 0 2.552.29805 3.679.83455 1.187.5366 2.196 1.3711 3.027 2.5038.831 1.073 1.306 2.3845 1.424 3.8748v.4173zm.297-4.8287c-.95-1.4903-2.196-2.6825-3.68-3.39788-1.484-.77496-3.086-1.13261-4.807-1.13261s-3.323.35765-4.807 1.13261c-1.484.77498-2.73 1.90758-3.68 3.39788-.949 1.4904-1.424 3.398-1.483 5.6036 0 .2385.059.4769.237.6558.119.1192.297.2384.416.298h9.258 9.258c.178-.0596.297-.1192.415-.298.178-.1789.238-.4173.238-.6558.118-2.2652-.416-4.1132-1.365-5.6036z"/></g></g></svg>