<svg fill="none" height="28" viewBox="0 0 140 28" width="140" xmlns="http://www.w3.org/2000/svg" xmlns:xlink="http://www.w3.org/1999/xlink"><clipPath id="a"><path d="m0 0h140v28h-140z"/></clipPath><g clip-path="url(#a)"><path d="m98.7894 17.7348c-.1247-.0834-.2908-.1251-.4155-.0834-.1661.0417-.2908.1252-.3739.2503-.0415.0418-.083.1252-.1246.167-1.2047 1.5857-3.0326 2.4619-4.9852 2.4619-2.0356 0-3.9465-1.0014-5.1097-2.6289-.0831-.1251-.2078-.2086-.3739-.2503-.0416 0-.0831 0-.0831 0-.1247 0-.2493.0417-.3324.1252-.2492.1669-.3323.5424-.1246.7928 1.4125 1.9613 3.6558 3.1297 6.0653 3.1297 2.3264 0 4.4866-1.0432 5.8991-2.921.0415-.0835.0831-.1252.1662-.2087.0831-.2921.0415-.6676-.2077-.8346z" fill="#e15f58"/><g fill="#424e58"><path d="m1.08012 21.6155c-.124628.1252-.249257.1669-.415429.1669-.207715 0-.373892-.0417-.498521-.1669-.1246295-.1252-.16617-.2921-.16617-.459v-20.530568c0-.166916.0415405-.333833.16617-.459019.124629-.1251868.290803-.166913.456975-.166913.166173 0 .332347.0417262.456975.166913.12463.125186.16617.292103.16617.459019v20.530568c.04154.1669-.04154.3338-.16617.459z"/><path d="m34.3146 7.71993c.914 1.12667 1.3709 2.58717 1.3709 4.38147v9.0969c0 .1669-.0415.2921-.1661.4173-.1247.1252-.2493.1669-.457.1669s-.3324-.0417-.457-.1669-.1662-.2504-.1662-.4173v-8.9717c0-1.4605-.3739-2.67063-1.0801-3.58866s-1.7863-1.37704-3.2403-1.37704c-.8724 0-1.7864.20866-2.6172.66767-.8724.45902-1.5787 1.08493-2.1187 1.83605-.5401.75108-.7894 1.58568-.7894 2.46198v8.9717c0 .1669-.0415.2921-.1661.4173-.1247.1252-.2493.1669-.457.1669-.1662 0-.3323-.0417-.457-.1669-.1246-.1252-.1661-.2504-.1661-.4173v-9.1386c0-1.4188-.3324-2.58716-1.0386-3.5052-.6647-.8763-1.7033-1.33532-3.1157-1.33532-.8724 0-1.7033.20863-2.5342.66765-.8308.41729-1.4955 1.04321-2.0356 1.79433-.54.75114-.7893 1.54394-.7893 2.42024v9.1386c0 .1669-.0415.2921-.1662.4173-.1246.1252-.2492.1669-.4154.1669s-.3324-.0417-.457-.1669-.1661-.2504-.1661-.4173v-14.39639c0-.16692.0415-.2921.1661-.41729s.2493-.1669.4155-.1669c.1661 0 .3323.04171.4569.1669.1247.12519.1662.25037.1662.41729v2.1699c.5816-.8763 1.3709-1.5857 2.368-2.1699.9554-.54248 1.994-.83458 3.0326-.83458 1.1216 0 2.1602.29212 3.0326.87632.8724.58421 1.5371 1.41877 1.9526 2.54545.4154-.95976 1.2463-1.75261 2.451-2.42027s2.4095-1.0015 3.5727-1.0015c1.7863.04173 3.1157.58422 4.0712 1.7109z"/><path d="m56.6648 19.9465c.914-.5842 1.6202-1.3771 2.1603-2.4203.54-1.0432.7893-2.2116.7893-3.5052s-.2493-2.462-.7893-3.4635c-.5401-1.04324-1.2463-1.83608-2.1603-2.42028-.9139-.5842-1.9525-.87632-3.0742-.87632-1.1632 0-2.2017.29212-3.1157.87632-.9139.5842-1.6202 1.37704-2.1602 2.42028-.4985 1.0432-.7478 2.2116-.7478 3.5052s.2493 2.5037.7478 3.5052c.4985 1.0432 1.2047 1.8361 2.1602 2.4203.914.5842 1.9525.8763 3.1157.8763 1.1217-.0417 2.1603-.3338 3.0742-.918zm.7062-12.89424c1.0802.66766 1.9526 1.62741 2.5757 2.83755.6232 1.21009.914 2.58719.914 4.08939 0 1.5023-.3324 2.8376-.9555 4.0895-.6232 1.2101-1.4956 2.1698-2.5757 2.8792s-2.3264 1.0432-3.6558 1.0432c-1.2463 0-2.3679-.292-3.4065-.918-1.0386-.6259-1.8694-1.5022-2.5341-2.6706v9.0134c0 .1669-.0416.2921-.1662.4173s-.2493.1669-.457.1669c-.1662 0-.2908-.0417-.4154-.1669s-.1662-.2504-.1662-.4173v-20.73919c0-.16691.0416-.2921.1662-.41728.1246-.12519.2493-.16693.457-.16693.1661 0 .3323.04174.4569.16693.1247.12518.1662.25037.1662.41728v2.87927c.6232-1.1684 1.454-2.08643 2.4926-2.6289 1.0386-.58421 2.2018-.8763 3.4896-.8763 1.2463 0 2.4926.33382 3.6142 1.00148z"/><path d="m78.9733 6.42616c0 .16692-.0416.33385-.1662.45903-.0831.12519-.2493.1669-.4154.1669-.0416 0-.2077-.04172-.457-.12518s-.4985-.12518-.7478-.12518c-.8308 0-1.7032.33382-2.5341 1.00148s-1.5371 1.54397-2.0772 2.54549c-.54 1.0015-.7893 2.0447-.7893 2.9627v7.8033c0 .1669-.0831.2921-.2077.4173s-.2492.1669-.4154.1669c-.2077 0-.3324-.0417-.457-.1669s-.1662-.2504-.1662-.4173v-14.27125c0-.16692.0416-.2921.1662-.41729.1246-.12518.2493-.1669.4154-.1669.1662 0 .3324.04172.457.1669.1246.12519.1662.25037.1662.41729v3.29655c.457-1.25183 1.2047-2.33679 2.2018-3.17137.997-.83457 2.2018-1.25185 3.5727-1.29358.997.04173 1.454.2921 1.454.75111z"/><path d="m108.427 18.7361c0-.1251.084-.2921.25-.4172.083-.0835.207-.1669.374-.1669.207 0 .374.0834.498.2503 1.205 1.7109 2.867 2.5872 5.027 2.5872 1.08 0 2.077-.2921 2.908-.8346.831-.5424 1.246-1.2936 1.246-2.2533 0-.9598-.374-1.6692-1.08-2.1699-.706-.459-1.703-.8763-2.991-1.1684-1.662-.4173-2.991-.9598-3.947-1.6692-.955-.7094-1.454-1.6691-1.454-2.96271 0-1.21014.499-2.25335 1.454-3.0462.956-.79284 2.244-1.21014 3.781-1.21014.831 0 1.703.16692 2.534.50075s1.62.8763 2.285 1.58569c.124.12518.207.25037.207.41728 0 .16692-.083.33384-.207.50075-.166.08346-.291.12519-.416.12519-.124 0-.249-.04174-.374-.16693-1.08-1.1684-2.451-1.79433-4.154-1.79433-1.08 0-2.035.25038-2.783.79286-.748.54247-1.122 1.29357-1.122 2.25333.042.87626.457 1.58566 1.246 2.08646.748.5007 1.87.918 3.324 1.2936 1.038.2504 1.952.5842 2.617.8763.706.3338 1.246.7928 1.662 1.377.415.5842.623 1.3353.623 2.2951 0 1.2936-.499 2.3368-1.496 3.0879-.997.7512-2.326 1.1267-3.946 1.1267-2.368 0-4.321-.918-5.816-2.7958-.166-.1669-.25-.3338-.25-.5008z"/><path d="m128.492 18.7361c0-.1251.084-.2921.25-.4172.083-.0835.207-.1669.374-.1669.207 0 .373.0834.498.2503 1.205 1.7109 2.867 2.5872 5.027 2.5872 1.08 0 2.077-.2921 2.908-.8346.831-.5424 1.246-1.2936 1.246-2.2533 0-.9598-.374-1.6692-1.08-2.1699-.706-.459-1.703-.8763-2.991-1.1684-1.662-.4173-2.991-.9598-3.947-1.6692-.955-.7094-1.454-1.6691-1.454-2.96271 0-1.21014.499-2.25335 1.454-3.0462.956-.79284 2.244-1.21014 3.781-1.21014.831 0 1.703.16692 2.534.50075s1.62.8763 2.285 1.58569c.124.12518.207.25037.207.41728 0 .16692-.083.33384-.207.50075-.166.08346-.291.12519-.416.12519-.166 0-.291-.04174-.374-.16693-1.08-1.1684-2.451-1.79433-4.154-1.79433-1.08 0-2.036.25038-2.783.79286-.748.54247-1.122 1.29357-1.122 2.25333.042.87626.457 1.58566 1.246 2.08646.748.5007 1.87.918 3.324 1.2936 1.038.2504 1.952.5842 2.617.8763.706.3338 1.246.7928 1.662 1.377.415.5842.623 1.3353.623 2.2951 0 1.2936-.499 2.3368-1.496 3.0879-.997.7512-2.326 1.1267-3.946 1.1267-2.368 0-4.321-.918-5.816-2.7958-.166-.1669-.25-.3338-.25-.5008z"/><path d="m98.5816 12.3102h-5.733-5.7329v-.2921c.1246-1.0432.457-1.9612.997-2.71237.5816-.75111 1.2878-1.33532 2.1187-1.75261.8309-.37556 1.7033-.58421 2.5757-.58421.9139 0 1.7863.20865 2.5757.58421.8308.37556 1.537.95977 2.1186 1.75261.5816.75117.914 1.66917.9971 2.71237v.2921zm.2077-3.38003c-.6647-1.04322-1.5371-1.8778-2.5757-2.37855-1.0386-.54247-2.1602-.79283-3.365-.79283-1.2047 0-2.3264.25036-3.365.79283-1.0385.54247-1.9109 1.33533-2.5756 2.37855-.6647 1.04321-.9971 2.37853-1.0386 3.92253 0 .1669.0415.3338.1662.459.083.0834.2077.1669.2908.2086h6.4807 6.4807c.1246-.0417.2077-.0834.2908-.2086.1246-.1252.1662-.2921.1662-.459.0831-1.5857-.2908-2.87932-.9555-3.92253z"/></g></g></svg>