<svg fill="none" height="40" viewBox="0 0 40 40" width="40" xmlns="http://www.w3.org/2000/svg"><path d="m36.2031 23.7422c0 .9375-.1953 1.8164-.5859 2.6367-.3516.8203-.8399 1.543-1.4649 2.168-.5859.5859-1.289 1.0547-2.1093 1.4062-.8203.3516-1.6992.5274-2.6368.5274-.9374 0-1.8164-.1758-2.6367-.5274-.8203-.3515-1.5429-.8203-2.1679-1.4062-.586-.625-1.0547-1.3477-1.4063-2.168-.3515-.8203-.5273-1.6992-.5273-2.6367 0-1.5625.2539-3.0078.7617-4.336.5078-1.3671 1.1914-2.6367 2.0508-3.8085.8984-1.1719 1.914-2.2461 3.0468-3.2227 1.1719-.9766 2.3829-1.8555 3.6329-2.63672l2.1679 1.87502c-.7422.664-1.4258 1.5039-2.0508 2.5195s-1.0351 2.0313-1.2304 3.0469c1.4843.3515 2.7148 1.1523 3.6914 2.4023.9765 1.211 1.4648 2.5977 1.4648 4.1602zm-17.9883 0c0 .9375-.1953 1.8164-.5859 2.6367-.3516.8203-.8398 1.543-1.4648 2.168-.586.5859-1.3086 1.0547-2.168 1.4062-.8203.3516-1.6992.5274-2.6367.5274s-1.81643-.1758-2.63674-.5274c-.78125-.3515-1.48438-.8203-2.10938-1.4062-.58594-.625-1.05469-1.3477-1.40625-2.168s-.52734-1.6992-.52734-2.6367c0-1.5625.2539-3.0078.76172-4.336.50781-1.3671 1.1914-2.6367 2.05078-3.8085.89843-1.1719 1.91406-2.2461 3.04691-3.2227 1.1718-.9766 2.3828-1.8555 3.6328-2.63672l2.1093 1.87502c-.7031.664-1.3671 1.5039-1.9921 2.5195s-1.0352 2.0313-1.2305 3.0469c1.4844.3515 2.7148 1.1523 3.6914 2.4023.9766 1.211 1.4648 2.5977 1.4648 4.1602z" fill="#c8e6ef"/></svg>