<svg enable-background="new 0 0 385.6 77.1" viewBox="0 0 385.6 77.1" xmlns="http://www.w3.org/2000/svg"><path d="m272.1 48.8c-.3-.2-.8-.3-1.2-.3-.4.1-.8.3-1 .6l-.4.5c-5.8 7.6-16.7 9-24.3 3.2-1.3-1-2.5-2.3-3.5-3.6-.2-.3-.6-.6-1-.6h-.3c-.3 0-.7.1-.9.3-.7.5-.9 1.5-.4 2.2 6.6 9.2 19.5 11.3 28.7 4.7 1.6-1.2 3-2.5 4.3-4.1l.4-.6c.5-.8.3-1.8-.4-2.3z" fill="#df6059"/><g fill="#424e58"><path d="m3 59.4c-.3.4-.7.6-1.2.6s-1-.2-1.3-.5c-.3-.4-.5-.9-.5-1.3v-56.4c0-.5.2-.9.5-1.3.4-.3.8-.5 1.3-.5 1 0 1.8.7 1.8 1.7v.1 56.4c0 .4-.3.9-.6 1.2z"/><path d="m94.5 21.3c2.5 3.1 3.8 7.1 3.8 12v24.9c0 .4-.2.9-.5 1.2-.7.7-1.8.7-2.5 0-.3-.3-.5-.8-.5-1.2v-24.5c.1-3.5-.9-7-3-9.9-2-2.5-5-3.8-9-3.8-2.5 0-5 .7-7.2 1.9-2.3 1.2-4.3 2.9-5.8 5-1.5 2-2.2 4.4-2.2 6.8v24.6c0 .4-.2.9-.5 1.2-.7.7-1.8.7-2.5 0-.3-.3-.5-.8-.5-1.2v-25c.2-3.4-.8-6.8-2.8-9.6-1.9-2.5-4.7-3.7-8.6-3.7-2.4 0-4.8.6-7 1.8s-4.2 2.8-5.6 4.9c-1.4 1.9-2.2 4.2-2.2 6.6v25c0 .9-.8 1.7-1.7 1.7-.5 0-.9-.2-1.2-.5s-.5-.8-.5-1.2v-39.4c0-.9.8-1.7 1.7-1.7.5 0 .9.2 1.2.5s.5.8.5 1.2v6c1.7-2.4 3.9-4.4 6.5-5.9 2.5-1.5 5.4-2.3 8.4-2.3s5.9.8 8.4 2.4c2.5 1.7 4.4 4.1 5.4 7 1.5-2.9 3.9-5.3 6.8-6.7 3-1.7 6.4-2.7 9.8-2.7 5 0 8.8 1.5 11.3 4.6z"/><path d="m158 19.5c3 1.9 5.5 4.6 7.1 7.8 1.8 3.5 2.6 7.3 2.6 11.2.1 3.9-.8 7.7-2.6 11.2-1.6 3.2-4.1 5.9-7.1 7.9-3 1.9-6.5 2.9-10.1 2.9-3.3 0-6.6-.9-9.4-2.6-2.9-1.8-5.3-4.3-7-7.3v24.8c0 .4-.2.9-.5 1.2-.7.7-1.8.7-2.5.1-.3-.3-.5-.8-.5-1.3v-57c0-.4.2-.9.5-1.2.7-.7 1.8-.7 2.5 0 .3.3.5.7.5 1.2v7.9c1.5-3 3.9-5.6 6.9-7.2 2.9-1.6 6.2-2.4 9.6-2.4 3.4-.1 6.9.9 10 2.8zm-1.9 35.3c2.6-1.6 4.6-4 6-6.7 1.5-3 2.2-6.3 2.2-9.6.1-3.3-.7-6.6-2.2-9.5-1.4-2.7-3.4-5-6-6.6-2.5-1.6-5.5-2.4-8.5-2.4s-6 .8-8.6 2.4-4.6 3.9-5.9 6.6c-2.8 6.1-2.8 13.2 0 19.3 1.3 2.7 3.4 5 5.9 6.6 2.6 1.6 5.6 2.4 8.6 2.4 3-.1 6-.9 8.5-2.5z"/><path d="m217.6 17.8c0 .5-.1.9-.4 1.3-.3.3-.7.5-1.1.5-.4-.1-.8-.2-1.2-.4-.7-.3-1.4-.4-2.1-.4-2.6.1-5.1 1.1-7 2.8-2.4 1.9-4.3 4.3-5.7 7-1.4 2.5-2.2 5.3-2.2 8.2v21.4c0 .5-.2.9-.5 1.2s-.7.5-1.2.5-.9-.2-1.2-.5-.5-.8-.5-1.2v-39.3c0-.9.8-1.7 1.7-1.7.5 0 .9.2 1.2.5s.5.8.5 1.2v9.1c1.2-3.4 3.4-6.4 6.1-8.6 2.8-2.3 6.2-3.5 9.8-3.5 2.5-.1 3.8.6 3.8 1.9z"/><path d="m298.7 51.5c.2-.8.9-1.4 1.7-1.5.5 0 1.1.2 1.4.7 3.1 4.6 8.3 7.3 13.9 7.1 2.8.1 5.6-.7 8-2.3 2.2-1.3 3.5-3.6 3.4-6.1.1-2.4-1-4.6-3-5.9-2.5-1.5-5.3-2.6-8.2-3.3-3.9-.8-7.6-2.4-10.9-4.6-2.6-1.8-4.1-4.9-4-8.1-.1-3.3 1.4-6.4 4-8.4 3-2.3 6.6-3.5 10.4-3.3 2.4 0 4.8.5 7 1.4 2.4 1 4.5 2.5 6.3 4.4.4.3.6.7.6 1.2s-.2 1-.6 1.4c-.3.2-.7.3-1.1.3s-.8-.2-1-.5c-2.9-3.2-7.1-5-11.5-4.9-2.7-.1-5.4.7-7.7 2.2-2 1.4-3.2 3.7-3.1 6.2.1 2.3 1.4 4.5 3.4 5.7 2.9 1.7 6 2.8 9.2 3.5 2.5.6 4.9 1.4 7.2 2.4 1.8.8 3.4 2.1 4.6 3.7 1.2 1.9 1.8 4 1.7 6.3.1 3.4-1.4 6.5-4.2 8.5-2.8 2.1-6.4 3.1-10.8 3.1-6.3.1-12.2-2.7-16-7.7-.4-.4-.6-.9-.7-1.5z"/><path d="m353.9 51.5c0-.5.3-.9.7-1.1.3-.3.6-.4 1-.4.5 0 1.1.2 1.4.7 3.1 4.6 8.3 7.3 13.9 7.1 2.8.1 5.6-.7 8-2.3 2.2-1.3 3.5-3.6 3.4-6.1.1-2.4-1-4.6-3-5.9-2.5-1.5-5.3-2.6-8.2-3.3-3.9-.8-7.6-2.4-10.9-4.6-2.6-1.8-4.1-4.9-4-8.1-.1-3.3 1.4-6.4 4-8.4 3-2.3 6.6-3.5 10.4-3.3 2.4 0 4.8.5 7 1.4 2.4 1 4.5 2.5 6.3 4.4.4.3.6.7.6 1.2s-.2 1-.6 1.4c-.3.2-.7.3-1.1.3s-.8-.2-1-.5c-2.9-3.2-7.1-5-11.5-4.9-2.7-.1-5.4.7-7.7 2.2-2 1.4-3.2 3.7-3.1 6.2.1 2.3 1.4 4.5 3.4 5.7 2.9 1.6 6 2.8 9.2 3.5 2.5.6 4.9 1.4 7.2 2.4 1.8.8 3.4 2.1 4.6 3.7 1.2 1.9 1.8 4 1.7 6.3.1 3.4-1.4 6.5-4.2 8.5-2.8 2.1-6.4 3.1-10.8 3.1-6.3.1-12.2-2.7-16-7.7-.4-.4-.6-.9-.7-1.5z"/><path d="m272.2 24.6c-1.7-2.8-4.1-5.1-7.1-6.5-5.9-2.9-12.7-2.9-18.6 0-2.9 1.5-5.4 3.8-7.1 6.5-1.9 3.3-2.9 7-2.9 10.8 0 .5.2.9.5 1.2.2.3.5.4.9.5h35.8c.3-.1.6-.3.9-.5.3-.3.5-.8.5-1.2 0-3.8-1-7.6-2.9-10.8zm-.6 9.3h-31.5v-.8c.2-2.7 1.2-5.3 2.8-7.5 1.5-2 3.5-3.7 5.8-4.8 4.5-2.2 9.8-2.2 14.3 0 2.3 1.1 4.3 2.7 5.8 4.8 1.6 2.2 2.6 4.8 2.8 7.5z"/></g></svg>