<svg fill="none" height="24" viewBox="0 0 24 24" width="24" xmlns="http://www.w3.org/2000/svg" xmlns:xlink="http://www.w3.org/1999/xlink"><clipPath id="a"><path d="m0 0h24v24h-24z"/></clipPath><g clip-path="url(#a)"><path d="m12.0482.00007148c-6.58488 0-11.9517174 5.33997852-11.9517174 11.89192852 0 2.1.5547734 4.14 1.5919574 5.94l-1.68844 6.168 6.33166-1.656c1.74874.948 3.71454 1.452 5.71654 1.452 6.585 0 11.9518-5.34 11.9518-11.892 0-3.17996-1.2422-6.16795-3.4975-8.41194-1.1057-1.11128-2.4227-1.99239-3.8742-2.59193-1.4515-.599538-3.0085-.90550612-4.5801-.90005852zm.0121 2.00399852c2.6533 0 5.1377 1.03199 7.0191 2.90399.9233.91842 1.6554 2.00917 2.1542 3.2097.4987 1.20053.7544 2.48724.7523 3.78624 0 5.448-4.4623 9.876-9.9377 9.876-1.7849 0-3.53363-.468-5.05323-1.38l-.36181-.204-3.76281.984 1.00101-3.648-.24121-.384c-.99625-1.5736-1.5232-3.3962-1.5196-5.256.01206-5.44795 4.46231-9.88793 9.94975-9.88793zm-4.24523 4.39198c-.19296 0-.51859.072-.79598.372-.26532.3-1.04924 1.032-1.04924 2.48399 0 1.46396 1.07337 2.86796 1.20603 3.07196.16884.204 2.12261 3.204 5.12562 4.476.7116.324 1.2663.504 1.7005.636.7116.228 1.3628.192 1.8814.12.5789-.084 1.7608-.72 2.0141-1.416.2532-.696.2533-1.284.1809-1.416-.0844-.12-.2774-.192-.5789-.324-.3015-.168-1.7729-.888-2.0382-.984-.2774-.096-.4462-.144-.6754.144-.1929.3-.7718.972-.9407 1.164-.1809.204-.3497.228-.6392.084-.3135-.156-1.2784-.468-2.412-1.476-.89249-.792-1.48345-1.764-1.66435-2.064-.14473-.288-.01206-.468.13266-.6.13266-.132.32563-.348.44623-.528.15679-.16796.20503-.29996.30146-.49196.0965-.204.0483-.372-.02407-.516-.07236-.132-.67538-1.61999-.92864-2.20799-.24121-.576-.48242-.504-.67538-.516-.16885 0-.36181-.012-.56684-.012z" fill="#fff"/></g></svg>