<svg fill="none" height="24" viewBox="0 0 24 24" width="24" xmlns="http://www.w3.org/2000/svg"><path d="m16.36 14c.08-.66.14-1.32.14-2s-.06-1.34-.14-2h3.38c.16.64.26 1.31.26 2s-.1 1.36-.26 2zm-1.77 5.56c.6-1.11 1.06-2.31 1.38-3.56h2.95c-.9688 1.6683-2.5059 2.932-4.33 3.56zm-.25-5.56h-4.68c-.1-.66-.16-1.32-.16-2s.06-1.35.16-2h4.68c.09.65.16 1.32.16 2s-.07 1.34-.16 2zm-2.34 5.96c-.83-1.2-1.5-2.53-1.91-3.96h3.82c-.41 1.43-1.08 2.76-1.91 3.96zm-4-11.96h-2.92c.95886-1.67279 2.4948-2.93851 4.32-3.56-.6 1.11-1.05 2.31-1.4 3.56zm-2.92 8h2.92c.35 1.25.8 2.45 1.4 3.56-1.82138-.6283-3.35515-1.8923-4.32-3.56zm-.82-2c-.16-.64-.26-1.31-.26-2s.1-1.36.26-2h3.38c-.08.66-.14 1.32-.14 2s.06 1.34.14 2zm7.74-9.97c.83 1.2 1.5 2.54 1.91 3.97h-3.82c.41-1.43 1.08-2.77 1.91-3.97zm6.92 3.97h-2.95c-.313-1.23854-.7764-2.4341-1.38-3.56 1.84.63 3.37 1.9 4.33 3.56zm-6.92-6c-5.53 0-10 4.5-10 10 0 2.6522 1.05357 5.1957 2.92893 7.0711.92859.9286 2.03098 1.6651 3.24424 2.1677 1.21325.5025 2.51363.7612 3.82683.7612 2.6522 0 5.1957-1.0536 7.0711-2.9289 1.8753-1.8754 2.9289-4.4189 2.9289-7.0711 0-1.3132-.2587-2.61358-.7612-3.82683-.5026-1.21326-1.2391-2.31565-2.1677-3.24424-.9286-.92858-2.031-1.66518-3.2443-2.16773-1.2132-.50254-2.5136-.7612-3.8268-.7612z" fill="#057ee3"/></svg>