<svg fill="none" height="24" viewBox="0 0 91 24" width="91" xmlns="http://www.w3.org/2000/svg" xmlns:xlink="http://www.w3.org/1999/xlink"><clipPath id="a"><path d="m.601562 0h90.24v24h-90.24z"/></clipPath><g clip-path="url(#a)"><path clip-rule="evenodd" d="m81.0044 6.6-2.0695 7.8h4.1671l-2.0394-7.8zm4.6333 17.4-1.2132-4.892h-6.3028l-1.2714 4.892h-5.0594l7.1991-24h4.7116l7.14 24zm-24.7097-19.2h-3.3178v4.8h3.409c1.9051 0 3.2878-.987 3.2878-2.621 0-1.94-1.8128-2.179-3.379-2.179zm3.399 19.2-1.4639-5.376c-1.0979-4.042-2.4084-4.252-5.274-4.287v9.663h-4.8489v-24h7.9883c3.6898 0 5.8555.773 7.166 2.249.8844.984 1.4028 2.32 1.4028 3.76 0 2.143-.9756 3.654-2.1036 4.708-1.2193 1.124-2.3182 1.476-3.5976 1.827v.071c1.6153.457 3.1093 1.265 4.1771 4.709l2.0124 6.676zm-22.4276-17.4-2.0685 7.8h4.1671l-2.0394-7.8zm4.6343 17.4-1.2132-4.892h-6.3028l-1.2713 4.892h-5.0595l7.1981-24h4.7126l7.14 24zm-15.409 0h-11.4725v-24h4.9061v19.074h7.1259zm-19.7164 0c-6.25263 0-10.806738-4.677-10.806738-12s4.554108-12 10.806738-12c2.2339 0 5.0635.87 6.76 3.354l-3.394 3.162c-.8774-1.193-2.1508-1.871-3.7901-1.871-3.33891 0-5.80045 3.097-5.80045 7.355s2.46155 7.355 5.65805 7.355c1.7817 0 3.2246-.903 4.131-2.452l3.6768 3.13c-1.6685 2.709-4.498 3.967-7.2413 3.967z" fill="#d5d6d7" fill-rule="evenodd"/></g></svg>