<svg fill="none" height="26" viewBox="0 0 172 26" width="172" xmlns="http://www.w3.org/2000/svg" xmlns:xlink="http://www.w3.org/1999/xlink"><clipPath id="a"><path d="m.158203.5h171v25h-171z"/></clipPath><g clip-path="url(#a)" fill="#d5d6d7"><path d="m168.265 15.2456v-.1999-.1999c-.036-.588-.141-1.1524-.306-1.7169-.823-2.9045-2.61-4.90353-5.502-5.84426-2.034-.65851-4.115-.69379-6.184-.12935-2.775.75259-4.667 2.49294-5.679 5.19751-.493 1.3288-.658 2.7164-.623 4.1393.024.8937.13 1.7756.365 2.6458.799 2.8927 2.586 4.9036 5.443 5.8561 1.999.6702 4.044.682 6.09.1881 1.517-.3763 2.857-1.0818 3.95-2.2107 1.493-1.5287 2.234-3.3867 2.434-5.4916v-.1999-.1999c0-.094-.047-.2116.059-.2822v-1.2347c-.094-.1058-.047-.2117-.047-.3175zm-5.232 3.7277c-.106.341-.259.6585-.435.9642-.705 1.1759-1.764 1.7756-3.127 1.8462-.706.0353-1.388-.0235-2.046-.3057-.917-.3999-1.528-1.0936-1.94-1.9873-.4-.8937-.564-1.8345-.611-2.7987-.012-.1764 0-.3646 0-.5527 0-1.0936.117-2.1637.541-3.1867.764-1.905 2.375-2.6576 4.267-2.4695 1.105.1176 2.011.5762 2.681 1.4699.423.5645.682 1.2112.846 1.8933.377 1.7286.365 3.4336-.176 5.127z"/><path d="m168.266 15.2461c0 .0941-.047.2117.059.2822v-.2704c-.024 0-.036 0-.059-.0118zm0 1.7991c.023 0 .035 0 .059-.0117v-.2705c-.106.0823-.059.1882-.059.2822z"/><path d="m168.266 17.045v.1999h.059v-.2117c-.023.0118-.035.0118-.059.0118zm0 .2116v.2h.059v-.2117c-.012 0-.035.0117-.059.0117zm0-2.2107v.1999c.024 0 .036 0 .059.0118v-.2117zm0-.1999v.1999h.059v-.2116c-.023.0117-.035.0117-.059.0117zm-117.0251-9.60723c-.6936-1.88147-1.9751-3.21025-3.8209-3.99812-1.1757-.505644-2.3984-.740828-3.6681-.740828-3.7268-.011759-7.4537 0-11.1805 0-.3762 0-.3292-.023518-.3292.329257v23.753521c0 .0823.0117.1646 0 .2352-.0118.1529.0588.1999.1999.1881h4.879c.3762 0 .3291.0236.3291-.3292v-.1764-7.8551c0-.0823.0118-.1647 0-.2352-.0235-.1646.0588-.1999.1999-.1882.0705.0118.1411 0 .2116 0h5.5609c.9876 0 1.9634-.1293 2.9039-.4233 2.4806-.7526 4.1501-2.3401 4.9025-4.833.5526-1.91676.5055-3.8335-.1881-5.72673zm-4.8085 4.28034c-.2586 1.10539-.964 1.81089-2.0339 2.17549-.6701.2234-1.3637.3175-2.0574.3175-1.4695.0235-2.9509.0117-4.4205.0235-.2939 0-.2704.0235-.2704-.2822v-3.39845-3.36312c0-.32926-.0352-.30574.2822-.30574 1.4578 0 2.9274 0 4.3852.01176.6231.01176 1.258.08231 1.8576.2587 1.2932.36454 2.0926 1.18768 2.3043 2.52822.1175.68204.1058 1.36407-.0471 2.03434zm78.0876-9.019288h-4.185c-.447 0-.388-.058795-.388.376294v8.172624c0 .10584.035.22343-.047.34102-.059-.07056-.106-.12935-.142-.18815-.576-.82314-1.352-1.42286-2.269-1.83443-1.328-.59972-2.727-.70555-4.161-.49388-1.517.22342-2.834.87018-3.915 1.95202-1.2 1.19948-1.917 2.65758-2.305 4.29208-.329 1.3406-.411 2.7046-.282 4.0805.141 1.5404.529 3.0103 1.27 4.3744.823 1.5051 1.987 2.6693 3.597 3.3396 1.552.6467 3.175.7408 4.809.388 1.493-.3175 2.692-1.0936 3.539-2.3871.023-.0353.035-.0941.094-.0823.058.0353.047.0941.047.1529v1.7168c0 .3528-.012.3057.317.3057h3.95c.388 0 .388 0 .388-.3762v-14.68726-9.12512c-.011-.352775.024-.317498-.317-.317498zm-4.856 18.614778c-.258.7408-.646 1.3876-1.258 1.8932-.74.6115-1.622.8232-2.562.7879-1.799-.047-2.904-1.0348-3.598-2.6105-.353-.7879-.517-1.6346-.564-2.493-.071-1.2582.035-2.4929.505-3.6689.435-1.0936 1.129-1.9402 2.281-2.3165 1.27-.4233 2.528-.3645 3.68.3763.764.4939 1.211 1.2229 1.516 2.0578.341.9643.459 1.9521.447 2.9163.012 1.0819-.106 2.0814-.447 3.0574zm-104.3043-11.92381c-1.5284-.49388-3.1038-.54092-4.6791-.23518-2.91569.56444-5.05539 2.19897-6.27808 4.90359-1.29323 2.8575-1.25796 5.7737-.04703 8.6547.90526 2.152 2.51592 3.6336 4.71441 4.4097 1.9398.6938 3.9385.7409 5.9488.3175 1.4931-.3175 2.7864-1.023 3.8327-2.1284.9053-.9525 1.5049-2.0931 1.9281-3.3278.0235-.0823.094-.1529.0235-.2705h-.3292c-1.1169 0-2.2455.0118-3.3624-.0117-.3644-.0118-.576.0587-.7524.435-.3292.6938-.964 1.1172-1.6459 1.4347-1.0934.5056-2.222.5409-3.3859.2822-1.258-.2822-2.10447-1.0466-2.56297-2.246-.24689-.6585-.36446-1.3406-.38797-2.0814h12.35624c.0823 0 .1646-.0118.2351 0 .1646.0235.2116-.047.2116-.2117.0823-2.0108-.2116-3.9393-1.1051-5.762-.9993-2.03429-2.5394-3.46891-4.7144-4.16271zm-6.95993 7.02021c.04703-1.9402 1.43431-3.4689 3.33893-3.7041.6936-.0823 1.3637-.0588 2.0338.1411.6819.1999 1.2227.5997 1.6342 1.1759.4115.588.7877 1.6345.8582 2.3871zm59.11233-3.0456c-.9406-1.82268-2.3396-3.1397-4.2677-3.85701-1.6342-.59972-3.3271-.6938-5.0318-.35278-2.9627.5762-5.1142 2.246-6.3369 5.02119-1.1639 2.6576-1.1639 5.3857-.1763 8.0903.9053 2.4812 2.657 4.1392 5.1729 4.9624 1.6342.5291 3.2919.5997 4.9731.3527 2.5982-.3763 4.5263-1.7168 5.7725-4.0334.3056-.5762.5643-1.1641.7524-1.7991-.1293-.047-.2469-.0353-.3527-.0353h-3.7386c-.1293 0-.2116.0353-.2587.1646-.2469.635-.7289 1.0701-1.2814 1.4229-1.2345.7761-2.5747.8702-3.962.5409-1.1287-.2704-1.9281-.9525-2.3984-2.0108-.2116-.4821-.3409-.9878-.4114-1.5169-.0236-.2587-.1059-.5057-.0353-.7879h12.7559c.0588-.6467.0353-1.2582-.0117-1.8579-.0941-1.517-.4586-2.9634-1.1639-4.3039zm-11.5686 3.0456c-.0587-.1881 0-.3528.0353-.5174.2822-1.5992 1.4108-2.9986 3.3506-3.1985.5879-.0588 1.164-.047 1.7283.0823.8347.1882 1.4813.635 1.9398 1.3523.4468.6938.6584 1.4699.8112 2.2813zm44.2045-6.96141c-2.0335-.635-4.1026-.65851-6.1483-.09407-2.3866.65851-4.1618 2.08137-5.267 4.31558-.7289 1.4699-.9993 3.0457-1.011 4.6802.0117.1176.0235.2234.0235.341.0117 1.1406.1881 2.2578.5761 3.3279.8464 2.3518 2.3983 4.0569 4.7379 4.9741 2.2573.8819 4.5733.9407 6.8894.2704 2.6924-.7643 4.5494-2.4811 5.5024-5.1034.928-2.5518.917-5.1506-.012-7.6905-.917-2.52827-2.716-4.22159-5.291-5.02121zm.506 12.10021c-.6584 1.5522-1.8223 2.3753-3.5153 2.4459-1.0581.047-2.0221-.1764-2.8451-.8702-.6113-.5174-.9875-1.1877-1.2462-1.9403-.3292-.9524-.435-1.9402-.4232-2.9397.0117-.9525.1176-1.8933.435-2.7987.2469-.7056.6113-1.3523 1.1756-1.858.7877-.7055 1.7283-.9407 2.7511-.929.3997 0 .7994.0588 1.1874.1647 1.2932.3645 2.0807 1.2582 2.5517 2.4812.376.9877.493 2.0108.482 2.9633.011 1.1876-.13 2.2695-.553 3.2808zm48.496-1.1407h-3.915c-.435 0-.423 0-.529.4351-.223.9996-.658 1.8697-1.517 2.493-.658.4821-1.422.6585-2.222.6703-1.175.0117-2.163-.4234-2.892-1.3641-.305-.3998-.541-.8467-.717-1.317-.329-.882-.47-1.7874-.482-2.7164-.023-1.27.165-2.5047.717-3.6689.482-1.023 1.223-1.7991 2.34-2.1166.893-.2587 1.787-.1999 2.657.1293.67.247 1.175.6938 1.528 1.3053.224.3763.353.7879.447 1.2112.059.2469.059.2469.306.2469h4.255c.259 0 .271-.0117.247-.2704-.07-.7173-.235-1.4229-.517-2.0814-.764-1.77564-2.116-2.95156-3.88-3.65711-1.892-.76434-3.856-.90545-5.854-.55268-3.139.56444-5.279 2.3636-6.419 5.33869-.541 1.4111-.729 2.8927-.694 4.3979.023.8584.129 1.7051.364 2.54.764 2.6693 2.399 4.6096 4.997 5.6209 2.269.8819 4.608.8819 6.925.1411 1.775-.5645 3.15-1.6698 4.103-3.2926.623-1.0583.964-2.2107 1.128-3.4454-.153-.0706-.27-.0471-.376-.0471zm-122.1395-17.321225v-.235183c0-.105833-.0353-.14111-.1411-.14111h-4.3499c-.3762 0-.3762 0-.3762.388052v23.800566c0 .3528-.0353.3175.3056.3175h4.1854c.4467 0 .3762.047.3762-.3763zm53.9394 7.525875v-1.19944c0-.28222 0-.27046-.2587-.34101-.2469-.07056-.4938-.10584-.7406-.09408-2.5395.07056-4.4088 1.23472-5.608 3.46898-.047.0823-.047.1881-.1763.2469v-1.94024-1.0936c0-.15287-.0588-.21167-.1999-.19991h-4.056c-.482 0-.3997-.01176-.3997.41157v17.13308c-.0235.1647.0352.2235.2116.2235 1.4813-.0118 2.9744 0 4.4557 0 .1646 0 .2117-.0471.2117-.2117-.0118-.4704-.0118-.9407 0-1.4111.0117-2.2813-.0353-4.5508.0235-6.8321.0235-.6938.1176-1.364.3057-2.0226.2468-.8349.6466-1.5875 1.3167-2.1637.9405-.8231 2.0692-1.0583 3.2801-1.0465.5408.0117 1.0698.0588 1.5989.1529.0705-.1176.0353-.2352.0353-.3528zm50.1651 16.16885v-8.4666-3.2926-5.20928c0-.32925.071-.35277-.352-.35277h-4.186c-.399 0-.364-.02352-.364.37629v16.94496c0 .4233 0 .4233.411.4233h4.08c.07 0 .141-.0117.2 0 .176.0236.223-.0587.211-.2116zm-44.4397.1176v-17.12135c0-.35278.0236-.32926-.3409-.32926h-4.1501c-.4585 0-.388-.02352-.388.37629v17.22722c0 .1058.0353.1528.1411.1411h4.6086c.1293.0117.1646-.0588.1528-.1646-.0352-.0353-.0235-.0824-.0235-.1294zm7.8064-19.63782h3.0568c.1763 0 .2939-.08231.4114-.18814 1.6107-1.49342 3.2211-2.97508 4.8321-4.468491.059-.047037.129-.094073.153-.188147-.094-.082314-.224-.035277-.329-.035277-1.552 0-3.1042 0-4.6678-.01176-.2469 0-.388.070556-.5291.282221-.9758 1.458134-1.9516 2.892754-2.9274 4.350894-.047.07056-.1293.12935-.1058.23518.0353.01176.0706.02352.1058.02352zm32.0483-.54092h4.291c.306 0 .306 0 .306-.29398v-3.457197c0-.28222-.012-.270461-.259-.270461h-4.385c-.247 0-.258 0-.258.270461v3.457197c0 .28222 0 .29398.305.29398zm-44.4868 0h4.3852c.2352 0 .2469-.01176.2469-.24694v-3.527755c0-.235183 0-.235183-.2469-.235183h-4.4322c-.1646 0-.2116.047036-.2116.211665.0117 1.187673 0 2.375353 0 3.563033 0 .22342.0117.23518.2586.23518z"/></g></svg>