<svg fill="none" height="32" viewBox="0 0 133 32" width="133" xmlns="http://www.w3.org/2000/svg"><path d="m59.9724 21.4231c-.7089.4123-1.2329.6023-1.8495.6023-1.1097 0-1.9418-.8256-1.9418-2.221 0-1.7457.9569-2.6979 3.7913-2.8891zm1.5686 2.0586h3.9917v-.4444l-1.6254-.7606.0091-9.3293c0-2.8562-1.634-4.34802-4.3761-4.34802-2.8976 0-6.9955 1.42792-6.9955 4.09412 0 1.1109.7399 2.0948 2.0031 2.0948 1.1402 0 1.9425-.9839 1.9425-2.0313 0-.7936-.4322-1.7767-1.2957-2.4758.499-.0846 1.0043-.1269 1.5104-.1266 2.5577 0 3.2665 1.2693 3.2665 3.0785v2.9193c-4.7152.0321-7.9198 1.5877-7.9198 4.5082 0 1.9679 1.4178 3.3323 3.7282 3.3323 1.7259 0 3.0824-.8252 4.1916-1.9996l.1535.0639c.0201.7908.6284 1.4245 1.4159 1.4245zm46.178-21.73892h4.374l-3.218 5.02891h-2.485zm-13.1778 2.52069c0-1.39278 1.0952-2.52144 2.448-2.52144 1.3527 0 2.4487 1.12866 2.4487 2.52144 0 1.3924-1.096 2.52182-2.4487 2.52182-1.3528 0-2.448-1.12979-2.448-2.52182zm34.7668 8.71563c0-2.2531-1.016-4.37972-3.791-4.37972-1.662 0-3.449.85661-5.269 2.63482l-.123-.0639-.008-2.09482h-5.45v.44096l1.761.87366v11.8911l-1.626.7614v.444h6.887v-.444l-1.318-.7614v-10.5078c1.048-.444 1.727-.6035 2.805-.6035 1.757 0 2.188 1.3018 2.188 3.0796v8.031l-1.539.7614v.4439h7.11v-.4439l-1.627-.7614zm-34.1063-2.586v11.8877l-1.7176.7614v.444h7.2879v-.444l-1.6267-.7614v-13.20607h-5.7334v.44889zm-47.4432 6.2815c0 4.4761-1.4484 6.1254-3.0197 6.1254-1.3561 0-2.158-.5694-2.8975-1.7442v-9.9357c.7701-.1901 1.448-.2853 2.0953-.2853 2.4657 0 3.8219 1.7767 3.8219 5.8398zm-9.8616 13.0489-1.6249.7621v.413h7.5028v-.413l-1.9331-.7621v-6.0971c.6473.1266 1.2941.1904 1.9108.1904 5.2079 0 8.2271-3.8413 8.2271-8.1262 0-4.3797-2.465-7.26843-5.4536-7.26843-1.8178 0-3.6359 1.07916-4.7758 2.19043l-.124-.0631.0015-1.47402h-5.4869v.44474l1.7486.85778zm73.0631-13.6206c0 3.9682-.955 6.6658-3.174 6.6658-2.22 0-3.175-2.6976-3.175-6.6658 0-3.9668.955-6.66467 3.175-6.66467 2.218 0 3.174 2.69787 3.174 6.66467zm4.221 0c0-4.062-2.249-7.68073-7.21-7.68073-4.932 0-7.582 3.87303-7.582 7.68073 0 4.0952 2.249 7.7139 7.212 7.7139 4.96 0 7.58-3.904 7.58-7.7139zm-21.6171 2.8895c0-2.7618-2.1573-3.745-4.1614-4.571-1.7566-.7296-3.4186-1.3652-3.4186-2.9832 0-.9529.6764-1.93649 1.8775-1.93649 1.4817 0 2.2809.98389 4.1301 3.55489l.6162-.1266-.0922-3.93651c-.8635-.31702-2.6503-.57094-3.8518-.57094-3.3281 0-5.7311 2.06305-5.7311 4.57135 0 2.7927 2.1557 3.7778 4.1599 4.6348 1.7557.7292 3.3905 1.364 3.3905 2.9518 0 1.2696-.741 2.1572-1.9728 2.1572-1.603 0-2.7418-1.0463-4.9928-4.1889l-.6166.0619.0922 4.3495c1.4189.5717 2.9913.8578 4.8397.8578 2.9573-.0012 5.7312-1.8742 5.7312-4.8256zm-12.857-6.0133c0-2.2531-1.0178-4.37972-3.7917-4.37972-1.6635 0-3.4518.85661-5.2688 2.63482l-.1232-.0639-.008-2.09482h-5.451v.44096l1.7611.87366v11.8911l-1.6253.7569v.4489h6.8865v-.4444l-1.3183-.7614v-10.5078c1.0491-.444 1.727-.6035 2.806-.6035 1.7561 0 2.1875 1.3018 2.1875 3.0796v8.031l-1.3161.7614v.4439h6.8862v-.4439l-1.6246-.7614v-9.3014zm-51.732 1.3656-2.403-4.1897 1.3784-.63478v-.44474h-7.4729v.44474l1.4714.63478 4.53 6.8876-4.1909 5.1423-1.626.8573v.444h5.0691v-.444l-1.2559-.6982 2.7425-4.1599 2.4964 4.1908-1.4715.6673v.444h7.5652v-.444l-1.4718-.6673-4.6824-6.92 4.037-5.0777 1.7478-.85773v-.44474h-5.1606v.44474l1.1932.72923zm-9.6227-12.61325h-17.5231v.58038l2.66085.8192v18.95407l-2.66085.8196v.5804h18.2192l.6302-7.0694-.6302-.1352-2.6858 3.5503c-1.0938 1.4363-2.1883 2.1523-4.0439 2.2543l-4.07896.2044v-8.9465h1.12776c1.89 0 2.6189.6843 3.4147 2.8011l.3985 1.0591h.6964v-9.18836h-.6964l-.3985 1.12752c-.7621 2.11714-1.5251 2.80104-3.4147 2.80104h-1.12776v-9.0508l3.01736.13641c2.321.10202 3.1497.71642 4.3433 2.45909l2.5863 3.75515.6303-.17079z" fill="#d5d6d7"/></svg>