<svg fill="none" height="24" viewBox="0 0 236 24" width="236" xmlns="http://www.w3.org/2000/svg" xmlns:xlink="http://www.w3.org/1999/xlink"><clipPath id="a"><path d="m.401367 0h235.2v24h-235.2z"/></clipPath><g clip-path="url(#a)" fill="#d5d6d7"><path d="m193.228 1.81034h-9.63v1.18966l2.514.56897v17.17243c-.321.4138-.856.8793-1.765.8793-1.659 0-2.622-1.3966-3.103-2.2241l-2.408-4.138c-.963-1.7586-2.087-2.5862-4.387-2.8448v-.3104c3.21-.0517 6.099-2.27581 6.099-5.27581 0-3.56897-3.371-4.96552-7.223-4.96552h-8.721v1.18965l2.836.56897v17.43101l-3.264.6207-8.293-21.6724c-.963 1.13793-2.033 1.96552-2.943 2.43103l.322.87931-7.491 17.68966-2.247.569v1.1896h6.795v-1.1896l-2.247-.569 2.514-6.4655h6.956l2.407 6.4138-2.621.6207v1.1896h16.586v-1.1896l-2.782-.569v-8.1207c1.872.1035 2.782.931 3.691 2.6379l3.264 5.6897c1.124 1.8621 2.729 2.7931 4.762 2.7931 1.551 0 2.782-.8793 3.103-1.2414h7.437c6.313 0 11.45-4.7069 11.45-10.4483 0-6.15513-4.869-10.49996-11.611-10.49996zm-42.053 11.12066 2.943-7.44824 2.835 7.44824zm21.455-1.5517c-.321 0-1.017 0-1.498 0v-7.81033h1.872c2.301 0 3.852 1.65517 3.799 3.72413-.107 2.06897-1.659 4.0862-4.173 4.0862zm20.331 9.6207h-3.103v-17.43103h3.156c4.923 0 7.919 3.25862 7.919 8.74133.053 5.3276-3.05 8.6897-7.972 8.6897z"/><path d="m35.1785 21-8.0255-21c-.963 1.13793-2.0331 1.96552-2.9426 2.43103l.321.87931-7.4905 17.68966-1.6051.569-.428 1.1896h6.6344v-1.1896l-2.2471-.569 2.5146-6.4655h6.9554l2.4077 6.4138-2.6217.6207v1.1896h8.8816v-1.1896zm-12.7337-8.069 2.9426-7.44824 2.8357 7.44824z"/><path d="m16.0778 17.4307-.8025-.4137-4.6548 4.0862h-4.01276v-17.53452l2.40764-.56897v-1.18965h-8.614013v1.18965l2.407643.56897v17.43102l-2.407643.569v1.1896h13.536333z"/><path d="m53.7456 1.81006v1.18965l2.5682.56897-5.6179 14.01722-5.9923-14.01722 2.8357-.56897v-1.18965h-9.6306v1.18965l2.7287.56897 8.5605 19.91382h.9095l8.507-19.91382h.107l2.6752-.56897v-1.18965z"/><path d="m139.08 1.81006v1.18965l2.568.56897s.214 10.39652.107 12.98272c-.107 3.0518-2.568 5.1207-5.832 5.1207-3.317 0-5.724-1.9138-5.831-5.3793v-12.77584l2.514-.56897v-1.13793h-8.721v1.18965l2.461.56897v12.87932c.161 4.4483 3.853 7.3448 8.614 7.3448 4.762 0 8.454-2.6896 8.614-7.3448l.214-12.87932 2.515-.56897v-1.18965z"/><path d="m233.195 20.9483-7.972-20.9483c-.963 1.13793-2.033 1.96552-2.943 2.43103l.321.87931-7.49 17.79306-1.284.5173-1.713-.5173v-17.53443l2.676-.56897v-1.18966h-9.042v1.18966l2.621.62069v17.43101l-2.514.569v1.1379h13.857v-1.1896l-2.247-.569 2.514-6.4655h6.956l2.407 6.4138-2.621.6207v1.1896h8.881v-1.1896zm-12.681-8.0173 2.943-7.44824 2.836 7.44824z"/><path d="m92.5863 1.81034v1.18966l2.6217.62069.1605 13.70691-13.5363-15.51726h-5.7784v1.18966l2.6217.56897.214.10344-.214 17.32759-2.6752.6207-8.186-21.6207c-.963 1.13793-2.0331 1.96552-2.9427 2.43103l.3211.87931-7.4905 17.68966-2.2471.569v1.1896h6.7949v-1.1896l-2.2471-.569 2.5146-6.4655h6.9554l2.4077 6.4138-2.6217.6207v1.1896h14.2319v-1.1896l-2.7822-.569-.1605-15.15517 15.5159 17.63797h1.0166l.214-19.91383 2.6216-.56897v-1.18966zm-29.4803 11.12066 2.9427-7.44824 2.8357 7.44824z"/><path d="m115.38 12.0519v1.1896l2.461.569v6.7241c-1.177.9311-3.05 1.5518-4.869 1.5518-4.922 0-8.079-4.0345-8.079-9.569-.053-5.32759 3.05-9.93104 8.079-9.93104 3.264 0 6.207 2.22414 7.223 5.68965l.696-.41379v-6.56897l-.642-.31034-1.338 1.60345c-1.391-.72414-3.745-1.44828-5.992-1.44828-6.688 0-12.146 5.27586-12.146 11.53452 0 6.5172 4.762 11.1724 11.236 11.1724 2.622 0 5.083-.7759 7.009-2.2242l1.926 1.2414h.642v-9.1034l2.033-.7759v-.9827h-8.239z"/></g></svg>