<svg fill="none" height="28" viewBox="0 0 322 28" width="322" xmlns="http://www.w3.org/2000/svg"><g fill="#e2e2df"><path d="m5.25885 23.6804h8.39945v4.0765h-13.6583v-22.00544h5.25885z"/><path d="m21.9033 27.7582h-5.289v-22.00674h5.289z"/><path d="m40.6932 5.75146v3.92637h-9.3026v5.57457h7.7467v3.9416h-7.7467v8.5642h-5.289v-22.00674z"/><path d="m58.0233 5.75146v3.92637h-9.3027v5.13547h7.1255v3.7762h-7.1255v5.2411h9.3027v3.9263h-14.5917v-22.00544z"/><path d="m73.6408 10.2227c-.156.2418-.3185.4238-.4902.5434-.1704.1209-.3919.182-.6606.182-.2399 0-.4955-.0725-.7708-.2189-.2752-.1451-.5859-.3093-.9333-.49-.3473-.182-.7432-.34489-1.1901-.49125-.4457-.14637-.9543-.21891-1.5245-.21891-.9844 0-1.7184.20363-2.2008.61216-.4824.4073-.7235.9584-.7235 1.6533 0 .4429.1441.8107.4351 1.1022.291.2914.6725.5434 1.143.7547.4719.2125 1.0107.406 1.6175.5816.6069.1769 1.2269.3729 1.8587.5893.6318.2176 1.2531.4709 1.86.7624.6056.2927 1.1457.6656 1.6162 1.1187.4719.4531.8533 1.0042 1.1443 1.6545.2897.6491.4352 1.4319.4352 2.3495 0 1.0169-.1822 1.9689-.544 2.8535-.363.8858-.89 1.6596-1.5795 2.3189-.6894.6592-1.5401 1.1785-2.5507 1.5552-1.0106.3768-2.1589.5651-3.4448.5651-.7052 0-1.4235-.0712-2.1549-.2112s-1.4392-.3399-2.1234-.597c-.683-.257-1.3279-.56-1.9282-.9138-.6017-.3525-1.126-.7458-1.5716-1.1785l1.5559-2.3864c.114-.182.2752-.3283.4823-.4391.2071-.1107.43-.1654.6698-.1654.3107 0 .6253.0942.9412.2863.3159.1922.6737.4022 1.0722.6351s.8586.4442 1.3776.6338c.5191.191 1.1299.2877 1.8351.2877.9543 0 1.6949-.2037 2.2244-.6109.5283-.4073.7917-1.0538.7917-1.9409 0-.5129-.1442-.9304-.4352-1.2524-.2909-.3233-.6724-.5893-1.143-.8005-.4718-.2113-1.0093-.3971-1.6109-.5588-.6017-.1616-1.219-.3411-1.8508-.5371s-1.2492-.4378-1.8508-.7229c-.6017-.2889-1.1378-.6643-1.611-1.134-.4732-.4696-.852-1.0525-1.143-1.7525s-.4352-1.5629-.4352-2.59c0-.8247.1704-1.6317.5138-2.41692.3422-.78528.8455-1.48528 1.5074-2.09873.6659-.616 1.4799-1.10728 2.4433-1.47509.9648-.36782 2.0698-.55109 3.3137-.55109.6947 0 1.3711.05345 2.0304.15909.658.10563 1.2832.26218 1.8744.46836s1.143.45309 1.6568.74073c.5139.28763.9726.61091 1.3777.97363z"/><path d="m94.3292 5.75146v4.04855h-6.377v17.95819h-5.2575v-17.95819h-6.3783v-4.04855z"/><path d="m107.8 19.3903v8.3669h-5.259v-8.3669l-8.2119-13.63854h4.6349c.4575 0 .8193.10309 1.089.30927.27.20746.488.47091.653.79291l3.205 6.40436c.258.5142.498.9876.716 1.4204.217.4327.409.8603.574 1.2829.156-.4327.343-.8655.561-1.2982.217-.434.451-.9011.7-1.4051l3.173-6.40436c.062-.13109.147-.26218.256-.39327.108-.13109.234-.24945.373-.35509s.3-.19091.483-.25709c.181-.06491.38-.098.599-.098h4.666z"/><path d="m122.827 23.6804h8.399v4.0765h-13.658v-22.00544h5.259z"/><path d="m148.307 5.75146v3.92637h-9.303v5.13547h7.126v3.7762h-7.126v5.2411h9.303v3.9263h-14.592v-22.00544z"/><path d="m170.253 27.4721h-1.229c-.145 0-.263-.0356-.358-.112-.092-.0751-.164-.1744-.217-.2953l-2.594-6.202h-10.804l-2.581 6.202c-.04.112-.115.2062-.216.2889-.105.0802-.231.1197-.376.1197h-1.211l8.998-21.35384h1.585zm-14.72-7.7598h9.854l-4.491-10.78765c-.072-.17182-.147-.36528-.219-.58164-.072-.21764-.143-.44673-.219-.686-.071.23927-.143.46836-.214.686-.073.21636-.146.41364-.219.59436zm37.35-2.9235c0 1.6495-.253 3.1488-.76 4.4864-.51 1.3453-1.225 2.4907-2.146 3.444-.922.952-2.028 1.6851-3.31 2.2005-1.284.518-2.711.7815-4.276.7815-1.544 0-2.959-.2635-4.241-.7815-1.285-.5141-2.389-1.2472-3.31-2.2005-.922-.9533-1.641-2.0987-2.156-3.444-.513-1.3389-.768-2.8369-.768-4.4864 0-1.6418.255-3.1296.768-4.4774.515-1.344 1.233-2.49075 2.156-3.44021.921-.95327 2.025-1.68763 3.31-2.21327 1.283-.52309 2.699-.78146 4.241-.78146 1.564 0 2.99.25964 4.276.7751 1.283.51927 2.388 1.25745 3.31 2.21072.921.95837 1.636 2.10512 2.146 3.44912.507 1.3478.76 2.8356.76 4.4774zm-1.647 0c0-1.4916-.212-2.828-.637-4.0129-.424-1.19-1.023-2.1954-1.797-3.01889-.77-.82473-1.702-1.45855-2.79-1.89636-1.086-.43655-2.294-.65673-3.621-.65673-1.305 0-2.498.22018-3.583.65673-1.08.43781-2.012 1.07163-2.796 1.89636-.784.82349-1.388 1.83019-1.818 3.01889-.43 1.1849-.645 2.5213-.645 4.0129 0 1.498.215 2.8369.645 4.0206.43 1.1836 1.034 2.1852 1.818 3.0087.784.8273 1.716 1.456 2.796 1.8875 1.085.434 2.278.6516 3.583.6516 1.327 0 2.535-.2176 3.621-.6516 1.088-.4328 2.02-1.0602 2.79-1.8875.774-.8235 1.373-1.8264 1.797-3.0087.425-1.1824.637-2.5226.637-4.0206z" opacity=".8"/><path d="m208.84 18.6126c.19.4123.374.8374.551 1.2714.174-.448.363-.8743.558-1.2943.197-.4175.4-.8248.61-1.2155l5.812-11.11981c.105-.19473.209-.34109.317-.44673.11-.10564.231-.18454.366-.23418.133-.05091.287-.07382.458-.07382h.599 4.01v21.97234h-4.631v-12.6471c0-.6109.033-1.2778.092-1.9918l-6.001 11.3044c-.185.3538-.435.6172-.752.798-.315.1845-.674.2723-1.08.2723h-.715c-.402 0-.763-.0878-1.077-.2723-.32-.1808-.572-.4442-.755-.798l-6.032-11.3209c.04.3551.072.7025.094 1.0487.021.3475.03.6656.03.9584v12.647h-4.631v-21.97104h4.01.599c.169 0 .322.02291.456.07382.136.05091.258.12854.366.23418.11.10564.215.252.319.44673l5.827 11.16561c.208.3844.408.7789.6 1.1926zm22.762 8.8594h-5.286v-21.98888h5.286zm7.54-21.95579c.156.01909.294.05472.419.11072.123.056.244.13237.358.23418.11.09928.244.23673.387.40728l10.757 13.20451c-.046-.42-.075-.8298-.094-1.2281-.02-.3984-.03-.7713-.03-1.1239v-11.63906h4.631v21.99016h-2.735c-.405 0-.747-.0598-1.026-.1769-.279-.1273-.551-.3449-.809-.6682l-10.677-13.1001c.03.3818.056.7598.077 1.1276.021.3653.03.7102.03 1.0322v11.7867h-4.631v-21.99146h2.767c.227 0 .42.01146.576.03437zm29.576 17.92889c.707 0 1.337-.1145 1.889-.3423.556-.2279 1.024-.5486 1.408-.9737.381-.4225.676-.9342.878-1.5463.202-.6084.304-1.3008.304-2.0771v-13.02386h5.254v13.02506c0 1.3517-.228 2.5888-.677 3.7151-.451 1.1238-1.098 2.0949-1.936 2.9108-.843.8183-1.861 1.4496-3.062 1.9014-1.203.4544-2.555.6809-4.061.6809-1.51 0-2.868-.2265-4.07-.6809-1.203-.4518-2.224-1.0844-3.059-1.9014-.843-.8159-1.482-1.787-1.931-2.9108-.445-1.1263-.668-2.3634-.668-3.7151v-13.02506h5.253v13.01236c0 .7738.103 1.4649.305 2.0758.201.6084.494 1.1277.875 1.5553.387.4276.852.7509 1.408.9787.557.2266 1.186.3411 1.89.3411zm29.597-17.96326v4.04473h-6.374v17.94543h-5.251v-17.94543h-6.374v-4.04473zm11.939-.70254c-6.474 0-11.741 5.11509-11.741 11.4011 0 6.2885 5.267 11.4062 11.741 11.4062 6.479 0 11.746-5.1177 11.746-11.4062 0-6.28601-5.267-11.4011-11.746-11.4011zm0 18.3553c-3.948 0-7.158-3.1169-7.158-6.9542 0-3.8322 3.21-6.95419 7.158-6.95419 3.951 0 7.161 3.12329 7.161 6.95419 0 3.8373-3.21 6.9542-7.161 6.9542zm3.911-6.3077h-3.848v-4.5907c0-.5562-.459-.9991-1.026-.9991-.568 0-1.027.4429-1.027.9991v5.6c0 .5422.454.9813 1.011.9813h4.889c.566 0 1.024-.4455 1.024-.994.001-.5524-.456-.9966-1.023-.9966z"/></g></svg>