<svg fill="none" height="30" viewBox="0 0 103 30" width="103" xmlns="http://www.w3.org/2000/svg" xmlns:xlink="http://www.w3.org/1999/xlink"><clipPath id="a"><path d="m.306641 0h102.095v30h-102.095z"/></clipPath><g clip-path="url(#a)" fill="#d5d6d7"><path d="m.306641 30v-30h20.934059v30zm17.904759-3.0221v-23.95599h-14.8903v23.95599z"/><path d="m35.1503 13.4556h-1.2951c-1.6975-2.4-3.3879-4.78538-5.0707-7.48528v7.48528h-1.4632v-10.44144h1.295c1.6976 2.38535 3.3878 4.7561 5.056 7.44154v-7.44154h1.4635v10.44144z"/><path d="m38.5456 9.32884c.4171-1.36828.8341-2.64151 1.2073-4.25114.4171 1.60973.7903 2.88286 1.1781 4.25114zm.6877-6.30733-3.6146 10.43409h1.5513l.9072-2.8463h3.1464l.8194 2.8463h1.9976l-3.3-10.44144h-1.4633z"/><path d="m45.7381 13.4561v-9.03655h-2.744v-1.39758h7.2587v1.39758h-2.7438v9.03655h-1.7927z"/><path d="m50.8604 13.4556v-10.44144h1.7779v10.44144z"/><path d="m58.148 12.1241c-1.8657 0-2.5244-2.0561-2.5244-4.0537 0-1.99759.7318-3.76097 2.5244-3.76097 1.7928 0 2.5172 1.83668 2.5172 3.76097 0 1.92449-.6513 4.0537-2.5172 4.0537zm0 1.4634c2.7293 0 4.4268-2.4291 4.4268-5.5463 0-2.92675-1.8805-5.2536-4.4268-5.2536-2.5462 0-4.4268 2.32685-4.4268 5.2536 0 3.1609 1.6977 5.5976 4.4268 5.5976z"/><path d="m71.4722 13.4556h-1.2952c-1.6974-2.4-3.3878-4.78538-5.0706-7.48528v7.48528h-1.4633v-10.44144h1.295c1.6976 2.38535 3.3879 4.7561 5.056 7.44154v-7.44154h1.4634v10.44144z"/><path d="m74.8892 9.3293c.4172-1.36828.8343-2.64151 1.2073-4.25114.4171 1.60974.7901 2.88286 1.1782 4.25114h-2.4148zm.6878-6.30733-3.6073 10.44143h1.5513l.9073-2.8464h3.1463l.8194 2.8464h1.9976l-3.3293-10.44143h-1.4634z"/><path d="m80.9111 3.01416h1.7782v9.03654h3.5341v1.4049h-5.3123z"/><path d="m34.0455 22.1905v4.3096c-.9415.3976-1.9489.6159-2.9705.644-3.0733 0-5.0125-2.3854-5.0125-5.4585 0-2.8465 1.9392-5.3414 5.0709-5.3414.906.005 1.789.2858 2.5317.8049l-.5781 1.2365c-.5781-.3457-1.2362-.5346-1.9095-.5486-1.9099 0-3.2051 1.5073-3.2051 3.8779 0 2.3707 1.4633 3.9366 3.0294 3.9366.4317.0187.8614-.0694 1.251-.2561v-3.2049z"/><path d="m40.4484 17.9261h-2.9854v2.8612h2.9268v1.4049h-2.9268v3.3731h3.5195v1.4048h-5.3121v-10.4559h4.7708v1.4048z"/><path d="m45.9652 25.6534c-1.8658 0-2.517-2.0562-2.517-4.0536 0-1.9976.7317-3.7611 2.517-3.7611 1.7854 0 2.5245 1.8366 2.5245 3.7611-.0001 1.9243-.6586 4.0536-2.5245 4.0536zm0 1.4634c2.7292 0 4.4269-2.4293 4.4269-5.5463 0-2.9268-1.8805-5.2536-4.4269-5.2536-2.5461 0-4.4266 2.3268-4.4266 5.2536 0 3.1463 1.6974 5.5755 4.4266 5.5755z"/><path d="m58.9894 22.1925v4.3096c-.9416.3976-1.9491.6158-2.9708.6439-3.0732 0-5.0123-2.3853-5.0123-5.4584 0-2.8465 1.9391-5.3414 5.0709-5.3414.906.005 1.7889.2858 2.5316.8048l-.5779 1.2366c-.5783-.3457-1.2365-.5347-1.9099-.5487-1.9097 0-3.2049 1.5074-3.2049 3.878s1.4635 3.9366 3.0293 3.9366c.4318.0187.8615-.0694 1.2513-.2562v-3.2048z"/><path d="m62.4211 17.9266h.7903c.8324-.0824 1.574.5256 1.6565 1.3582.0107.1081.0098.217-.0028.3248.1317 1.0059-.577 1.9279-1.5828 2.0595-.038.0049-.0763.0088-.1148.0113l-.7317.0439v-3.805zm4.5367 9.0368-2.0708-4.3244c1.1255-.6248 1.819-1.8152 1.8074-3.1025 0-2.0269-1.2367-3.0145-3.2342-3.0145h-2.7878v10.4414h1.7927v-3.9367h.8049l1.6827 3.9367h2.0417z"/><path d="m69.9068 22.8361c.4171-1.3683.8341-2.6415 1.2074-4.2513.417 1.6098.7901 2.8756 1.1778 4.2513h-2.4144zm.6877-6.3219-3.6072 10.4413h1.5586l.9073-2.8465h3.1461l.8195 2.8465h1.9976l-3.3292-10.4413h-1.4633z"/><path d="m78.7893 16.5142h-2.7878v10.4413h1.7927v-3.9293h.805c1.883.0127 3.4199-1.5037 3.4324-3.3868.0005-.0345 0-.069-.0008-.1034-.0293-2.0269-1.266-3.0218-3.2415-3.0218zm-.2562 5.1583-.7317.0439v-3.7974h.8049c.8332-.0742 1.5689.541 1.6433 1.3741.0092.1029.0076.2063-.0042.3087.1347 1.0095-.5743 1.937-1.5838 2.0716-.0499.0067-.1.0113-.1503.0139z"/><path d="m90.299 26.963h-1.7927v-5.0269h-3.7171v5.0269h-1.778v-10.4488h1.778v4.0095h3.7171v-3.9804h1.7927v10.4122z"/><path d="m92.0112 26.963v-10.4488h1.778v10.4413h-1.778z"/><path d="m101.838 18.4169c-.551-.3488-1.184-.548-1.836-.5779-1.8224 0-3.1467 1.5071-3.1467 3.8777 0 2.3707 1.4636 3.9367 3.1907 3.9367.634-.0016 1.255-.1815 1.792-.5194l.491 1.2951c-.703.4562-1.519.7093-2.3564.7317-3.0733 0-5.0122-2.3854-5.0122-5.4587 0-2.8462 1.9243-5.3413 5.0416-5.3413.861.0268 1.696.3067 2.4.805z"/></g></svg>