<svg fill="none" height="24" viewBox="0 0 95 24" width="95" xmlns="http://www.w3.org/2000/svg"><g fill="#d5d6d7"><path d="m27.8472.104197c-5.4684.039096-9.9414 6.116823-9.9414 11.418003 0 5.5786 3.2789 12.3836 9.9414 12.3615 6.6625-.022 10.1206-7.3482 10.1206-12.3615 0-5.53755-4.6522-11.4570992-10.1206-11.418003zm0 .20793c4.5768 0 5.8116 5.054783 5.8116 11.210073 0 8.1218-1.4895 12.1287-5.8116 12.121-4.3222-.0076-5.7283-3.2871-5.7283-12.121 0-5.53376 1.1514-11.210073 5.7283-11.210073z"/><path d="m39.773 11.6722c-.0245-6.0319 4.8032-11.375013 8.8898-11.64011 1.4762-.1045797 3.3737.571404 4.4814 1.05295.8044.34967 2.4465-.156467 2.7381-1.08504h.159v8.21661h-.159c0-.35028-1.5217-7.977941-7.2195-7.977941-4.2086 0-4.6151 7.400241-4.6151 11.433531 0 4.0333.1226 12.0179 5.0338 12.0179 2.3792 0 4.1402-1.0409 4.5967-3.1466v-6.4029h-1.997v-.2727h7.7407v.2727h-1.9092v9.3609h-.1554s-.3104-1.3506-1.8854-1.3461c-2.0131.0057-3.9115 1.7546-6.2257 1.7333-6.1201-.0563-9.4486-6.1846-9.4732-12.2165z"/><path d="m2.89263.913505h-2.410208v-.270927h8.443078v.270927h-2.11816l6.03276 16.383195c1.8865-5.8079 3.3479-10.10109 5.3146-16.383195h-2.0951v-.270927h4.458v.270927h-2.0301l-7.3323 22.857695z"/><path d="m60.6043 18.1752-.0382-17.287822h-2.2941v-.25896h8.4521v.25896h-2.2928l.0509 18.955222c.5076 2.1705 1.41 3.8174 4.4931 3.8419 3.0831.0246 5.179-1.8238 5.958-4.3498v-18.447322h-2.6245v-.251332h21.4804l.0447 8.298854h-.2064c-.3984-5.35826-2.4659-7.3833-6.0818-7.974072-1.2442-.203288-2.5495-.052588-4.1997-.065416v10.591488c1.437.111 2.9676.0202 3.9991-.8657.938-.80563 1.2031-2.66697 1.2721-3.42315h.1816v9.22195h-.1966c-.0567 0-.1322-2.3142-1.2571-3.4122-1.1323-1.1051-2.5742-1.3768-3.9991-1.1135v11.314c2.0127 0 3.6171.1705 5.0104-.2115 4.2352-1.1611 5.7261-4.7341 5.7147-8.3178h.2355v8.7972h-16.8487v-.2679h1.9051v-22.320922h-4.1161v18.447322c-.4665 1.7651-2.1716 4.6852-6.5413 4.6652-4.0629-.0185-8.0925-1.8502-8.1013-5.8247z"/></g></svg>