<svg width="24" height="24" viewBox="0 0 24 24" fill="none" xmlns="http://www.w3.org/2000/svg">
<path fill-rule="evenodd" clip-rule="evenodd" d="M16.9499 18.364C17.3404 18.7545 17.9736 18.7545 18.3641 18.364C18.7546 17.9734 18.7546 17.3403 18.3641 16.9497L13.4143 12L18.3641 7.05025C18.7546 6.65973 18.7546 6.02656 18.3641 5.63604C17.9736 5.24551 17.3404 5.24551 16.9499 5.63604L12.0001 10.5858L7.05037 5.63603C6.65985 5.24551 6.02668 5.24551 5.63616 5.63603C5.24563 6.02656 5.24563 6.65972 5.63616 7.05025L10.5859 12L5.63615 16.9497C5.24563 17.3403 5.24563 17.9734 5.63615 18.364C6.02668 18.7545 6.65984 18.7545 7.05037 18.364L12.0001 13.4142L16.9499 18.364Z" fill="#1D2832"/>
</svg>
