<svg width="24" height="25" viewBox="0 0 24 25" fill="none" xmlns="http://www.w3.org/2000/svg">
<g opacity="0.5">
<path fill-rule="evenodd" clip-rule="evenodd" d="M2.52044 6.14653C2.639 5.43827 3.25991 4.89258 4.00004 4.89258H20C20.7402 4.89258 21.3611 5.43827 21.4796 6.14653L12 12.7823L2.52044 6.14653ZM1.50006 6.3847C1.49999 6.38937 1.49998 6.39404 1.50004 6.3987V18.3926C1.50004 19.7687 2.6239 20.8926 4.00004 20.8926H20C21.3762 20.8926 22.5 19.7687 22.5 18.3926V6.39883M21.5 7.35291V18.3926C21.5 19.2164 20.8239 19.8926 20 19.8926H4.00004C3.17619 19.8926 2.50004 19.2164 2.50004 18.3926V7.35291L11.7133 13.8022C11.8855 13.9227 12.1146 13.9227 12.2868 13.8022L21.5 7.35291ZM22.5 6.38456C22.4957 5.01207 21.3735 3.89258 20 3.89258H4.00004C2.62653 3.89258 1.50433 5.01215 1.50006 6.3847" fill="white"/>
</g>
</svg>
