<svg width="68" height="20" viewBox="0 0 68 20" fill="none" xmlns="http://www.w3.org/2000/svg">
<path d="M5.74756 0.463623C7.94756 0.463623 9.38445 0.993401 10.3422 2.16362C11.3004 3.35562 11.7436 5.05518 11.7436 7.43918C11.7436 14.5916 7.30889 14.8787 4.87867 14.8787H0V14.0841C1.15289 14.0174 1.29511 13.9294 1.29511 12.8698V2.49473C1.29511 1.41296 1.13511 1.30273 0 1.25829V0.463623H5.74756ZM4.20444 13.1347C4.20444 13.6645 4.39956 13.9072 5.39289 13.9072C6.972 13.9072 8.56844 13.0907 8.56844 7.54985C8.56844 3.44362 7.37956 1.43518 5.32178 1.43518C4.364 1.43518 4.20444 1.5454 4.20444 1.94273V13.1347Z" fill="#1D2832"/>
<path d="M14.8478 9.69099C14.8478 11.8541 15.4332 13.4879 17.0301 13.4879C18.0229 13.4879 18.7327 12.8697 19.2296 11.6994L19.8327 12.119C19.2647 13.9732 18.1652 15.1434 16.1781 15.1434C13.0203 15.1657 12.0625 12.5825 12.0625 9.77899C12.0625 6.88743 13.1625 4.43677 16.2136 4.43677C19.4598 4.43677 19.9745 7.01988 19.9745 8.78566C19.9745 9.4701 19.6905 9.69099 19.0518 9.69099H14.8478ZM16.7989 8.65321C17.1896 8.65321 17.3136 8.56521 17.3136 7.96877C17.3136 6.95366 17.1181 5.40832 16.1781 5.40832C15.1847 5.40832 14.8301 7.06388 14.8301 8.65321H16.7989Z" fill="#1D2832"/>
<path d="M28.5954 13.0905C28.5954 13.9292 28.7377 14.0177 29.6603 14.0839V14.8785H25.119V14.0839C25.5977 14.0172 25.9528 14.1061 25.9528 13.267V7.87988C25.9528 6.73232 25.5092 6.09232 24.6932 6.09232C24.019 6.09232 23.5932 6.53366 23.4159 7.04121C23.2915 7.32832 23.2381 7.83588 23.2381 8.27766V13.1781C23.2381 14.0172 23.5932 14.0172 24.0723 14.0834V14.8781H19.5483V14.0834C20.4532 14.0168 20.595 13.951 20.595 13.1341V7.01988C20.595 6.18077 20.4532 5.9821 20.2226 5.96032L19.6372 5.84966V5.07721L23.0257 4.45899L23.2386 5.8501C24.3559 5.05499 25.1541 4.43677 26.0768 4.43677C27.815 4.43677 28.5959 5.69543 28.5959 7.61588L28.5954 13.0905Z" fill="#1D2832"/>
<path d="M32.3741 5.76186V11.6774C32.3741 13.0241 32.8177 13.5543 33.403 13.5543C33.5448 13.5543 33.8817 13.4876 34.1124 13.3556L34.2901 14.0179C33.2964 14.7903 32.4804 15.1436 31.8061 15.1436C30.8306 15.1436 29.7306 14.2827 29.7306 12.4281V5.76141H28.791V4.7023H29.8199L31.3457 2.09741H32.3746V4.70186H34.0599V5.76186H32.3741Z" fill="#1D2832"/>
<path d="M35.6028 7.02C35.6028 6.18089 35.4606 5.98222 35.2126 5.96044L34.6446 5.84978V5.07733L38.1219 4.45911L38.2459 4.59156V13.0907C38.2459 13.9293 38.3881 14.0178 39.3103 14.084V14.8787H34.5557V14.084C35.4601 14.0173 35.6023 13.9293 35.6023 13.0907L35.6028 7.02ZM36.8446 0C37.7668 0 38.2814 0.838667 38.2814 1.788C38.2814 2.78133 37.7317 3.62044 36.8268 3.62044C35.8868 3.62044 35.3899 2.78133 35.3899 1.788C35.3899 0.838667 35.8868 0 36.8268 0H36.8446Z" fill="#1D2832"/>
<path d="M44.6138 7.94655C44.2591 6.33543 43.4787 5.40832 42.6982 5.40832C42.024 5.40832 41.6693 5.9821 41.6693 6.5781C41.6693 7.35099 42.3964 7.85855 43.4253 8.34432C45.0573 9.11677 45.8204 9.95588 45.8204 11.6777C45.8204 13.9954 44.348 15.1434 42.2902 15.1434C41.3675 15.1434 40.1258 14.8785 39.4871 14.1501L39.292 10.9932H39.9307C40.3742 12.6932 41.2964 14.1719 42.3609 14.1719C43.0707 14.1719 43.4964 13.7305 43.4964 12.9799C43.4964 12.075 42.5916 11.5008 41.7933 11.1257C39.984 10.2208 39.3631 9.31543 39.3631 7.81455C39.3631 5.69543 40.6227 4.43677 42.6982 4.43677C43.5671 4.43677 44.5427 4.63543 45.2347 5.16566V7.94699L44.6138 7.94655Z" fill="#1D2832"/>
<path d="M49.084 5.76186V11.6774C49.084 13.0241 49.5276 13.5543 50.1129 13.5543C50.2552 13.5543 50.592 13.4876 50.8227 13.3556L51 14.0179C50.0067 14.7903 49.1907 15.1436 48.5165 15.1436C47.5405 15.1436 46.4409 14.2827 46.4409 12.4281V5.76141H45.5005V4.7023H46.5294L48.0552 2.09741H49.084V4.70186H50.7694V5.76186H49.084Z" fill="#1D2832"/>
<path d="M54.7782 13.0905C54.7782 13.9292 54.9382 13.9954 56.1799 14.0839V14.8785H51.0884V14.0839C51.9933 14.0172 52.135 13.9292 52.135 13.0905V7.01943C52.135 6.18077 51.9928 5.9821 51.7626 5.96032L51.1773 5.84966V5.07721L54.5297 4.45899L54.7253 6.29143C55.6831 5.03277 56.215 4.43677 56.9426 4.43677C57.6519 4.43677 58.1488 5.01099 58.1488 5.96032C58.1488 6.82121 57.723 7.83632 56.907 7.83632C56.5702 7.83632 56.3746 7.59366 56.1622 7.39499C55.8426 7.10788 55.5942 6.90921 55.3279 6.90921C54.9382 6.90921 54.7782 7.43899 54.7782 8.45455V13.0905Z" fill="#1D2832"/>
<path d="M67.8703 4.70215V5.51859C66.9476 5.62926 66.8943 5.87193 66.5396 6.9537C65.7769 9.3377 64.7125 13.0244 63.7543 16.1808C62.8498 19.139 62.0872 19.9999 60.8627 19.9999C60.2423 19.9999 59.4969 19.5141 59.4969 18.6755C59.4969 17.8586 60.0645 16.9093 60.6143 16.9093C60.9165 16.9093 61.0756 17.0639 61.4129 17.3728C61.5903 17.5497 61.8032 17.6599 61.9983 17.6599C62.3178 17.6599 62.4596 17.439 62.6369 16.931C62.7614 16.5564 62.6369 15.7835 62.5125 15.3639C61.5547 12.3399 60.1712 8.38837 59.4614 6.4457C59.1245 5.58482 59.0001 5.65104 58.2729 5.51859V4.70215H63.0805V5.51859L62.4418 5.65104C62.2107 5.69548 62.1401 5.91593 62.2463 6.33548C62.7787 8.21193 63.5592 10.3533 64.0916 12.0528H64.1272C64.6236 10.2208 65.1561 8.1017 65.5463 6.24704C65.6174 5.87193 65.5107 5.67326 65.2978 5.65148L64.4818 5.51859V4.70215H67.8703Z" fill="#1D2832"/>
</svg>
