<svg width="24" height="25" viewBox="0 0 24 25" fill="none" xmlns="http://www.w3.org/2000/svg">
<g opacity="0.5">
<path d="M21.9999 17.3127V20.3127C22.0011 20.5912 21.944 20.8668 21.8324 21.122C21.7209 21.3772 21.5572 21.6063 21.352 21.7945C21.1468 21.9828 20.9045 22.1262 20.6407 22.2154C20.3769 22.3046 20.0973 22.3377 19.8199 22.3127C16.7428 21.9783 13.7869 20.9268 11.1899 19.2427C8.77376 17.7073 6.72527 15.6588 5.18993 13.2427C3.49991 10.6339 2.44818 7.66367 2.11993 4.57267C2.09494 4.29614 2.12781 4.01744 2.21643 3.7543C2.30506 3.49116 2.4475 3.24936 2.6347 3.0443C2.82189 2.83923 3.04974 2.67538 3.30372 2.5632C3.55771 2.45101 3.83227 2.39294 4.10993 2.39268H7.10993C7.59524 2.3879 8.06572 2.55975 8.43369 2.87621C8.80166 3.19266 9.04201 3.63212 9.10993 4.11268C9.23656 5.07274 9.47138 6.0154 9.80993 6.92268C9.94448 7.2806 9.9736 7.66959 9.89384 8.04356C9.81408 8.41752 9.6288 8.76079 9.35993 9.03268L8.08993 10.3027C9.51349 12.8062 11.5864 14.8791 14.0899 16.3027L15.3599 15.0327C15.6318 14.7638 15.9751 14.5785 16.3491 14.4988C16.723 14.419 17.112 14.4481 17.4699 14.5827C18.3772 14.9212 19.3199 15.1561 20.2799 15.2827C20.7657 15.3512 21.2093 15.5959 21.5265 15.9702C21.8436 16.3445 22.0121 16.8223 21.9999 17.3127Z" stroke="white" stroke-linecap="round" stroke-linejoin="round"/>
</g>
</svg>
