<svg width="24" height="25" viewBox="0 0 24 25" fill="none" xmlns="http://www.w3.org/2000/svg">
<g opacity="0.5">
<path fill-rule="evenodd" clip-rule="evenodd" d="M1.5 12.3926C1.5 6.59359 6.20101 1.89258 12 1.89258C17.799 1.89258 22.5 6.59359 22.5 12.3926C22.5 18.1916 17.799 22.8926 12 22.8926C6.20101 22.8926 1.5 18.1916 1.5 12.3926ZM2.83238 9.89258C2.61567 10.6891 2.5 11.5274 2.5 12.3926C2.5 13.2578 2.61567 14.096 2.83238 14.8926H7.6562C7.55636 14.1253 7.5 13.2933 7.5 12.3926C7.5 11.4919 7.55636 10.6598 7.6562 9.89258H2.83238ZM3.16551 8.89258H7.81684C8.20127 6.89391 8.88456 5.3954 9.57886 4.31055C9.92282 3.77311 10.2681 3.33942 10.5783 2.99824C7.1924 3.50633 4.39121 5.80136 3.16551 8.89258ZM12 3.01606C11.9199 3.08181 11.8244 3.16448 11.717 3.26516C11.369 3.5914 10.8965 4.1068 10.4211 4.84961C9.81702 5.79353 9.20263 7.11323 8.83643 8.89258H15.1636C14.7974 7.11323 14.183 5.79353 13.5789 4.84961C13.1035 4.1068 12.631 3.5914 12.283 3.26516C12.1756 3.16448 12.0801 3.08181 12 3.01606ZM15.3349 9.89258H8.66514C8.56016 10.652 8.5 11.4837 8.5 12.3926C8.5 13.3015 8.56016 14.1332 8.66514 14.8926L15.3349 14.8926C15.4398 14.1332 15.5 13.3015 15.5 12.3926C15.5 11.4837 15.4398 10.652 15.3349 9.89258ZM16.3438 14.8926C16.4436 14.1253 16.5 13.2933 16.5 12.3926C16.5 11.4919 16.4436 10.6598 16.3438 9.89258H21.1676C21.3843 10.6891 21.5 11.5274 21.5 12.3926C21.5 13.2578 21.3843 14.096 21.1676 14.8926H16.3438ZM15.1636 15.8926L8.83643 15.8926C9.20263 17.6719 9.81702 18.9916 10.4211 19.9356C10.8965 20.6784 11.369 21.1938 11.717 21.52C11.8244 21.6207 11.9199 21.7033 12 21.7691C12.0801 21.7033 12.1756 21.6207 12.283 21.52C12.631 21.1938 13.1035 20.6784 13.5789 19.9356C14.183 18.9916 14.7974 17.6719 15.1636 15.8926ZM10.5783 21.7869C10.2681 21.4457 9.92282 21.012 9.57886 20.4746C8.88456 19.3898 8.20127 17.8912 7.81684 15.8926H3.16551C4.39121 18.9838 7.1924 21.2788 10.5783 21.7869ZM13.4217 21.7869C13.7319 21.4457 14.0772 21.012 14.4211 20.4746C15.1154 19.3898 15.7987 17.8912 16.1832 15.8926H20.8345C19.6088 18.9838 16.8076 21.2788 13.4217 21.7869ZM20.8345 8.89258H16.1832C15.7987 6.89391 15.1154 5.3954 14.4211 4.31055C14.0772 3.77311 13.7319 3.33942 13.4217 2.99824C16.8076 3.50633 19.6088 5.80136 20.8345 8.89258Z" fill="white"/>
</g>
</svg>
