<svg width="24" height="25" viewBox="0 0 24 25" fill="none" xmlns="http://www.w3.org/2000/svg">
<g opacity="0.5">
<path d="M2.00401 22.3926L3.35601 17.4246C2.46515 15.8974 1.99711 14.1606 2.00001 12.3926C2.00001 6.86958 6.47701 2.39258 12 2.39258C17.523 2.39258 22 6.86958 22 12.3926C22 17.9156 17.523 22.3926 12 22.3926C10.2328 22.3954 8.49667 21.9277 6.97001 21.0376L2.00401 22.3926ZM8.39101 7.70058C8.26188 7.7086 8.13569 7.74261 8.02001 7.80058C7.91153 7.86201 7.81251 7.9388 7.72601 8.02858C7.60601 8.14158 7.53801 8.23958 7.46501 8.33458C7.09542 8.81557 6.89662 9.406 6.90001 10.0126C6.90201 10.5026 7.03001 10.9796 7.23001 11.4256C7.63901 12.3276 8.31201 13.2826 9.20101 14.1676C9.41501 14.3806 9.62401 14.5946 9.84901 14.7936C10.9524 15.765 12.2673 16.4656 13.689 16.8396L14.258 16.9266C14.443 16.9366 14.628 16.9226 14.814 16.9136C15.1053 16.8985 15.3896 16.8197 15.647 16.6826C15.778 16.6151 15.9058 16.5417 16.03 16.4626C16.03 16.4626 16.073 16.4346 16.155 16.3726C16.29 16.2726 16.373 16.2016 16.485 16.0846C16.568 15.9986 16.64 15.8976 16.695 15.7826C16.773 15.6196 16.851 15.3086 16.883 15.0496C16.907 14.8516 16.9 14.7436 16.897 14.6766C16.893 14.5696 16.804 14.4586 16.707 14.4116L16.125 14.1506C16.125 14.1506 15.255 13.7716 14.724 13.5296C14.668 13.5052 14.608 13.4913 14.547 13.4886C14.4786 13.4816 14.4095 13.4892 14.3443 13.5112C14.2791 13.5331 14.2193 13.5687 14.169 13.6156V13.6136C14.164 13.6136 14.097 13.6706 13.374 14.5466C13.3325 14.6023 13.2754 14.6445 13.2098 14.6676C13.1443 14.6908 13.0733 14.6939 13.006 14.6766C12.9409 14.6592 12.877 14.6371 12.815 14.6106C12.691 14.5586 12.648 14.5386 12.563 14.5016L12.558 14.4996C11.9859 14.2498 11.4562 13.9124 10.988 13.4996C10.862 13.3896 10.745 13.2696 10.625 13.1536C10.2316 12.7768 9.88873 12.3506 9.60501 11.8856L9.54601 11.7906C9.50364 11.7267 9.46937 11.6579 9.44401 11.5856C9.40601 11.4386 9.50501 11.3206 9.50501 11.3206C9.50501 11.3206 9.74801 11.0546 9.86101 10.9106C9.9551 10.7909 10.0429 10.6664 10.124 10.5376C10.242 10.3476 10.279 10.1526 10.217 10.0016C9.93701 9.31758 9.64701 8.63658 9.34901 7.96058C9.29001 7.82658 9.11501 7.73058 8.95601 7.71158C8.90201 7.70558 8.84801 7.69958 8.79401 7.69558C8.65972 7.68891 8.52515 7.69124 8.39101 7.70058Z" stroke="white"/>
</g>
</svg>
