<svg width="172" height="22" viewBox="0 0 172 22" fill="none" xmlns="http://www.w3.org/2000/svg">
<g clip-path="url(#clip0_356_4107)">
<path d="M11.1 13.6H3.9V15.6C3.9 17.1 4.1 18.1 4.6 18.8C5.1 19.5 5.8 19.8 6.8 19.8C7.8 19.8 8.6 19.4 9.4 18.7C10.1 18 10.7 17 11 15.8H11.4C11.1 17.2 10.5 18.4 9.6 19.2C8.7 20 7.6 20.4 6.2 20.4C4.4 20.4 2.9 19.8 1.7 18.6C0.5 17.4 0 15.9 0 14.1C0 12.4 0.6 11 1.7 9.8C2.8 8.6 4.2 8 5.8 8C7.3 8 8.5 8.5 9.5 9.6C10.6 10.6 11.1 11.9 11.1 13.6ZM7.3 13.2V11.2C7.3 10.1 7.2 9.3 6.9 8.9C6.6 8.6 6.2 8.4 5.6 8.4C4.9 8.4 4.5 8.6 4.3 9C4 9.4 3.9 10.2 3.9 11.5V13.2H7.3Z" fill="#1D2832"/>
<path d="M13.9008 1.8H12.4008V1.3H14.6008C15.3008 1.3 15.9008 1.3 16.4008 1.2C16.8008 1.1 17.2008 1.1 17.6008 1V19.6H19.2008V20H12.3008V19.6H13.9008V1.8Z" fill="#1D2832"/>
<path d="M20 20V19.6H22.2V1.80005H20V1.30005H34.8V6.40005H34.4C34.2 4.70005 33.7 3.50005 32.9 2.80005C32.1 2.10005 30.8 1.70005 28.9 1.70005H26.3V9.90005H27.8C28.7 9.90005 29.4 9.60005 29.9 9.00005C30.4 8.40005 30.7 7.50005 30.7 6.40005V6.10005H31.1V14.2H30.7V14C30.7 12.9 30.5 12 30 11.3C29.4 10.7 28.8 10.4 27.9 10.4H26.4V19.6H29.1C31.3 19.6 32.8 19.2 33.8 18.3C34.7 17.4 35.2 16 35.2 14H35.6V20H20Z" fill="#1D2832"/>
<path d="M48.2008 16.3H48.6008C48.4008 17.6 47.8008 18.6 47.0008 19.3C46.2008 20 45.1008 20.3 43.7008 20.3C41.9008 20.3 40.4008 19.7 39.1008 18.5C37.9008 17.3 37.3008 15.9 37.3008 14.2C37.3008 13.3 37.5008 12.4 37.9008 11.6C38.3008 10.8 38.9008 10.1 39.6008 9.40005C40.2008 8.90005 40.9008 8.50005 41.6008 8.20005C42.3008 7.90005 43.1008 7.80005 43.8008 7.80005C45.2008 7.80005 46.3008 8.10005 47.1008 8.70005C47.9008 9.30005 48.4008 10.1 48.4008 11C48.4008 11.5 48.2008 12 47.9008 12.3C47.6008 12.6 47.2008 12.8 46.6008 12.8C46.0008 12.8 45.6008 12.6 45.3008 12.3C45.0008 12 44.8008 11.6 44.8008 11C44.8008 10.6 45.0008 10.2 45.3008 9.80005C45.6008 9.50005 45.8008 9.30005 45.8008 9.30005C45.8008 9.00005 45.6008 8.80005 45.3008 8.70005C44.9008 8.50005 44.5008 8.40005 43.9008 8.40005C42.9008 8.40005 42.3008 8.70005 41.9008 9.30005C41.5008 9.90005 41.3008 11 41.3008 12.7V15.3C41.3008 17 41.5008 18.2 41.9008 18.9C42.3008 19.6 43.1008 19.9 44.1008 19.9C45.1008 19.9 45.9008 19.6 46.7008 18.9C47.4008 18.3 47.9008 17.4 48.2008 16.3Z" fill="#1D2832"/>
<path d="M49.8008 14.2C49.8008 13.4 50.0008 12.6 50.3008 11.8C50.6008 11 51.1008 10.3 51.8008 9.7C52.4008 9.1 53.1008 8.7 53.8008 8.4C54.5008 8.1 55.3008 8 56.1008 8C56.9008 8 57.7008 8.1 58.5008 8.4C59.2008 8.7 59.9008 9.1 60.5008 9.7C61.2008 10.3 61.7008 11 62.0008 11.8C62.3008 12.6 62.5008 13.4 62.5008 14.2C62.5008 15 62.3008 15.8 62.0008 16.6C61.7008 17.4 61.2008 18 60.5008 18.7C59.9008 19.3 59.2008 19.7 58.5008 20C57.8008 20.3 57.0008 20.4 56.2008 20.4C54.4008 20.4 52.9008 19.8 51.7008 18.6C50.4008 17.3 49.8008 15.9 49.8008 14.2ZM58.5008 15.7V12.6C58.5008 10.9 58.3008 9.8 58.0008 9.2C57.6008 8.6 57.0008 8.4 56.1008 8.4C55.2008 8.4 54.6008 8.7 54.2008 9.2C53.8008 9.8 53.7008 10.9 53.7008 12.6V15.7C53.7008 17.4 53.9008 18.5 54.2008 19.1C54.6008 19.7 55.2008 19.9 56.1008 19.9C57.0008 19.9 57.6008 19.6 58.0008 19.1C58.3008 18.5 58.5008 17.4 58.5008 15.7Z" fill="#1D2832"/>
<path d="M68.7004 19.5999H70.3004V19.9999H63.4004V19.5999H65.0004V8.6999H63.4004V8.2999H65.6004C66.3004 8.2999 66.8004 8.2999 67.3004 8.1999C67.8004 8.0999 68.2004 8.0999 68.6004 7.8999V10.4999C69.1004 9.5999 69.7004 8.9999 70.5004 8.5999C71.2004 8.1999 72.1004 7.8999 73.0004 7.8999C74.2004 7.8999 75.1004 8.1999 75.8004 8.7999C76.5004 9.3999 76.8004 10.2999 76.8004 11.3999V19.5999H78.4004V19.9999H71.6004V19.5999H73.1004V10.8999C73.1004 10.0999 73.0004 9.5999 72.8004 9.2999C72.6004 8.9999 72.2004 8.8999 71.7004 8.8999C70.9004 8.8999 70.2004 9.1999 69.6004 9.8999C69.0004 10.5999 68.8004 11.4999 68.8004 12.4999V19.5999H68.7004Z" fill="#1D2832"/>
<path d="M79.3008 14.2C79.3008 13.4 79.5008 12.6 79.8008 11.8C80.1008 11 80.6008 10.3 81.3008 9.7C81.9008 9.1 82.6008 8.7 83.3008 8.4C84.0008 8.1 84.8008 8 85.6008 8C86.4008 8 87.2008 8.1 88.0008 8.4C88.7008 8.7 89.4008 9.1 90.0008 9.7C90.7008 10.3 91.2008 11 91.5008 11.8C91.8008 12.6 92.0008 13.4 92.0008 14.2C92.0008 15 91.8008 15.8 91.5008 16.6C91.2008 17.4 90.7008 18 90.0008 18.7C89.4008 19.3 88.7008 19.7 88.0008 20C87.3008 20.3 86.5008 20.4 85.7008 20.4C83.9008 20.4 82.4008 19.8 81.2008 18.6C79.9008 17.3 79.3008 15.9 79.3008 14.2ZM88.1008 15.7V12.6C88.1008 10.9 87.9008 9.8 87.6008 9.2C87.2008 8.6 86.6008 8.4 85.7008 8.4C84.8008 8.4 84.2008 8.7 83.8008 9.2C83.4008 9.8 83.3008 10.9 83.3008 12.6V15.7C83.3008 17.4 83.5008 18.5 83.8008 19.1C84.2008 19.7 84.8008 19.9 85.7008 19.9C86.6008 19.9 87.2008 19.6 87.6008 19.1C87.9008 18.5 88.1008 17.4 88.1008 15.7Z" fill="#1D2832"/>
<path d="M108.9 20V19.6H110.4V10.9C110.4 10.1 110.3 9.60005 110.1 9.30005C109.9 9.00005 109.5 8.90005 109 8.90005C108.2 8.90005 107.5 9.20005 106.9 9.90005C106.4 10.6 106.1 11.5 106.1 12.5V19.6H107.6V20H100.9V19.6H102.4V10.9C102.4 10.1 102.3 9.60005 102.1 9.30005C101.9 9.00005 101.5 8.90005 101 8.90005C100.2 8.90005 99.5004 9.20005 98.9004 9.90005C98.4004 10.6 98.1004 11.5 98.1004 12.5V19.6H99.6004V20H92.9004V19.6H94.5004V8.70005H92.9004V8.30005H95.0004C95.6004 8.30005 96.2004 8.30005 96.6004 8.20005C97.1004 8.10005 97.5004 8.10005 97.9004 7.90005V10.5C98.4004 9.60005 99.0004 9.00005 99.7004 8.50005C100.4 8.10005 101.2 7.80005 102.1 7.80005C103.1 7.80005 103.9 8.00005 104.6 8.50005C105.3 9.00005 105.7 9.60005 105.8 10.4C106.3 9.60005 106.9 8.90005 107.6 8.50005C108.3 8.10005 109.1 7.80005 110 7.80005C111.2 7.80005 112.1 8.10005 112.8 8.70005C113.5 9.30005 113.8 10.2 113.8 11.3V19.5H115.3V19.9H108.9V20Z" fill="#1D2832"/>
<path d="M118 8.7H116.4V8.3H118.6C119.2 8.3 119.8 8.3 120.3 8.2C120.8 8.1 121.3 8.1 121.7 7.9V19.6H123.3V20H116.4V19.6H118V8.7ZM117.8 3.1C117.8 2.5 118 2 118.4 1.6C118.8 1.2 119.3 1 119.9 1C120.5 1 121 1.2 121.4 1.6C121.8 2 122 2.5 122 3C122 3.6 121.8 4.1 121.4 4.5C121 4.9 120.5 5.1 119.9 5.1C119.3 5.1 118.8 4.9 118.4 4.5C118 4.2 117.8 3.7 117.8 3.1Z" fill="#1D2832"/>
<path d="M124.801 20.2999V15.8999H125.201C125.801 17.2999 126.501 18.2999 127.201 18.8999C127.901 19.4999 128.801 19.8999 129.701 19.8999C130.401 19.8999 131.001 19.6999 131.501 19.2999C131.901 18.8999 132.201 18.2999 132.201 17.5999C132.201 16.6999 131.301 16.0999 129.501 15.7999C129.101 15.6999 128.801 15.6999 128.601 15.6999C127.201 15.4999 126.301 15.0999 125.701 14.4999C125.101 13.8999 124.801 13.0999 124.801 12.0999C124.801 10.8999 125.201 9.8999 126.001 9.0999C126.801 8.2999 127.701 7.8999 128.901 7.8999C129.501 7.8999 130.101 7.9999 130.701 8.1999C131.401 8.3999 131.701 8.4999 131.801 8.4999C132.001 8.4999 132.101 8.4999 132.201 8.3999C132.301 8.2999 132.401 8.1999 132.501 7.9999H133.001V11.7999H132.501C132.101 10.6999 131.601 9.7999 131.001 9.1999C130.401 8.5999 129.601 8.3999 128.701 8.3999C128.001 8.3999 127.401 8.5999 127.001 8.9999C126.501 9.3999 126.301 9.8999 126.301 10.4999C126.301 10.7999 126.401 10.9999 126.501 11.1999C126.601 11.3999 126.801 11.5999 127.101 11.7999C127.401 11.9999 127.901 12.0999 128.701 12.0999C129.501 12.1999 130.201 12.2999 130.601 12.3999C131.701 12.6999 132.501 13.0999 133.001 13.5999C133.501 14.1999 133.701 14.9999 133.701 15.9999C133.701 17.2999 133.301 18.3999 132.501 19.1999C131.701 19.9999 130.601 20.3999 129.301 20.3999C128.901 20.3999 128.301 20.2999 127.701 20.0999C127.001 19.8999 126.601 19.7999 126.301 19.7999C126.001 19.7999 125.701 19.7999 125.501 19.8999C125.301 19.9999 125.201 20.0999 125.101 20.3999H124.801V20.2999Z" fill="#1D2832"/>
<path d="M134.901 8.30005C136.201 8.30005 137.201 7.80005 138.001 6.90005C138.801 5.90005 139.401 4.60005 139.601 2.80005H140.001V8.30005H142.501V8.70005H140.001V17.5C140.001 18.1 140.101 18.6 140.201 18.9C140.301 19.2 140.601 19.3 140.901 19.3C141.201 19.3 141.501 19.2001 141.701 19C142.001 18.8 142.201 18.5 142.401 18.2L142.801 18.4C142.501 19 142.001 19.5 141.401 19.8C140.801 20.1 140.101 20.3 139.401 20.3C138.301 20.3 137.501 20 137.001 19.4C136.501 18.8 136.301 17.8 136.301 16.3V8.70005H134.801V8.30005H134.901Z" fill="#1D2832"/>
<path d="M154.699 17.0999C154.699 17.7999 154.799 18.3999 154.899 18.5999C154.999 18.8999 155.199 18.9999 155.499 18.9999C155.699 18.9999 155.899 18.8999 156.099 18.6999C156.299 18.4999 156.399 18.1999 156.499 17.6999H156.899C156.799 18.4999 156.499 19.0999 155.999 19.5999C155.499 20.0999 154.799 20.2999 154.099 20.2999C153.399 20.2999 152.799 20.1999 152.299 19.8999C151.899 19.5999 151.499 19.1999 151.299 18.4999C150.999 19.0999 150.599 19.5999 150.099 19.8999C149.499 20.1999 148.899 20.3999 148.099 20.3999C146.499 20.3999 145.299 20.0999 144.499 19.4999C143.699 18.8999 143.199 18.0999 143.199 16.9999C143.199 15.6999 143.899 14.7999 145.199 14.0999C146.499 13.4999 148.499 13.1999 151.199 13.1999V11.4999C151.199 10.1999 150.999 9.2999 150.699 8.8999C150.299 8.4999 149.699 8.2999 148.599 8.2999C147.999 8.2999 147.499 8.3999 147.099 8.5999C146.699 8.7999 146.499 8.9999 146.499 9.1999C146.499 9.2999 146.599 9.3999 146.899 9.4999C147.099 9.6999 147.299 9.7999 147.499 9.8999C147.599 9.9999 147.699 10.1999 147.799 10.2999C147.899 10.4999 147.899 10.6999 147.899 10.8999C147.899 11.3999 147.799 11.6999 147.499 11.9999C147.199 12.2999 146.799 12.3999 146.299 12.3999C145.699 12.3999 145.299 12.2999 144.999 11.9999C144.699 11.6999 144.499 11.2999 144.499 10.7999C144.499 9.8999 144.899 9.1999 145.799 8.6999C146.699 8.1999 147.799 7.8999 149.299 7.8999C150.099 7.8999 150.899 7.9999 151.499 8.0999C152.199 8.2999 152.799 8.4999 153.299 8.7999C153.899 9.0999 154.199 9.4999 154.499 9.9999C154.699 10.4999 154.799 11.1999 154.799 12.0999V17.0999H154.699ZM151.199 13.5999H150.999C149.399 13.5999 148.299 13.7999 147.799 14.1999C147.299 14.5999 146.999 15.3999 146.999 16.4999C146.999 17.5999 147.099 18.4999 147.399 18.8999C147.699 19.3999 148.199 19.5999 148.899 19.5999C149.699 19.5999 150.199 19.2999 150.599 18.7999C150.999 18.2999 151.199 17.4999 151.199 16.3999V13.5999Z" fill="#1D2832"/>
<path d="M157.5 19.2C157.5 18.9 157.6 18.7 157.8 18.5C158 18.3 158.2 18.2 158.5 18.2C158.8 18.2 159 18.3 159.2 18.5C159.4 18.7 159.5 18.9 159.5 19.2C159.5 19.5 159.4 19.7 159.2 19.9C159 20.1 158.8 20.2 158.5 20.2C158.2 20.2 158 20.1 157.8 19.9C157.6 19.8 157.5 19.5 157.5 19.2Z" fill="#1D2832"/>
<path d="M166.2 17H162.6V18C162.6 18.7 162.7 19.3 162.9 19.6C163.1 19.9 163.5 20.1 164 20.1C164.5 20.1 164.9 19.9 165.3 19.6C165.7 19.2 165.9 18.8 166.1 18.1H166.3C166.2 18.8 165.9 19.4 165.4 19.8C164.9 20.2 164.4 20.4 163.7 20.4C162.8 20.4 162.1 20.1 161.5 19.5C160.9 18.9 160.6 18.2 160.6 17.3C160.6 16.5 160.9 15.7 161.5 15.1C162.1 14.5 162.8 14.2 163.6 14.2C164.3 14.2 165 14.5 165.5 15C166 15.5 166.2 16.2 166.2 17ZM164.3 16.8V15.8C164.3 15.2 164.2 14.9 164.1 14.7C164 14.5 163.8 14.4 163.4 14.4C163.1 14.4 162.9 14.5 162.8 14.7C162.7 14.9 162.6 15.3 162.6 15.9V16.8H164.3Z" fill="#1D2832"/>
<path d="M167.1 20.4V18.2H167.3C167.6 18.9 167.9 19.4 168.3 19.7C168.7 20 169.1 20.2 169.5 20.2C169.9 20.2 170.2 20.1 170.4 19.9C170.6 19.7 170.7 19.4 170.7 19.1C170.7 18.6 170.2 18.4 169.3 18.2C169.1 18.2 169 18.1 168.9 18.1C168.2 18 167.7 17.8 167.4 17.5C167.1 17.2 167 16.8 167 16.3C167 15.7 167.2 15.2 167.6 14.8C168 14.4 168.5 14.2 169 14.2C169.3 14.2 169.6 14.3 169.9 14.4C170.2 14.5 170.4 14.6 170.4 14.6C170.5 14.6 170.6 14.6 170.6 14.5C170.7 14.5 170.7 14.4 170.8 14.3H171V16.2H170.8C170.6 15.6 170.4 15.2 170.1 14.9C169.8 14.6 169.4 14.5 168.9 14.5C168.6 14.5 168.3 14.6 168 14.8C167.8 15 167.7 15.2 167.7 15.5C167.7 15.6 167.7 15.8 167.8 15.9C167.9 16 168 16.1 168.1 16.2C168.2 16.3 168.5 16.3 168.9 16.4C169.3 16.4 169.6 16.5 169.9 16.5C170.5 16.6 170.9 16.8 171.1 17.1C171.3 17.4 171.5 17.8 171.5 18.3C171.5 19 171.3 19.5 170.9 19.9C170.5 20.3 170 20.5 169.3 20.5C169.1 20.5 168.8 20.4 168.5 20.3C168.2 20.2 167.9 20.1 167.8 20.1C167.6 20.1 167.5 20.1 167.4 20.2C167.3 20.2 167.2 20.3 167.2 20.4H167.1Z" fill="#1D2832"/>
</g>
<defs>
<clipPath id="clip0_356_4107">
<rect width="171.5" height="21.5" fill="white"/>
</clipPath>
</defs>
</svg>
