<svg width="140" height="29" viewBox="0 0 140 29" fill="none" xmlns="http://www.w3.org/2000/svg">
<g clip-path="url(#clip0_209_2484)">
<path d="M98.7894 18.1274C98.6647 18.044 98.4986 18.0022 98.3739 18.044C98.2078 18.0857 98.0831 18.1691 98 18.2943C97.9585 18.336 97.917 18.4195 97.8754 18.4612C96.6707 20.0469 94.8428 20.9232 92.8902 20.9232C90.8546 20.9232 88.9437 19.9217 87.7805 18.2943C87.6974 18.1691 87.5727 18.0857 87.4066 18.044C87.365 18.044 87.3235 18.044 87.3235 18.044C87.1988 18.044 87.0742 18.0857 86.9911 18.1691C86.7419 18.3361 86.6588 18.7116 86.8665 18.962C88.279 20.9232 90.5223 22.0917 92.9318 22.0917C95.2582 22.0917 97.4184 21.0484 98.8309 19.1706C98.8724 19.0872 98.914 19.0455 98.9971 18.962C99.0802 18.6699 99.0386 18.2943 98.7894 18.1274Z" fill="white"/>
<path d="M1.08012 22.0081C0.955492 22.1333 0.830863 22.175 0.664691 22.175C0.456976 22.175 0.290799 22.1333 0.16617 22.0081C0.0415405 21.8829 0 21.716 0 21.5491V1.01851C0 0.851595 0.0415405 0.684677 0.16617 0.559491C0.290799 0.434304 0.456973 0.392578 0.623145 0.392578C0.789318 0.392578 0.955492 0.434304 1.08012 0.559491C1.20475 0.684677 1.24629 0.851595 1.24629 1.01851V21.5491C1.28783 21.716 1.20475 21.8829 1.08012 22.0081Z" fill="white"/>
<path d="M34.3146 8.11251C35.2286 9.23918 35.6855 10.6997 35.6855 12.494V21.5909C35.6855 21.7578 35.644 21.883 35.5194 22.0082C35.3947 22.1334 35.2701 22.1751 35.0624 22.1751C34.8547 22.1751 34.73 22.1334 34.6054 22.0082C34.4808 21.883 34.4392 21.7578 34.4392 21.5909V12.6192C34.4392 11.1587 34.0653 9.94855 33.3591 9.03052C32.6529 8.11249 31.5728 7.65347 30.1188 7.65347C29.2464 7.65347 28.3324 7.86213 27.5016 8.32115C26.6292 8.78017 25.9229 9.40608 25.3829 10.1572C24.8428 10.9083 24.5935 11.7429 24.5935 12.6192V21.5909C24.5935 21.7578 24.552 21.883 24.4274 22.0082C24.3027 22.1334 24.1781 22.1751 23.9704 22.1751C23.8042 22.1751 23.6381 22.1334 23.5134 22.0082C23.3888 21.883 23.3473 21.7578 23.3473 21.5909V12.4523C23.3473 11.0335 23.0149 9.86511 22.3087 8.94708C21.644 8.07078 20.6054 7.61176 19.193 7.61176C18.3206 7.61176 17.4897 7.82039 16.6588 8.27941C15.828 8.69669 15.1633 9.32262 14.6232 10.0737C14.0832 10.8249 13.8339 11.6177 13.8339 12.494V21.6326C13.8339 21.7995 13.7924 21.9247 13.6677 22.0499C13.5431 22.1751 13.4185 22.2168 13.2523 22.2168C13.0861 22.2168 12.9199 22.1751 12.7953 22.0499C12.6707 21.9247 12.6292 21.7995 12.6292 21.6326V7.23619C12.6292 7.06927 12.6707 6.94409 12.7953 6.8189C12.9199 6.69371 13.0446 6.652 13.2108 6.652C13.3769 6.652 13.5431 6.69371 13.6677 6.8189C13.7924 6.94409 13.8339 7.06927 13.8339 7.23619V9.40609C14.4155 8.52978 15.2048 7.82039 16.2019 7.23619C17.1573 6.69371 18.1959 6.40161 19.2345 6.40161C20.3561 6.40161 21.3947 6.69373 22.2671 7.27793C23.1395 7.86213 23.8042 8.6967 24.2197 9.82338C24.6351 8.86361 25.466 8.07077 26.6707 7.40311C27.8754 6.73545 29.0802 6.40161 30.2434 6.40161C32.0297 6.44334 33.3591 6.98583 34.3146 8.11251Z" fill="white"/>
<path d="M56.6648 20.339C57.5788 19.7548 58.285 18.962 58.8251 17.9188C59.3651 16.8756 59.6144 15.7071 59.6144 14.4135C59.6144 13.12 59.3651 11.9516 58.8251 10.9501C58.285 9.90684 57.5788 9.114 56.6648 8.5298C55.7509 7.9456 54.7123 7.65348 53.5906 7.65348C52.4274 7.65348 51.3889 7.9456 50.4749 8.5298C49.561 9.114 48.8547 9.90684 48.3147 10.9501C47.8162 11.9933 47.5669 13.1617 47.5669 14.4553C47.5669 15.7489 47.8162 16.959 48.3147 17.9605C48.8132 19.0037 49.5194 19.7965 50.4749 20.3808C51.3889 20.965 52.4274 21.2571 53.5906 21.2571C54.7123 21.2153 55.7509 20.9232 56.6648 20.339ZM57.371 7.44483C58.4512 8.11249 59.3236 9.07225 59.9467 10.2824C60.5699 11.4925 60.8607 12.8696 60.8607 14.3718C60.8607 15.8741 60.5283 17.2094 59.9052 18.4612C59.282 19.6714 58.4096 20.6311 57.3295 21.3405C56.2494 22.0499 55.0031 22.3837 53.6737 22.3837C52.4274 22.3837 51.3058 22.0916 50.2672 21.4657C49.2286 20.8398 48.3978 19.9635 47.7331 18.7951V27.8085C47.7331 27.9754 47.6915 28.1006 47.5669 28.2258C47.4423 28.3509 47.3176 28.3927 47.1099 28.3927C46.9437 28.3927 46.8191 28.3509 46.6945 28.2258C46.5699 28.1006 46.5283 27.9754 46.5283 27.8085V7.06929C46.5283 6.90238 46.5699 6.77719 46.6945 6.652C46.8191 6.52682 46.9438 6.48508 47.1515 6.48508C47.3176 6.48508 47.4838 6.52682 47.6084 6.652C47.7331 6.77719 47.7746 6.90238 47.7746 7.06929V9.94856C48.3978 8.78016 49.2286 7.86213 50.2672 7.31965C51.3058 6.73545 52.469 6.44336 53.7568 6.44336C55.0031 6.44336 56.2494 6.77717 57.371 7.44483Z" fill="white"/>
<path d="M78.9733 6.81874C78.9733 6.98565 78.9317 7.15258 78.8071 7.27777C78.724 7.40296 78.5578 7.44467 78.3917 7.44467C78.3501 7.44467 78.184 7.40295 77.9347 7.31949C77.6854 7.23603 77.4362 7.19431 77.1869 7.19431C76.3561 7.19431 75.4837 7.52812 74.6528 8.19578C73.8219 8.86344 73.1157 9.73976 72.5756 10.7413C72.0356 11.7427 71.7863 12.786 71.7863 13.704V21.5073C71.7863 21.6742 71.7032 21.7994 71.5786 21.9246C71.454 22.0497 71.3294 22.0915 71.1632 22.0915C70.9555 22.0915 70.8308 22.0497 70.7062 21.9246C70.5816 21.7994 70.54 21.6742 70.54 21.5073V7.23603C70.54 7.06911 70.5816 6.94393 70.7062 6.81874C70.8308 6.69355 70.9555 6.65184 71.1216 6.65184C71.2878 6.65184 71.454 6.69355 71.5786 6.81874C71.7032 6.94393 71.7448 7.06911 71.7448 7.23603V10.5326C72.2018 9.28075 72.9495 8.19578 73.9466 7.36121C74.9436 6.52663 76.1484 6.10936 77.5193 6.06763C78.5163 6.10936 78.9733 6.35972 78.9733 6.81874Z" fill="white"/>
<path d="M108.427 19.1287C108.427 19.0035 108.511 18.8366 108.677 18.7114C108.76 18.628 108.884 18.5445 109.051 18.5445C109.258 18.5445 109.425 18.628 109.549 18.7949C110.754 20.5058 112.416 21.3821 114.576 21.3821C115.656 21.3821 116.653 21.09 117.484 20.5475C118.315 20.005 118.73 19.2539 118.73 18.2941C118.73 17.3344 118.356 16.625 117.65 16.1242C116.944 15.6652 115.947 15.2479 114.659 14.9558C112.997 14.5386 111.668 13.9961 110.712 13.2867C109.757 12.5773 109.258 11.6176 109.258 10.324C109.258 9.11383 109.757 8.07062 110.712 7.27777C111.668 6.48492 112.956 6.06763 114.493 6.06763C115.324 6.06763 116.196 6.23455 117.027 6.56838C117.858 6.90221 118.647 7.44468 119.312 8.15406C119.436 8.27925 119.519 8.40444 119.519 8.57135C119.519 8.73827 119.436 8.90519 119.312 9.0721C119.146 9.15556 119.021 9.19728 118.896 9.19728C118.772 9.19728 118.647 9.15554 118.522 9.03036C117.442 7.86195 116.071 7.23603 114.368 7.23603C113.288 7.23603 112.333 7.48641 111.585 8.02888C110.837 8.57136 110.463 9.32246 110.463 10.2822C110.505 11.1585 110.92 11.8679 111.709 12.3687C112.457 12.8694 113.579 13.2867 115.033 13.6623C116.071 13.9126 116.985 14.2465 117.65 14.5386C118.356 14.8724 118.896 15.3314 119.312 15.9156C119.727 16.4998 119.935 17.2509 119.935 18.2107C119.935 19.5043 119.436 20.5475 118.439 21.2986C117.442 22.0497 116.113 22.4253 114.493 22.4253C112.125 22.4253 110.172 21.5073 108.677 19.6295C108.511 19.4626 108.427 19.2956 108.427 19.1287Z" fill="white"/>
<path d="M128.492 19.1287C128.492 19.0035 128.576 18.8366 128.742 18.7114C128.825 18.628 128.949 18.5445 129.116 18.5445C129.323 18.5445 129.489 18.628 129.614 18.7949C130.819 20.5058 132.481 21.3821 134.641 21.3821C135.721 21.3821 136.718 21.09 137.549 20.5475C138.38 20.005 138.795 19.2539 138.795 18.2941C138.795 17.3344 138.421 16.625 137.715 16.1242C137.009 15.6652 136.012 15.2479 134.724 14.9558C133.062 14.5386 131.733 13.9961 130.777 13.2867C129.822 12.5773 129.323 11.6176 129.323 10.324C129.323 9.11383 129.822 8.07062 130.777 7.27777C131.733 6.48492 133.021 6.06763 134.558 6.06763C135.389 6.06763 136.261 6.23455 137.092 6.56838C137.923 6.90221 138.712 7.44468 139.377 8.15406C139.501 8.27925 139.584 8.40444 139.584 8.57135C139.584 8.73827 139.501 8.90519 139.377 9.0721C139.211 9.15556 139.086 9.19728 138.961 9.19728C138.795 9.19728 138.67 9.15554 138.587 9.03036C137.507 7.86195 136.136 7.23603 134.433 7.23603C133.353 7.23603 132.397 7.48641 131.65 8.02888C130.902 8.57136 130.528 9.32246 130.528 10.2822C130.57 11.1585 130.985 11.8679 131.774 12.3687C132.522 12.8694 133.644 13.2867 135.098 13.6623C136.136 13.9126 137.05 14.2465 137.715 14.5386C138.421 14.8724 138.961 15.3314 139.377 15.9156C139.792 16.4998 140 17.2509 140 18.2107C140 19.5043 139.501 20.5475 138.504 21.2986C137.507 22.0497 136.178 22.4253 134.558 22.4253C132.19 22.4253 130.237 21.5073 128.742 19.6295C128.576 19.4626 128.492 19.2956 128.492 19.1287Z" fill="white"/>
<path d="M98.5816 12.7028H92.8486H87.1157V12.4107C87.2403 11.3675 87.5727 10.4494 88.1127 9.69831C88.6943 8.94719 89.4005 8.36299 90.2314 7.9457C91.0623 7.57014 91.9347 7.36149 92.8071 7.36149C93.721 7.36149 94.5934 7.57014 95.3828 7.9457C96.2136 8.32126 96.9198 8.90547 97.5014 9.69831C98.083 10.4494 98.4154 11.3675 98.4985 12.4107V12.7028H98.5816ZM98.7893 9.32274C98.1246 8.27952 97.2522 7.44494 96.2136 6.9442C95.175 6.40172 94.0534 6.15137 92.8486 6.15137C91.6439 6.15137 90.5222 6.40172 89.4836 6.9442C88.4451 7.48667 87.5727 8.27952 86.908 9.32274C86.2433 10.366 85.9109 11.7013 85.8694 13.2453C85.8694 13.4122 85.9109 13.5791 86.0356 13.7043C86.1186 13.7877 86.2433 13.8712 86.3264 13.9129H92.8071H99.2878C99.4124 13.8712 99.4955 13.8295 99.5786 13.7043C99.7032 13.5791 99.7448 13.4122 99.7448 13.2453C99.8279 11.6596 99.454 10.366 98.7893 9.32274Z" fill="white"/>
</g>
<defs>
<clipPath id="clip0_209_2484">
<rect width="140" height="28" fill="white" transform="translate(0 0.392578)"/>
</clipPath>
</defs>
</svg>
