<svg width="68" height="20" viewBox="0 0 68 20" fill="none" xmlns="http://www.w3.org/2000/svg">
<path d="M5.74756 0.463379C7.94756 0.463379 9.38445 0.993157 10.3422 2.16338C11.3004 3.35538 11.7436 5.05493 11.7436 7.43894C11.7436 14.5914 7.30889 14.8785 4.87867 14.8785H0V14.0838C1.15289 14.0172 1.29511 13.9292 1.29511 12.8696V2.49449C1.29511 1.41271 1.13511 1.30249 0 1.25805V0.463379H5.74756ZM4.20444 13.1345C4.20444 13.6643 4.39956 13.9069 5.39289 13.9069C6.972 13.9069 8.56844 13.0905 8.56844 7.5496C8.56844 3.44338 7.37956 1.43493 5.32178 1.43493C4.364 1.43493 4.20444 1.54516 4.20444 1.94249V13.1345Z" fill="#1D2832"/>
<path d="M14.8478 9.69123C14.8478 11.8543 15.4332 13.4881 17.0301 13.4881C18.0229 13.4881 18.7327 12.8699 19.2296 11.6997L19.8327 12.1192C19.2647 13.9735 18.1652 15.1437 16.1781 15.1437C13.0203 15.1659 12.0625 12.5828 12.0625 9.77923C12.0625 6.88768 13.1625 4.43701 16.2136 4.43701C19.4598 4.43701 19.9745 7.02012 19.9745 8.7859C19.9745 9.47035 19.6905 9.69123 19.0518 9.69123H14.8478ZM16.7989 8.65346C17.1896 8.65346 17.3136 8.56546 17.3136 7.96901C17.3136 6.9539 17.1181 5.40857 16.1781 5.40857C15.1847 5.40857 14.8301 7.06412 14.8301 8.65346H16.7989Z" fill="#1D2832"/>
<path d="M28.5959 13.0908C28.5959 13.9295 28.7382 14.0179 29.6608 14.0841V14.8788H25.1195V14.0841C25.5982 14.0175 25.9533 14.1063 25.9533 13.2672V7.88012C25.9533 6.73257 25.5097 6.09257 24.6937 6.09257C24.0195 6.09257 23.5937 6.5339 23.4164 7.04146C23.2919 7.32857 23.2386 7.83612 23.2386 8.2779V13.1783C23.2386 14.0175 23.5937 14.0175 24.0728 14.0837V14.8783H19.5488V14.0837C20.4537 14.017 20.5955 13.9512 20.5955 13.1343V7.02012C20.5955 6.18101 20.4537 5.98235 20.223 5.96057L19.6377 5.8499V5.07746L23.0262 4.45923L23.239 5.85035C24.3564 5.05523 25.1546 4.43701 26.0773 4.43701C27.8155 4.43701 28.5964 5.69568 28.5964 7.61612L28.5959 13.0908Z" fill="#1D2832"/>
<path d="M32.3741 5.76161V11.6772C32.3741 13.0238 32.8177 13.5541 33.403 13.5541C33.5448 13.5541 33.8817 13.4874 34.1124 13.3554L34.2901 14.0176C33.2964 14.7901 32.4804 15.1434 31.8061 15.1434C30.8306 15.1434 29.7306 14.2825 29.7306 12.4278V5.76117H28.791V4.70206H29.8199L31.3457 2.09717H32.3746V4.70161H34.0599V5.76161H32.3741Z" fill="#1D2832"/>
<path d="M35.6028 7.02C35.6028 6.18089 35.4606 5.98222 35.2126 5.96044L34.6446 5.84978V5.07733L38.1219 4.45911L38.2459 4.59156V13.0907C38.2459 13.9293 38.3881 14.0178 39.3103 14.084V14.8787H34.5557V14.084C35.4601 14.0173 35.6023 13.9293 35.6023 13.0907L35.6028 7.02ZM36.8446 0C37.7668 0 38.2814 0.838667 38.2814 1.788C38.2814 2.78133 37.7317 3.62044 36.8268 3.62044C35.8868 3.62044 35.3899 2.78133 35.3899 1.788C35.3899 0.838667 35.8868 0 36.8268 0H36.8446Z" fill="#1D2832"/>
<path d="M44.6138 7.94679C44.2591 6.33568 43.4787 5.40857 42.6982 5.40857C42.024 5.40857 41.6693 5.98234 41.6693 6.57835C41.6693 7.35123 42.3964 7.85879 43.4253 8.34457C45.0573 9.11701 45.8204 9.95612 45.8204 11.6779C45.8204 13.9957 44.348 15.1437 42.2902 15.1437C41.3675 15.1437 40.1258 14.8788 39.4871 14.1503L39.292 10.9935H39.9307C40.3742 12.6935 41.2964 14.1721 42.3609 14.1721C43.0707 14.1721 43.4964 13.7308 43.4964 12.9801C43.4964 12.0752 42.5916 11.501 41.7933 11.1259C39.984 10.221 39.3631 9.31568 39.3631 7.81479C39.3631 5.69568 40.6227 4.43701 42.6982 4.43701C43.5671 4.43701 44.5427 4.63568 45.2347 5.1659V7.94723L44.6138 7.94679Z" fill="#1D2832"/>
<path d="M49.0836 5.76161V11.6772C49.0836 13.0238 49.5271 13.5541 50.1124 13.5541C50.2547 13.5541 50.5916 13.4874 50.8222 13.3554L50.9996 14.0176C50.0062 14.7901 49.1902 15.1434 48.516 15.1434C47.54 15.1434 46.4404 14.2825 46.4404 12.4278V5.76117H45.5V4.70206H46.5289L48.0547 2.09717H49.0836V4.70161H50.7689V5.76161H49.0836Z" fill="#1D2832"/>
<path d="M54.7786 13.0908C54.7786 13.9295 54.9386 13.9957 56.1804 14.0841V14.8788H51.0889V14.0841C51.9938 14.0175 52.1355 13.9295 52.1355 13.0908V7.01968C52.1355 6.18101 51.9933 5.98235 51.7631 5.96057L51.1778 5.8499V5.07746L54.5302 4.45923L54.7258 6.29168C55.6835 5.03301 56.2155 4.43701 56.9431 4.43701C57.6524 4.43701 58.1493 5.01123 58.1493 5.96057C58.1493 6.82146 57.7235 7.83657 56.9075 7.83657C56.5706 7.83657 56.3751 7.5939 56.1626 7.39523C55.8431 7.10812 55.5946 6.90946 55.3284 6.90946C54.9386 6.90946 54.7786 7.43923 54.7786 8.45479V13.0908Z" fill="#1D2832"/>
<path d="M67.8698 4.70215V5.51859C66.9471 5.62926 66.8938 5.87193 66.5391 6.9537C65.7765 9.3377 64.712 13.0244 63.7538 16.1808C62.8494 19.139 62.0867 19.9999 60.8622 19.9999C60.2418 19.9999 59.4965 19.5141 59.4965 18.6755C59.4965 17.8586 60.064 16.9093 60.6138 16.9093C60.916 16.9093 61.0751 17.0639 61.4125 17.3728C61.5898 17.5497 61.8027 17.6599 61.9978 17.6599C62.3174 17.6599 62.4591 17.439 62.6365 16.931C62.7609 16.5564 62.6365 15.7835 62.512 15.3639C61.5542 12.3399 60.1707 8.38837 59.4609 6.4457C59.124 5.58482 58.9996 5.65104 58.2725 5.51859V4.70215H63.08V5.51859L62.4414 5.65104C62.2102 5.69548 62.1396 5.91593 62.2458 6.33548C62.7782 8.21193 63.5587 10.3533 64.0911 12.0528H64.1267C64.6231 10.2208 65.1556 8.1017 65.5458 6.24704C65.6169 5.87193 65.5102 5.67326 65.2973 5.65148L64.4813 5.51859V4.70215H67.8698Z" fill="#1D2832"/>
</svg>
