<svg width="134" height="20" viewBox="0 0 134 20" fill="none" xmlns="http://www.w3.org/2000/svg">
<g clip-path="url(#clip0_361_4193)">
<path d="M133.673 0.0351562H0.167627C0.0944652 0.0351562 0.0351562 0.0944652 0.0351562 0.167627V19.8321C0.0351562 19.9053 0.0944652 19.9646 0.167627 19.9646H133.673C133.746 19.9646 133.805 19.9053 133.805 19.8321V0.167627C133.805 0.0944652 133.746 0.0351562 133.673 0.0351562Z" fill="white" stroke="#1D2832" stroke-width="0.219692" stroke-linecap="square"/>
<path d="M0 8.18582V0H66.8401H133.841V8.18582V20H66.8401H0V8.18582ZM102.184 16.512C102.349 16.4661 102.661 16.3168 102.876 16.1803L103.268 15.932L105.804 15.8956C108.611 15.8554 108.86 15.8184 109.969 15.2769C112.265 14.1563 113.536 11.9302 113.292 9.46014C113.055 7.06407 111.515 5.28608 109.013 4.51972C108.47 4.3534 108.181 4.33704 105.171 4.30187L101.916 4.26385L101.942 4.62665L101.969 4.98944L102.628 5.16002L103.287 5.33059L103.265 10.0893L103.243 14.848L102.955 15.0425C102.623 15.2661 102.244 15.2901 101.823 15.1144C101.23 14.8665 101.051 14.6218 99.7508 12.2884C98.9501 10.8511 98.5559 10.4712 97.6053 10.2208C97.0949 10.0864 97.0656 10.0674 97.2964 10.0197C98.4676 9.77808 98.8998 9.5815 99.4606 9.03536C100.076 8.4361 100.27 7.95759 100.27 7.03893C100.27 6.4495 100.232 6.19713 100.103 5.93733C99.7218 5.16906 98.931 4.65758 97.746 4.41303C97.2281 4.30615 96.5298 4.27789 94.4066 4.27789H91.7221L91.7482 4.63403L91.7743 4.99017L92.4965 5.165L93.2186 5.33983V10.0973V14.8548L92.8111 14.9553C92.587 15.0107 92.2047 15.08 91.9615 15.1095L91.5195 15.1631L91.1095 14.032C90.244 11.6441 87.842 5.0756 87.6825 4.66019C87.6107 4.47329 87.4984 4.19483 87.4331 4.04139C87.3677 3.88794 87.3136 3.71591 87.3129 3.65909C87.312 3.60227 87.2769 3.50089 87.2344 3.4338C87.1733 3.33717 87.0408 3.42076 86.5968 3.83605C86.2886 4.12437 85.9225 4.41919 85.7833 4.49118C85.494 4.64075 85.5025 4.6189 85.6171 4.92016C85.6916 5.11635 85.6264 5.3366 85.1562 6.47611C84.8549 7.20618 84.4294 8.24316 84.2107 8.7805C83.9919 9.31784 83.688 10.0633 83.5352 10.4371C83.3825 10.8109 82.9242 11.9387 82.5168 12.9433C82.1094 13.9479 81.7478 14.7998 81.7133 14.8364C81.6788 14.873 81.4052 14.9689 81.1054 15.0496L80.5603 15.1963L80.5342 15.5565L80.508 15.9167H82.3443H84.1806L84.1545 15.5556L84.1283 15.1946L83.6186 15.0711C83.3383 15.0032 83.094 14.9373 83.0757 14.9246C83.0461 14.9041 83.3358 14.1018 84.1058 12.0725L84.3556 11.4141H86.1765C87.9864 11.4141 87.9979 11.4154 88.0713 11.6052C88.1119 11.7104 88.2043 11.9493 88.2765 12.1362C88.983 13.9638 89.2686 14.8445 89.1736 14.9032C89.1167 14.9383 88.8983 14.9929 88.6884 15.0244C87.9996 15.1277 87.9088 15.1917 87.9088 15.5748V15.9167H92.369H96.8291V15.5803C96.8291 15.2646 96.8095 15.2382 96.5105 15.1517C96.3353 15.1009 96.0199 15.0315 95.8096 14.9973L95.4273 14.9351L95.4047 12.7092L95.3821 10.4833L95.6596 10.5342C96.1432 10.6229 96.6249 10.9624 96.9355 11.4333C97.098 11.6797 97.6244 12.5886 98.1051 13.453C98.5859 14.3174 99.0872 15.1833 99.2192 15.3772C99.8603 16.3193 101.129 16.805 102.184 16.512H102.184ZM105.364 14.7911C105.341 14.7326 105.333 12.5822 105.345 10.0123L105.367 5.33983L106.599 5.34497C107.995 5.35078 108.561 5.47504 109.275 5.93287C110.079 6.44809 110.605 7.16868 110.984 8.27079C111.209 8.92771 111.215 11.2479 110.992 11.8814C110.397 13.5756 109.318 14.5582 107.776 14.8083C106.99 14.9359 105.415 14.9247 105.364 14.7911V14.7911ZM84.7458 10.4315C84.7194 10.4051 84.8504 9.99414 85.037 9.51828C85.2236 9.04241 85.5504 8.18475 85.7633 7.61237C85.9761 7.03999 86.1739 6.57167 86.2028 6.57167C86.2317 6.57167 86.3834 6.94441 86.54 7.39998C86.6967 7.85555 86.873 8.34298 86.9319 8.48316C87.219 9.16605 87.629 10.3593 87.5961 10.4159C87.5535 10.4892 84.8185 10.5042 84.7458 10.4315V10.4315ZM95.3849 7.41083V5.27657L96.1283 5.31422C96.9447 5.35557 97.3792 5.52261 97.777 5.94797C98.6967 6.93162 98.2559 8.79696 96.9651 9.38313C96.7298 9.49001 96.4169 9.54197 96.0008 9.54323L95.3849 9.54515V7.41083ZM64.8653 16.3775C65.6995 16.2212 66.559 15.8899 67.105 15.5142L67.4919 15.248L67.9845 15.5824C68.2555 15.7663 68.5676 15.9167 68.6781 15.9167H68.879V13.458C68.879 11.584 68.9042 10.9832 68.9852 10.9313C69.0436 10.8939 69.2825 10.7862 69.5161 10.6919C69.893 10.5399 69.9409 10.4919 69.9409 10.2665V10.0123L67.7109 9.98971L65.4808 9.96707V10.305C65.4808 10.6765 65.3839 10.6185 66.479 10.9019L66.7976 10.9843L66.7732 12.8508L66.7488 14.7174L66.4755 14.8863C65.9609 15.2043 64.9069 15.492 64.256 15.492C63.0431 15.492 62.1179 15.1016 61.3274 14.2566C60.4232 13.29 60.0429 12.2223 59.9822 10.4796C59.9484 9.51013 59.9697 9.22104 60.1201 8.61061C60.4645 7.21286 61.1967 6.04475 62.1074 5.44028C64.3125 3.97659 67.1416 5.09381 68.0624 7.79198C68.1116 7.93597 68.1337 7.93889 68.3066 7.82417C68.4922 7.70099 68.4972 7.65545 68.5197 5.89255C68.5357 4.63251 68.5133 4.05175 68.4455 3.97012C68.3435 3.84718 68.0317 3.80759 68.0263 3.91686C68.0246 3.95191 67.8957 4.12941 67.74 4.31132C67.4255 4.67872 67.5526 4.68159 66.5003 4.28332C63.4496 3.12874 59.9371 4.50475 58.4209 7.44835C57.9853 8.29425 57.8273 8.91252 57.7757 9.97487C57.6382 12.8026 58.9648 15.018 61.403 16.0325C62.4758 16.4789 63.6825 16.5992 64.8653 16.3775V16.3775ZM76.9922 16.3781C78.8241 16.0602 80.0748 14.9886 80.5034 13.3698C80.5991 13.0083 80.6394 12.0339 80.6789 9.1203L80.7302 5.33981L81.3886 5.17259L82.047 5.00537V4.64003V4.27468L80.1143 4.29751L78.1815 4.32034V4.65333V4.98631L78.8612 5.16305L79.5408 5.3398V9.24772V13.1556L79.3046 13.6366C78.8262 14.6107 77.9108 15.1615 76.6702 15.2218C75.8041 15.2639 75.2365 15.1223 74.6112 14.7081C74.1687 14.4151 73.886 14.0322 73.6142 13.3579C73.4368 12.9176 73.4288 12.7629 73.3989 9.14818C73.3635 4.86224 73.2728 5.31168 74.2119 5.11772L74.7409 5.00845V4.64315V4.27785H72.4046H70.0684V4.66015C70.0684 4.96193 70.0985 5.04244 70.2115 5.04244C70.2902 5.04244 70.5739 5.10399 70.8419 5.1792L71.3293 5.31596L71.3625 9.19332C71.3938 12.8659 71.4049 13.0957 71.5722 13.5453C71.8357 14.2535 71.9696 14.4803 72.4193 14.9806C73.093 15.7299 73.9471 16.1824 75.0807 16.3908C75.8483 16.5319 76.1164 16.5301 76.9922 16.3781V16.3781ZM31.1849 15.1096C31.458 14.4554 31.8488 13.5188 32.0534 13.0282C32.2581 12.5376 32.62 11.6583 32.8577 11.0742C33.0954 10.4902 33.3247 9.93585 33.3673 9.8424C33.4098 9.74895 33.6971 9.06081 34.0058 8.31321C34.3145 7.56561 34.6166 6.83924 34.6772 6.69907C34.7377 6.55889 34.8912 6.19301 35.0183 5.886L35.2494 5.3278L35.9653 5.17097L36.6811 5.01415V4.64449V4.27484L34.6209 4.29757L32.5608 4.32033V4.65392V4.98749L33.1908 5.14236C33.5374 5.22755 33.8381 5.31442 33.8591 5.33542C33.8801 5.35642 33.8571 5.48068 33.8082 5.61156C33.4443 6.58448 32.9264 7.91774 32.8577 8.05834C32.8121 8.15179 32.6789 8.48716 32.5616 8.80359C32.4444 9.12002 32.0678 10.0949 31.7248 10.9699C31.3818 11.845 31.073 12.6374 31.0387 12.7309C30.9832 12.8818 30.9591 12.8659 30.8234 12.589C30.7394 12.4175 30.6308 12.169 30.5821 12.0367C30.5334 11.9045 30.2961 11.3185 30.0548 10.7344C28.3387 6.57989 27.8463 5.3535 27.8804 5.3194C27.8971 5.30264 28.2212 5.22474 28.6004 5.14631L29.29 5.00372V4.64078V4.27785H26.6989H24.1078V4.66015C24.1078 4.99828 24.1299 5.04311 24.2989 5.04816C24.4041 5.05137 24.736 5.11898 25.0366 5.19856L25.583 5.34324L26.1669 6.74327C27.2916 9.44017 27.3677 9.62349 29.0768 13.7503C29.3864 14.4979 29.6949 15.2301 29.7622 15.3773C29.8296 15.5245 29.8849 15.6775 29.885 15.7171C29.8852 15.7568 29.9626 15.9159 30.057 16.0708C30.1938 16.2952 30.2754 16.3469 30.4586 16.3256C30.668 16.3013 30.7329 16.1926 31.1849 15.1096ZM55.8065 13.7928C55.8357 12.4144 55.8662 9.95926 55.8743 8.33693C55.8826 6.6887 55.923 5.36627 55.9659 5.33975C56.0082 5.31365 56.3217 5.22371 56.6627 5.13989L57.2826 4.98749V4.65392V4.32033L55.3075 4.29754L53.3323 4.27474V4.64258V5.01042L54.0039 5.16286L54.6755 5.3153L54.7281 6.34701C54.7966 7.69022 54.8324 12.6885 54.7735 12.6885C54.7485 12.6884 54.5956 12.5274 54.4337 12.3307C54.1732 12.0141 52.8487 10.4496 51.2084 8.5209C50.9047 8.1638 49.9705 7.06303 49.1324 6.07475L47.6087 4.27787H46.0528H44.4969L44.497 4.63893L44.4971 4.99999L45.2281 5.1699L45.959 5.33981L45.9477 7.50616C45.9416 8.69765 45.9171 10.6665 45.8934 11.8813C45.8696 13.0962 45.8516 14.2691 45.8532 14.4879L45.8561 14.8856L45.212 15.0289C44.8518 15.1091 44.5385 15.1397 44.5011 15.0984C44.4643 15.0579 44.3738 14.8526 44.3 14.6424C44.2262 14.4321 43.7595 13.1514 43.2629 11.7964C42.7664 10.4413 41.9963 8.33871 41.5516 7.12386C41.1069 5.909 40.7122 4.83857 40.6743 4.74512C40.6365 4.65167 40.5194 4.32672 40.4141 4.02301C40.3088 3.71929 40.1912 3.43529 40.1527 3.39189C40.1122 3.34613 39.859 3.52727 39.55 3.82312C39.257 4.10369 38.9091 4.40364 38.7768 4.48969C38.5711 4.62356 38.5438 4.68527 38.5873 4.91754C38.6401 5.19877 38.4722 5.65209 36.9361 9.37516C36.2412 11.0595 35.1143 13.8243 34.9015 14.3669C34.71 14.8553 34.6403 14.9108 34.0261 15.063L33.4952 15.1946V15.5344V15.8742H35.3217H37.1483V15.5344V15.1946L36.5961 15.0593C36.2137 14.9657 36.0511 14.8873 36.0673 14.8045C36.1123 14.5751 37.2195 11.6257 37.3002 11.5203C37.3607 11.4412 37.8439 11.4141 39.1936 11.4141H41.0057L41.0827 11.6902C41.125 11.842 41.2558 12.2148 41.3733 12.5185C42.2701 14.8364 42.2977 14.9766 41.8574 14.9809C41.7842 14.9815 41.5261 15.041 41.284 15.1129C40.8495 15.2419 40.8438 15.248 40.8438 15.581V15.9184L44.688 15.8963L48.5322 15.8742L48.5581 15.5638C48.5819 15.2783 48.5613 15.2462 48.3032 15.1648C48.1488 15.1161 47.8472 15.0517 47.633 15.0217C47.4188 14.9917 47.2047 14.9419 47.1574 14.911C47.0411 14.8352 46.9271 6.71089 47.0433 6.78268C47.1205 6.83039 48.2756 8.18227 52.85 13.5787C55.1555 16.2985 55.2159 16.3607 55.5158 16.3263L55.7534 16.299L55.8065 13.7928ZM37.745 10.3978C37.7152 10.3496 37.8605 9.87995 38.0678 9.35415C38.2751 8.82836 38.5927 7.98724 38.7735 7.48501C38.9544 6.98277 39.1263 6.5718 39.1557 6.57174C39.185 6.57168 39.2946 6.81057 39.3992 7.1026C39.5039 7.39464 39.8144 8.24043 40.0892 8.98214C40.3641 9.72385 40.589 10.3609 40.589 10.3979C40.589 10.5016 37.8091 10.5014 37.745 10.3977V10.3978ZM11.4499 15.7255C11.7395 15.0481 12.469 13.0992 12.469 13.0032C12.469 12.9393 12.3746 12.8365 12.2593 12.7748C12.0591 12.6677 12.0117 12.697 11.2186 13.4178C10.7615 13.8331 10.1964 14.3546 9.96281 14.5765L9.53805 14.9801L8.49734 14.981L7.45665 14.982V10.153V5.32404L7.77523 5.2311C7.95045 5.17998 8.23717 5.11233 8.41238 5.08076C8.72362 5.0247 8.73097 5.01474 8.73097 4.64917V4.27496L6.41595 4.29756L4.10092 4.32017V4.65291C4.10092 5.01508 4.06464 4.99046 4.92924 5.21461L5.33278 5.31923V10.1049V14.8905L4.97172 14.9802C4.77314 15.0295 4.49597 15.0991 4.35579 15.1348C4.15949 15.1849 4.09459 15.2545 4.07336 15.4379C4.01499 15.9419 3.81984 15.9165 7.75313 15.9165H11.3682L11.4499 15.7255ZM15.426 15.5556L15.3999 15.1946L14.8689 15.0673C14.5769 14.9974 14.339 14.9018 14.3402 14.8549C14.3415 14.8081 14.625 14.0243 14.9704 13.1132L15.5983 11.4565H17.4417H19.2852L19.9018 13.1132C20.241 14.0243 20.4893 14.8018 20.4537 14.8409C20.4181 14.88 20.1266 14.9756 19.8059 15.0533L19.2229 15.1946L19.1967 15.5569L19.1705 15.9193L21.5754 15.8968L23.9803 15.8742V15.6193C23.9803 15.2463 23.8907 15.1681 23.3388 15.0595C23.0651 15.0056 22.7889 14.8993 22.7251 14.8232C22.6612 14.7471 22.4655 14.2834 22.2901 13.7928C22.1148 13.3022 21.6301 11.9792 21.213 10.8528C20.7959 9.72636 20.4534 8.77061 20.4518 8.72889C20.4502 8.68716 20.3751 8.5001 20.2848 8.3132C20.1945 8.1263 20.1193 7.93943 20.1178 7.89794C20.1162 7.85644 19.7847 6.93893 19.3811 5.85902C18.9776 4.77911 18.6126 3.77131 18.5701 3.61945C18.5275 3.46759 18.4571 3.34335 18.4135 3.34335C18.37 3.34335 18.1748 3.51643 17.9798 3.72797C17.7848 3.93952 17.4399 4.23268 17.2134 4.37944C16.7779 4.66166 16.7523 4.70659 16.8854 4.9553C16.9735 5.11989 16.9734 5.12016 15.9066 7.71852C15.638 8.37267 15.161 9.53868 14.8465 10.3096C14.5319 11.0806 14.0541 12.2466 13.7846 12.9008C13.5151 13.5549 13.2276 14.2614 13.1458 14.4708C12.9889 14.8721 12.9529 14.9048 12.4513 15.1017C12.2221 15.1917 12.1006 15.3108 12.0053 15.5389C11.9332 15.7114 11.8743 15.8669 11.8743 15.8846C11.8743 15.9022 12.6793 15.9167 13.6632 15.9167H15.4521L15.426 15.5556ZM15.9521 10.4463C15.9521 10.3921 16.7965 8.16587 16.9223 7.88844C16.9859 7.74826 17.1244 7.39279 17.23 7.09849C17.3357 6.8042 17.4485 6.59394 17.4808 6.63124C17.513 6.66855 17.7971 7.40632 18.112 8.27073C18.427 9.13515 18.7364 9.96275 18.7996 10.1098C18.8628 10.2569 18.8915 10.4003 18.8634 10.4284C18.8081 10.4837 15.9521 10.5013 15.9521 10.4463V10.4463ZM121.261 15.6193C121.271 15.2544 121.171 15.168 120.603 15.0506C120.159 14.9589 120.103 14.9252 120.141 14.773C120.165 14.6778 120.45 13.8926 120.775 13.0282L121.365 11.4565L123.2 11.4336L125.036 11.4108L125.111 11.6036C125.59 12.8427 126.31 14.8389 126.286 14.863C126.273 14.8763 125.976 14.9563 125.627 15.0409L124.992 15.1946L124.966 15.5556L124.939 15.9167H127.323H129.707V15.5479V15.1791L129.218 15.0726C128.664 14.9518 128.347 14.7804 128.347 14.6008C128.347 14.5334 128.294 14.3527 128.229 14.1992C128.062 13.8084 127.944 13.492 127.172 11.3716C125.738 7.43477 124.673 4.53614 124.518 4.15043C124.481 4.05698 124.424 3.88495 124.392 3.76814C124.266 3.30924 124.192 3.31732 123.62 3.8518C123.321 4.13145 122.962 4.41938 122.823 4.49164C122.606 4.60386 122.577 4.65651 122.626 4.85246C122.658 4.97865 122.684 5.1265 122.684 5.18102C122.684 5.26912 122.443 5.8929 122.228 6.35926C122.185 6.45271 122.072 6.73943 121.976 6.99642C121.88 7.25341 121.765 7.54013 121.721 7.63358C121.678 7.72703 121.465 8.24313 121.249 8.78047C120.112 11.6058 119.925 12.0651 119.853 12.2211C119.778 12.3814 119.067 14.1209 118.841 14.6943C118.689 15.0794 118.211 15.2263 117.662 15.056L117.261 14.9313L117.239 10.1275L117.217 5.32361L117.918 5.15757L118.62 4.99154V4.65594V4.32034L116.178 4.2978L113.735 4.27526V4.63762V4.99998L114.415 5.16022L115.094 5.32046V10.1056V14.8907L114.733 14.9799C113.694 15.2367 113.735 15.2122 113.735 15.5812V15.9184L117.494 15.8963L121.253 15.8742L121.26 15.6193L121.261 15.6193ZM121.776 10.4156C121.755 10.3804 121.88 9.98851 122.056 9.54478C122.231 9.10104 122.557 8.25056 122.781 7.65481C123.004 7.05906 123.212 6.57164 123.242 6.57164C123.272 6.57164 123.39 6.8488 123.505 7.18756C123.62 7.52632 123.929 8.38519 124.193 9.09616C124.456 9.80714 124.651 10.4093 124.626 10.4342C124.555 10.5052 121.821 10.4873 121.776 10.4156V10.4156Z" fill="#1D2832"/>
</g>
<defs>
<clipPath id="clip0_361_4193">
<path d="M0 4C0 1.79086 1.79086 0 4 0H129.841C132.05 0 133.841 1.79086 133.841 4V16C133.841 18.2091 132.05 20 129.841 20H4.00001C1.79087 20 0 18.2091 0 16V4Z" fill="white"/>
</clipPath>
</defs>
</svg>
