<svg width="130" height="26" viewBox="0 0 130 26" fill="none" xmlns="http://www.w3.org/2000/svg">
<g clip-path="url(#clip0_186_1772)">
<path d="M91.7328 16.4679C91.6171 16.3904 91.4628 16.3517 91.347 16.3904C91.1927 16.4292 91.077 16.5067 90.9998 16.6229C90.9613 16.6617 90.9227 16.7392 90.8841 16.7779C89.7654 18.2504 88.0681 19.0641 86.255 19.0641C84.3648 19.0641 82.5903 18.1341 81.5102 16.6229C81.4331 16.5067 81.3173 16.4292 81.163 16.3904C81.1245 16.3904 81.0859 16.3904 81.0859 16.3904C80.9702 16.3904 80.8544 16.4292 80.7773 16.5067C80.5458 16.6617 80.4687 17.0104 80.6616 17.2429C81.9731 19.0641 84.0562 20.149 86.2936 20.149C88.4538 20.149 90.4598 19.1803 91.7714 17.4366C91.8099 17.3592 91.8485 17.3204 91.9257 17.2429C92.0028 16.9717 91.9642 16.6229 91.7328 16.4679Z" fill="#EB5E5B"/>
<path d="M1.00297 20.0715C0.887243 20.1878 0.771516 20.2265 0.617213 20.2265C0.424335 20.2265 0.270027 20.1878 0.1543 20.0715C0.0385733 19.9553 0 19.8003 0 19.6453V0.581222C0 0.42623 0.0385733 0.271235 0.1543 0.15499C0.270027 0.0387458 0.424332 0 0.578635 0C0.732938 0 0.887243 0.0387458 1.00297 0.15499C1.1187 0.271235 1.15727 0.42623 1.15727 0.581222V19.6453C1.19585 19.8003 1.1187 19.9553 1.00297 20.0715Z" fill="#262D33"/>
<path d="M31.8636 7.16852C32.7122 8.21472 33.1365 9.57091 33.1365 11.2371V19.6842C33.1365 19.8392 33.098 19.9554 32.9822 20.0716C32.8665 20.1879 32.7508 20.2266 32.5579 20.2266C32.365 20.2266 32.2493 20.1879 32.1336 20.0716C32.0178 19.9554 31.9793 19.8392 31.9793 19.6842V11.3533C31.9793 9.99713 31.6321 8.87342 30.9763 8.02096C30.3205 7.1685 29.3176 6.74228 27.9674 6.74228C27.1573 6.74228 26.3087 6.93603 25.5371 7.36226C24.7271 7.78849 24.0713 8.3697 23.5698 9.06717C23.0683 9.76463 22.8368 10.5396 22.8368 11.3533V19.6842C22.8368 19.8392 22.7983 19.9554 22.6825 20.0716C22.5668 20.1879 22.4511 20.2266 22.2582 20.2266C22.1039 20.2266 21.9496 20.1879 21.8339 20.0716C21.7182 19.9554 21.6796 19.8392 21.6796 19.6842V11.1983C21.6796 9.88088 21.371 8.79594 20.7152 7.94348C20.098 7.12977 19.1336 6.70354 17.822 6.70354C17.0119 6.70354 16.2404 6.89727 15.4689 7.3235C14.6974 7.71098 14.0802 8.2922 13.5787 8.98967C13.0772 9.68713 12.8457 10.4234 12.8457 11.2371V19.7229C12.8457 19.8779 12.8072 19.9941 12.6914 20.1104C12.5757 20.2266 12.46 20.2654 12.3057 20.2654C12.1514 20.2654 11.9971 20.2266 11.8814 20.1104C11.7656 19.9941 11.7271 19.8779 11.7271 19.7229V6.3548C11.7271 6.1998 11.7656 6.08356 11.8814 5.96732C11.9971 5.85107 12.1128 5.81234 12.2671 5.81234C12.4214 5.81234 12.5757 5.85107 12.6914 5.96732C12.8072 6.08356 12.8457 6.1998 12.8457 6.3548V8.3697C13.3858 7.55599 14.1187 6.89727 15.0446 6.3548C15.9318 5.85107 16.8962 5.57983 17.8606 5.57983C18.9021 5.57983 19.8665 5.85109 20.6766 6.39356C21.4867 6.93603 22.1039 7.71099 22.4897 8.75719C22.8754 7.86598 23.6469 7.12977 24.7656 6.5098C25.8843 5.88983 27.003 5.57983 28.0831 5.57983C29.7419 5.61858 30.9763 6.12232 31.8636 7.16852Z" fill="#262D33"/>
<path d="M52.6173 18.5215C53.466 17.9791 54.1217 17.2429 54.6232 16.2741C55.1247 15.3054 55.3562 14.2205 55.3562 13.0193C55.3562 11.8181 55.1247 10.7332 54.6232 9.8032C54.1217 8.8345 53.466 8.09829 52.6173 7.55582C51.7686 7.01334 50.8042 6.74209 49.7627 6.74209C48.6826 6.74209 47.7182 7.01334 46.8695 7.55582C46.0209 8.09829 45.3651 8.8345 44.8636 9.8032C44.4007 10.7719 44.1692 11.8568 44.1692 13.058C44.1692 14.2592 44.4007 15.3829 44.8636 16.3129C45.3265 17.2816 45.9823 18.0178 46.8695 18.5603C47.7182 19.1027 48.6826 19.374 49.7627 19.374C50.8042 19.3352 51.7686 19.064 52.6173 18.5215ZM53.2731 6.54835C54.2761 7.16832 55.0861 8.05952 55.6648 9.18322C56.2434 10.3069 56.5134 11.5856 56.5134 12.9806C56.5134 14.3755 56.2048 15.6154 55.6262 16.7779C55.0476 17.9016 54.2375 18.7928 53.2345 19.4515C52.2315 20.1102 51.0743 20.4202 49.8398 20.4202C48.6826 20.4202 47.641 20.149 46.6766 19.5677C45.7123 18.9865 44.9407 18.1728 44.3235 17.0878V25.4574C44.3235 25.6124 44.285 25.7287 44.1692 25.8449C44.0535 25.9612 43.9378 25.9999 43.7449 25.9999C43.5906 25.9999 43.4749 25.9612 43.3591 25.8449C43.2434 25.7287 43.2048 25.6124 43.2048 25.4574V6.19963C43.2048 6.04464 43.2434 5.92839 43.3591 5.81215C43.4749 5.6959 43.5906 5.65715 43.7835 5.65715C43.9378 5.65715 44.0921 5.6959 44.2078 5.81215C44.3235 5.92839 44.3621 6.04464 44.3621 6.19963V8.87324C44.9407 7.78829 45.7123 6.93584 46.6766 6.43211C47.641 5.88964 48.7212 5.61841 49.917 5.61841C51.0743 5.61841 52.2315 5.92838 53.2731 6.54835Z" fill="#262D33"/>
<path d="M73.3323 5.96699C73.3323 6.12199 73.2937 6.27699 73.178 6.39324C73.1009 6.50948 72.9466 6.54822 72.7923 6.54822C72.7537 6.54822 72.5994 6.50947 72.3679 6.43198C72.1365 6.35448 71.905 6.31574 71.6736 6.31574C70.9021 6.31574 70.092 6.62571 69.3205 7.24568C68.5489 7.86565 67.8932 8.67937 67.3917 9.60933C66.8902 10.5393 66.6587 11.508 66.6587 12.3604V19.6063C66.6587 19.7613 66.5816 19.8776 66.4659 19.9938C66.3501 20.1101 66.2344 20.1488 66.0801 20.1488C65.8872 20.1488 65.7715 20.1101 65.6558 19.9938C65.54 19.8776 65.5015 19.7613 65.5015 19.6063V6.35447C65.5015 6.19948 65.54 6.08324 65.6558 5.96699C65.7715 5.85075 65.8872 5.81201 66.0415 5.81201C66.1958 5.81201 66.3501 5.85075 66.4659 5.96699C66.5816 6.08324 66.6202 6.19948 66.6202 6.35447V9.41559C67.0445 8.25314 67.7389 7.24568 68.6647 6.47071C69.5905 5.69575 70.7092 5.30828 71.9822 5.26953C72.908 5.30828 73.3323 5.54076 73.3323 5.96699Z" fill="#262D33"/>
<path d="M100.683 17.3977C100.683 17.2814 100.76 17.1265 100.914 17.0102C100.991 16.9327 101.107 16.8552 101.261 16.8552C101.454 16.8552 101.608 16.9327 101.724 17.0877C102.843 18.6764 104.386 19.4901 106.392 19.4901C107.395 19.4901 108.321 19.2189 109.092 18.7151C109.864 18.2114 110.249 17.5139 110.249 16.6227C110.249 15.7315 109.902 15.0728 109.246 14.6078C108.591 14.1816 107.665 13.7941 106.469 13.5229C104.926 13.1354 103.692 12.6317 102.804 11.973C101.917 11.3142 101.454 10.423 101.454 9.22184C101.454 8.09815 101.917 7.12945 102.804 6.39324C103.692 5.65702 104.887 5.26953 106.315 5.26953C107.086 5.26953 107.896 5.42453 108.668 5.73451C109.439 6.0445 110.172 6.54822 110.789 7.20694C110.905 7.32318 110.982 7.43943 110.982 7.59442C110.982 7.74941 110.905 7.90441 110.789 8.0594C110.635 8.1369 110.519 8.17564 110.404 8.17564C110.288 8.17564 110.172 8.13688 110.056 8.02064C109.054 6.93569 107.781 6.35447 106.199 6.35447C105.196 6.35447 104.309 6.58697 103.614 7.0907C102.92 7.59442 102.573 8.29188 102.573 9.18308C102.611 9.99679 102.997 10.6555 103.73 11.1205C104.424 11.5855 105.466 11.973 106.816 12.3217C107.781 12.5542 108.629 12.8642 109.246 13.1354C109.902 13.4454 110.404 13.8716 110.789 14.4141C111.175 14.9566 111.368 15.654 111.368 16.5452C111.368 17.7464 110.905 18.7151 109.979 19.4126C109.054 20.1101 107.819 20.4588 106.315 20.4588C104.116 20.4588 102.303 19.6063 100.914 17.8627C100.76 17.7077 100.683 17.5527 100.683 17.3977Z" fill="#262D33"/>
<path d="M119.314 17.3977C119.314 17.2814 119.392 17.1265 119.546 17.0102C119.623 16.9327 119.739 16.8552 119.893 16.8552C120.086 16.8552 120.24 16.9327 120.356 17.0877C121.475 18.6764 123.018 19.4901 125.024 19.4901C126.027 19.4901 126.952 19.2189 127.724 18.7151C128.495 18.2114 128.881 17.5139 128.881 16.6227C128.881 15.7315 128.534 15.0728 127.878 14.6078C127.222 14.1816 126.297 13.7941 125.101 13.5229C123.558 13.1354 122.323 12.6317 121.436 11.973C120.549 11.3142 120.086 10.423 120.086 9.22184C120.086 8.09815 120.549 7.12945 121.436 6.39324C122.323 5.65702 123.519 5.26953 124.947 5.26953C125.718 5.26953 126.528 5.42453 127.3 5.73451C128.071 6.0445 128.804 6.54822 129.421 7.20694C129.537 7.32318 129.614 7.43943 129.614 7.59442C129.614 7.74941 129.537 7.90441 129.421 8.0594C129.267 8.1369 129.151 8.17564 129.036 8.17564C128.881 8.17564 128.766 8.13688 128.688 8.02064C127.685 6.93569 126.412 6.35447 124.831 6.35447C123.828 6.35447 122.941 6.58697 122.246 7.0907C121.552 7.59442 121.205 8.29188 121.205 9.18308C121.243 9.99679 121.629 10.6555 122.362 11.1205C123.056 11.5855 124.098 11.973 125.448 12.3217C126.412 12.5542 127.261 12.8642 127.878 13.1354C128.534 13.4454 129.036 13.8716 129.421 14.4141C129.807 14.9566 130 15.654 130 16.5452C130 17.7464 129.537 18.7151 128.611 19.4126C127.685 20.1101 126.451 20.4588 124.947 20.4588C122.748 20.4588 120.935 19.6063 119.546 17.8627C119.392 17.7077 119.314 17.5527 119.314 17.3977Z" fill="#262D33"/>
<path d="M91.54 11.4309H86.2166H80.8931V11.1596C81.0088 10.1909 81.3174 9.33847 81.8189 8.641C82.359 7.94354 83.0148 7.40106 83.7863 7.01358C84.5578 6.66484 85.3679 6.47109 86.178 6.47109C87.0266 6.47109 87.8367 6.66484 88.5697 7.01358C89.3412 7.36231 89.997 7.90479 90.537 8.641C91.0771 9.33847 91.3857 10.1909 91.4629 11.1596V11.4309H91.54ZM91.7329 8.29226C91.1157 7.32356 90.3056 6.54859 89.3412 6.08361C88.3768 5.57989 87.3353 5.34741 86.2166 5.34741C85.0979 5.34741 84.0563 5.57989 83.0919 6.08361C82.1275 6.58734 81.3174 7.32356 80.7002 8.29226C80.083 9.26096 79.7744 10.5009 79.7358 11.9346C79.7358 12.0896 79.7744 12.2446 79.8901 12.3608C79.9673 12.4383 80.083 12.5158 80.1602 12.5546H86.178H92.1958C92.3115 12.5158 92.3887 12.4771 92.4658 12.3608C92.5815 12.2446 92.6201 12.0896 92.6201 11.9346C92.6973 10.4622 92.3501 9.26096 91.7329 8.29226Z" fill="#262D33"/>
</g>
<defs>
<clipPath id="clip0_186_1772">
<rect width="130" height="26" fill="white"/>
</clipPath>
</defs>
</svg>
