<svg width="75" height="16" viewBox="0 0 75 16" fill="none" xmlns="http://www.w3.org/2000/svg">
<g clip-path="url(#clip0_332_3800)">
<mask id="mask0_332_3800" style="mask-type:alpha" maskUnits="userSpaceOnUse" x="0" y="0" width="45" height="16">
<path d="M0 0H44.0641V15.8212H0V0Z" fill="white"/>
</mask>
<g mask="url(#mask0_332_3800)">
<path fill-rule="evenodd" clip-rule="evenodd" d="M-0.0117188 15.8212V-0.000244141H11.606V2.61166H3.20813V6.83083H9.69992V9.39213H3.20813V15.8212H-0.0117188Z" fill="#1D2832"/>
<path fill-rule="evenodd" clip-rule="evenodd" d="M19.5911 7.50878C21.9354 7.50878 23.0173 6.75529 23.0173 5.04776C23.0173 3.46543 21.9354 2.53631 19.5911 2.53631H15.856V7.50878H19.5911ZM23.1461 15.8212C22.8114 15.3942 22.6052 14.3144 22.4762 12.5564C22.3474 10.7733 21.5232 9.96962 19.6686 9.96962H15.856V15.8212H12.6875V-0.000244141H20.0291C24.1764 -0.000244141 26.2115 1.88348 26.2115 4.82152C26.2115 7.20738 24.6144 8.58859 22.6308 8.83976C24.4856 9.19138 25.4388 10.2461 25.6192 12.1043C25.8251 14.4399 25.9026 15.2435 26.4434 15.8212H23.1461Z" fill="#1D2832"/>
<path fill-rule="evenodd" clip-rule="evenodd" d="M33.0909 9.49278H38.0369L35.5896 3.5659H35.4867L33.0909 9.49278ZM37.4443 -0.000244141L44.0648 15.8212H40.6388L39.0159 11.9036H32.1121L30.5407 15.8212H27.2949L33.8638 -0.000244141H37.4443Z" fill="#1D2832"/>
</g>
<path fill-rule="evenodd" clip-rule="evenodd" d="M51.9938 15.8365L48.0268 3.38035H47.9237V15.8365H44.9355V0.0151367H50.0104L53.5651 11.5171H53.6424L57.017 0.0151367H61.9886V15.8365H58.7428V3.38035H58.6397L54.7501 15.8365H51.9938Z" fill="#1D2832"/>
<path fill-rule="evenodd" clip-rule="evenodd" d="M62.8379 13.2248H71.8024V9.05588H64.9503V6.46928H71.8024V2.62704H63.07V0.0151367H74.9709V15.8365H62.8379V13.2248Z" fill="#1D2832"/>
</g>
<defs>
<clipPath id="clip0_332_3800">
<rect width="74.9709" height="15.8365" fill="white"/>
</clipPath>
</defs>
</svg>
