<svg width="35" height="16" viewBox="0 0 35 16" fill="none" xmlns="http://www.w3.org/2000/svg">
<path d="M24.1 1.95C22.65 0.65 20.45 0 17.6 0H12.7V0.1C13.65 0.3 14.35 0.55 14.35 1.7V12.6V14C14.35 15.25 13.75 15.5 12.8 15.7V15.8H18.4H18.95C21.45 15.8 23.4 15.05 24.55 13.6C25.65 12.2 26.3 10.15 26.3 7.95C26.3 5.35 25.55 3.3 24.1 1.95ZM18.55 15.25C17.1 15.25 16.25 15.05 16.25 13.95V0.65H17.75C22.1 0.65 24.15 3 24.15 8C24.15 12.6 22.1 15.25 18.55 15.25ZM8.2 7.35L7.3 7.15L8.15 6.9C10 6.35 11.05 5.05 11.05 3.3C11.05 2.45 10.75 1.75 10.2 1.2C9.4 0.4 8 0 5.9 0H0V0.1C1 0.3 1.75 0.6 1.75 1.8V12.85V14C1.75 15.25 1.1 15.5 0.1 15.7V15.8H6H6.6C8.5 15.8 9.85 15.35 10.7 14.45C11.5 13.65 11.95 12.55 11.95 11.3C11.95 9.25 10.65 7.85 8.2 7.35ZM3.75 0.55H5.35C6.8 0.55 7.7 0.8 8.3 1.4C8.8 1.95 9.05 2.65 9.05 3.7C9.05 4.6 8.75 5.45 8.25 6C7.6 6.65 6.75 7 5.6 7H3.7L3.75 0.55ZM6.15 15.3C4.45 15.3 3.7 15.1 3.7 14V7.6H5.2C6.95 7.6 8.05 7.95 8.75 8.65C9.4 9.25 9.7 10.15 9.7 11.35C9.75 13.9 8.5 15.3 6.15 15.3ZM29 16C33.05 16 33.1 13 33.1 9.7V1.7C33.1 0.55 33.8 0.3 34.75 0.1V0H28.75V0.15C30.4 0.4 31.15 0.55 31.15 1.95V10.15C31.15 13.55 31 15.45 29 15.45C28.2 15.45 27.1 15.15 26.85 13.1H26.65V15.6C26.9 15.7 27.9 16 29 16Z" fill="#1D2832"/>
</svg>
