<svg width="251" height="93" viewBox="0 0 251 93" fill="none" xmlns="http://www.w3.org/2000/svg">
<rect x="0.829973" y="34.6471" width="78.5336" height="57.4154" rx="10.2292" stroke="white" stroke-width="0.659947"/>
<rect x="0.829973" y="34.6471" width="78.5336" height="57.4154" rx="10.2292" stroke="white" stroke-width="0.659947"/>
<rect x="3.46987" y="37.287" width="73.2541" height="52.1358" rx="7.58939" stroke="white" stroke-width="0.659947"/>
<g clip-path="url(#clip0_204_3567)">
<path d="M50.9535 64.7635C50.9065 64.732 50.8438 64.7163 50.7968 64.732C50.7342 64.7477 50.6872 64.7792 50.6558 64.8264C50.6402 64.8422 50.6245 64.8736 50.6088 64.8894C50.1545 65.4874 49.4652 65.8178 48.7289 65.8178C47.9612 65.8178 47.2406 65.4401 46.8019 64.8264C46.7706 64.7792 46.7236 64.7477 46.6609 64.732C46.6452 64.732 46.6296 64.732 46.6296 64.732C46.5826 64.732 46.5356 64.7477 46.5042 64.7792C46.4102 64.8422 46.3789 64.9838 46.4572 65.0782C46.9899 65.8178 47.8359 66.2584 48.7445 66.2584C49.6218 66.2584 50.4365 65.865 50.9692 65.1569C50.9848 65.1254 51.0005 65.1097 51.0318 65.0782C51.0632 64.9681 51.0475 64.8264 50.9535 64.7635Z" fill="white"/>
<path d="M14.1063 66.2269C14.0593 66.2741 14.0123 66.2899 13.9496 66.2899C13.8713 66.2899 13.8086 66.2741 13.7616 66.2269C13.7146 66.1797 13.699 66.1168 13.699 66.0538V58.3115C13.699 58.2485 13.7146 58.1856 13.7616 58.1384C13.8086 58.0912 13.8713 58.0754 13.934 58.0754C13.9966 58.0754 14.0593 58.0912 14.1063 58.1384C14.1533 58.1856 14.169 58.2485 14.169 58.3115V66.0538C14.1846 66.1168 14.1533 66.1797 14.1063 66.2269Z" fill="white"/>
<path d="M26.6393 60.9868C26.9839 61.4116 27.1563 61.9624 27.1563 62.6391V66.0696C27.1563 66.1326 27.1406 66.1798 27.0936 66.227C27.0466 66.2742 26.9996 66.2899 26.9213 66.2899C26.8429 66.2899 26.7959 66.2742 26.7489 66.227C26.7019 66.1798 26.6863 66.1326 26.6863 66.0696V62.6863C26.6863 62.1355 26.5453 61.6791 26.279 61.3329C26.0126 60.9867 25.6053 60.8136 25.057 60.8136C24.728 60.8136 24.3833 60.8923 24.07 61.0654C23.741 61.2385 23.4747 61.4746 23.271 61.7578C23.0673 62.0411 22.9733 62.3558 22.9733 62.6863V66.0696C22.9733 66.1326 22.9577 66.1798 22.9107 66.227C22.8637 66.2742 22.8167 66.2899 22.7384 66.2899C22.6757 66.2899 22.613 66.2742 22.566 66.227C22.519 66.1798 22.5034 66.1326 22.5034 66.0696V62.6233C22.5034 62.0883 22.378 61.6477 22.1117 61.3015C21.861 60.971 21.4694 60.7979 20.9367 60.7979C20.6077 60.7979 20.2944 60.8766 19.9811 61.0497C19.6677 61.2071 19.4171 61.4431 19.2134 61.7264C19.0098 62.0096 18.9158 62.3086 18.9158 62.6391V66.0854C18.9158 66.1483 18.9001 66.1955 18.8531 66.2427C18.8061 66.2899 18.7591 66.3057 18.6964 66.3057C18.6338 66.3057 18.5711 66.2899 18.5241 66.2427C18.4771 66.1955 18.4614 66.1483 18.4614 66.0854V60.6563C18.4614 60.5933 18.4771 60.5461 18.5241 60.4989C18.5711 60.4517 18.6181 60.436 18.6808 60.436C18.7434 60.436 18.8061 60.4517 18.8531 60.4989C18.9001 60.5461 18.9158 60.5933 18.9158 60.6563V61.4746C19.1351 61.1441 19.4327 60.8766 19.8087 60.6563C20.1691 60.4517 20.5607 60.3416 20.9524 60.3416C21.3754 60.3416 21.767 60.4517 22.096 60.672C22.425 60.8923 22.6757 61.2071 22.8323 61.6319C22.989 61.27 23.3023 60.971 23.7567 60.7192C24.211 60.4674 24.6653 60.3416 25.104 60.3416C25.7776 60.3573 26.279 60.5619 26.6393 60.9868Z" fill="white"/>
<path d="M35.068 65.5974C35.4126 65.3771 35.6789 65.0781 35.8826 64.6847C36.0863 64.2913 36.1803 63.8507 36.1803 63.3628C36.1803 62.875 36.0863 62.4344 35.8826 62.0567C35.6789 61.6633 35.4126 61.3643 35.068 61.144C34.7233 60.9237 34.3316 60.8135 33.9086 60.8135C33.47 60.8135 33.0783 60.9237 32.7337 61.144C32.389 61.3643 32.1227 61.6633 31.919 62.0567C31.731 62.4501 31.637 62.8907 31.637 63.3786C31.637 63.8664 31.731 64.3228 31.919 64.7004C32.107 65.0938 32.3733 65.3928 32.7337 65.6131C33.0783 65.8335 33.47 65.9436 33.9086 65.9436C34.3316 65.9279 34.7233 65.8177 35.068 65.5974ZM35.3343 60.7348C35.7416 60.9866 36.0706 61.3486 36.3056 61.8049C36.5406 62.2613 36.6503 62.7806 36.6503 63.3471C36.6503 63.9136 36.5249 64.4172 36.2899 64.8893C36.0549 65.3456 35.7259 65.7076 35.3186 65.9751C34.9113 66.2426 34.4413 66.3685 33.94 66.3685C33.47 66.3685 33.047 66.2583 32.6553 66.0223C32.2637 65.7862 31.9503 65.4558 31.6997 65.0152V68.4142C31.6997 68.4772 31.684 68.5244 31.637 68.5716C31.59 68.6188 31.543 68.6345 31.4647 68.6345C31.402 68.6345 31.355 68.6188 31.308 68.5716C31.261 68.5244 31.2454 68.4772 31.2454 68.4142V60.5932C31.2454 60.5303 31.261 60.4831 31.308 60.4359C31.355 60.3887 31.402 60.3729 31.4804 60.3729C31.543 60.3729 31.6057 60.3887 31.6527 60.4359C31.6997 60.4831 31.7154 60.5303 31.7154 60.5932V61.679C31.9503 61.2384 32.2637 60.8922 32.6553 60.6876C33.047 60.4673 33.4857 60.3572 33.9713 60.3572C34.4413 60.3572 34.9113 60.4831 35.3343 60.7348Z" fill="white"/>
<path d="M43.4808 60.4986C43.4808 60.5615 43.4651 60.6245 43.4181 60.6717C43.3868 60.7189 43.3241 60.7346 43.2615 60.7346C43.2458 60.7346 43.1832 60.7189 43.0892 60.6874C42.9952 60.656 42.9012 60.6402 42.8072 60.6402C42.4938 60.6402 42.1648 60.7661 41.8515 61.0179C41.5382 61.2697 41.2719 61.6001 41.0682 61.9778C40.8645 62.3555 40.7705 62.7489 40.7705 63.0951V66.0378C40.7705 66.1008 40.7392 66.148 40.6922 66.1952C40.6452 66.2424 40.5982 66.2581 40.5355 66.2581C40.4572 66.2581 40.4102 66.2424 40.3632 66.1952C40.3162 66.148 40.3005 66.1008 40.3005 66.0378V60.656C40.3005 60.593 40.3162 60.5458 40.3632 60.4986C40.4102 60.4514 40.4572 60.4356 40.5199 60.4356C40.5825 60.4356 40.6452 60.4514 40.6922 60.4986C40.7392 60.5458 40.7549 60.593 40.7549 60.656V61.8991C40.9272 61.427 41.2092 61.0179 41.5852 60.7032C41.9612 60.3884 42.4155 60.2311 42.9325 60.2153C43.3085 60.2311 43.4808 60.3255 43.4808 60.4986Z" fill="white"/>
<path d="M54.5884 65.1408C54.5884 65.0936 54.6197 65.0307 54.6824 64.9835C54.7137 64.952 54.7607 64.9205 54.8234 64.9205C54.9017 64.9205 54.9644 64.952 55.0114 65.0149C55.4657 65.6601 56.0923 65.9906 56.907 65.9906C57.3143 65.9906 57.6903 65.8804 58.0036 65.6759C58.317 65.4713 58.4736 65.188 58.4736 64.8261C58.4736 64.4642 58.3326 64.1966 58.0663 64.0078C57.8 63.8347 57.424 63.6773 56.9383 63.5672C56.3117 63.4098 55.8104 63.2053 55.45 62.9377C55.0897 62.6702 54.9017 62.3083 54.9017 61.8204C54.9017 61.3641 55.0897 60.9707 55.45 60.6717C55.8104 60.3727 56.296 60.2153 56.8757 60.2153C57.189 60.2153 57.518 60.2783 57.8313 60.4042C58.1446 60.5301 58.4423 60.7346 58.693 61.0022C58.74 61.0494 58.7713 61.0966 58.7713 61.1595C58.7713 61.2225 58.74 61.2854 58.693 61.3484C58.6303 61.3798 58.5833 61.3956 58.5363 61.3956C58.4893 61.3956 58.4423 61.3798 58.3953 61.3326C57.988 60.892 57.471 60.656 56.8287 60.656C56.4213 60.656 56.061 60.7504 55.779 60.9549C55.497 61.1595 55.356 61.4428 55.356 61.8047C55.3717 62.1352 55.5284 62.4027 55.826 62.5915C56.108 62.7804 56.531 62.9377 57.0793 63.0794C57.471 63.1738 57.8156 63.2997 58.0663 63.4098C58.3326 63.5357 58.5363 63.7088 58.693 63.9291C58.8496 64.1494 58.928 64.4327 58.928 64.7946C58.928 65.2825 58.74 65.6759 58.364 65.9591C57.988 66.2424 57.4867 66.384 56.8757 66.384C55.9827 66.384 55.2464 66.0378 54.6824 65.3297C54.6197 65.2667 54.5884 65.2038 54.5884 65.1408Z" fill="white"/>
<path d="M62.155 65.1408C62.155 65.0936 62.1864 65.0307 62.249 64.9835C62.2804 64.952 62.3274 64.9205 62.39 64.9205C62.4684 64.9205 62.531 64.952 62.578 65.0149C63.0323 65.6601 63.659 65.9906 64.4737 65.9906C64.881 65.9906 65.257 65.8804 65.5703 65.6759C65.8836 65.4713 66.0403 65.188 66.0403 64.8261C66.0403 64.4642 65.8993 64.1966 65.633 64.0078C65.3666 63.8347 64.9907 63.6773 64.505 63.5672C63.8783 63.4098 63.377 63.2053 63.0167 62.9377C62.6564 62.6702 62.4684 62.3083 62.4684 61.8204C62.4684 61.3641 62.6564 60.9707 63.0167 60.6717C63.377 60.3727 63.8627 60.2153 64.4423 60.2153C64.7557 60.2153 65.0847 60.2783 65.398 60.4042C65.7113 60.5301 66.009 60.7346 66.2596 61.0022C66.3066 61.0494 66.338 61.0966 66.338 61.1595C66.338 61.2225 66.3066 61.2854 66.2596 61.3484C66.197 61.3798 66.15 61.3956 66.103 61.3956C66.0403 61.3956 65.9933 61.3798 65.962 61.3326C65.5546 60.892 65.0377 60.656 64.3953 60.656C63.988 60.656 63.6277 60.7504 63.3457 60.9549C63.0637 61.1595 62.9227 61.4428 62.9227 61.8047C62.9384 62.1352 63.095 62.4027 63.3927 62.5915C63.6747 62.7804 64.0977 62.9377 64.646 63.0794C65.0377 63.1738 65.3823 63.2997 65.633 63.4098C65.8993 63.5357 66.103 63.7088 66.2596 63.9291C66.4163 64.1494 66.4946 64.4327 66.4946 64.7946C66.4946 65.2825 66.3066 65.6759 65.9306 65.9591C65.5546 66.2424 65.0533 66.384 64.4423 66.384C63.5493 66.384 62.813 66.0378 62.249 65.3297C62.1864 65.2667 62.155 65.2038 62.155 65.1408Z" fill="white"/>
<path d="M50.8755 62.7177H48.7135H46.5515V62.6075C46.5985 62.2141 46.7239 61.8679 46.9275 61.5847C47.1469 61.3014 47.4132 61.0811 47.7265 60.9237C48.0398 60.7821 48.3688 60.7034 48.6978 60.7034C49.0425 60.7034 49.3715 60.7821 49.6692 60.9237C49.9825 61.0654 50.2488 61.2857 50.4681 61.5847C50.6875 61.8679 50.8128 62.2141 50.8441 62.6075V62.7177H50.8755ZM50.9538 61.443C50.7031 61.0496 50.3741 60.7349 49.9825 60.5461C49.5908 60.3415 49.1678 60.2471 48.7135 60.2471C48.2592 60.2471 47.8362 60.3415 47.4445 60.5461C47.0529 60.7506 46.7239 61.0496 46.4732 61.443C46.2225 61.8364 46.0972 62.34 46.0815 62.9223C46.0815 62.9852 46.0972 63.0482 46.1442 63.0954C46.1755 63.1268 46.2225 63.1583 46.2539 63.174H48.6978H51.1418C51.1888 63.1583 51.2201 63.1426 51.2515 63.0954C51.2985 63.0482 51.3141 62.9852 51.3141 62.9223C51.3455 62.3243 51.2045 61.8364 50.9538 61.443Z" fill="white"/>
</g>
<path d="M119.24 91.7223C117.478 91.8158 113.959 90.8051 113.974 86.0151L117.085 80.8141C117.774 80.7374 119.418 80.5953 120.475 80.6403C121.532 80.6853 123.193 81.8539 123.891 82.4325C124.331 82.1144 125.512 81.491 126.72 81.5424C127.928 81.5938 129.687 82.4921 130.415 82.9348C130.915 82.6816 132.138 82.196 133.028 82.2788C133.917 82.3615 136.645 83.5369 137.898 84.1142C138.399 83.861 139.577 83.3585 140.287 83.3738C141.175 83.3929 147.414 84.4818 149.579 78.7354C151.745 72.9889 146.34 69.6867 145.66 69.1151C145.117 68.6578 144.563 67.5027 144.354 66.9823C143.032 66.5891 140.207 65.6717 139.484 65.1468C138.761 64.622 138.162 63.45 137.954 62.9296C137.114 62.7816 135.2 62.2959 134.259 61.5372C133.317 60.7786 132.841 59.5307 132.721 59.0016C131.814 58.9755 129.795 58.7573 128.971 58.0934C128.147 57.4296 127.007 56.2382 126.539 55.7255L127.634 49.7651C130.784 46.1564 134.095 47.7196 135.357 48.9523C140.309 53.3425 150.669 62.509 152.491 64.0537C154.312 65.5984 155.129 68.6449 155.31 69.975C155.656 70.1893 156.434 70.8275 156.783 71.6658C157.132 72.504 157.039 73.5294 156.95 73.9372C157.24 74.2989 157.708 75.5227 157.26 77.5247C156.812 79.5268 155.977 80.7044 155.626 81.0138C155.685 81.478 155.537 82.9114 154.552 84.7109C153.567 86.5103 152.408 87.121 151.951 87.2013C151.75 87.567 151.142 88.3983 150.327 88.7977C149.511 89.1971 148.505 89.1631 148.104 89.0961C147.091 89.9761 144.467 91.7258 142.078 91.684C139.69 91.6422 125.857 91.6921 119.24 91.7223Z" stroke="white" stroke-width="0.659947"/>
<path d="M153.178 81.6763C153.292 81.9419 153.308 82.6963 153.068 83.3339C152.828 83.9715 152.245 84.3789 151.907 84.5349M150.952 85.874C150.603 86.2884 149.745 87.1664 149.105 87.3621C148.465 87.5578 147.307 87.6354 146.809 87.6497M147.123 85.2802C146.785 85.1528 145.983 84.9236 145.481 85.0257C144.979 85.1279 144.278 85.5432 143.99 85.7381M145.258 88.5214C144.696 88.8156 143.381 89.4039 142.609 89.4042C141.836 89.4044 140.624 89.2632 140.115 89.1925M142.132 85.8874C141.877 85.7104 141.197 85.365 140.515 85.3992C139.833 85.4334 139.201 85.7538 138.971 85.9097M137.939 89.1613C137.631 89.4093 136.705 89.9097 135.463 89.9271C134.221 89.9445 133.081 89.7579 132.667 89.6624M137.259 86.3565C137.056 86.098 136.299 85.5217 134.896 85.2842C133.493 85.0466 132.458 85.0937 132.117 85.1469M130.844 89.0361C130.367 89.2204 129.126 89.5658 127.977 89.4727C126.828 89.3795 125.438 88.9812 124.887 88.7937M130.66 85.0837C130.211 84.8536 129.014 84.3659 127.82 84.2558C126.626 84.1457 125.25 84.3594 124.711 84.48M123.367 89.0704C122.77 89.2902 121.24 89.6279 119.901 89.2203C118.561 88.8127 117.233 87.932 116.737 87.5426M122.53 83.7794C122.067 83.5848 120.892 83.1743 119.894 83.0896C118.897 83.005 117.621 83.2037 117.108 83.3137" stroke="white" stroke-width="0.659947"/>
<path d="M154.225 78.8975C154.486 78.7735 154.996 78.2173 155.236 77.5797C155.477 76.9421 155.308 76.2515 155.157 75.9116M155.323 74.2753C155.335 73.7334 155.269 72.5073 154.917 71.9379C154.566 71.3685 153.747 70.5464 153.382 70.2065M152.054 72.1938C151.716 72.0664 150.963 71.7097 150.653 71.3018C150.344 70.8939 150.091 70.119 150.003 69.7826M152.792 68.5279C152.565 67.9365 151.965 66.6263 151.385 66.1165C150.805 65.6067 149.801 64.9128 149.371 64.6296M148.706 68.4443C148.397 68.4089 147.658 68.2193 147.168 67.7435C146.678 67.2677 146.416 66.6104 146.345 66.3413M147.716 63.217C147.648 62.8275 147.282 61.8402 146.361 61.0075C145.439 60.1748 144.46 59.5631 144.086 59.3613M145.354 64.8753C145.031 64.9356 144.082 64.8694 142.871 64.1217C141.66 63.3741 140.914 62.6561 140.692 62.3906M142.303 58.6288C142.066 58.1755 141.362 57.0969 140.437 56.4087C139.512 55.7205 138.205 55.1026 137.667 54.8796M139.556 61.4772C139.067 61.3534 137.845 60.9295 136.876 60.2243C135.906 59.5191 135.013 58.4505 134.688 58.0044M136.708 53.6687C136.404 53.1092 135.478 51.8458 134.203 51.2682C132.927 50.6906 131.348 50.4758 130.718 50.4406M132.587 57.0913C132.111 56.9321 130.957 56.4649 130.152 55.8702C129.347 55.2755 128.519 54.2841 128.206 53.8627" stroke="white" stroke-width="0.659947"/>
<path d="M147.01 35.2557C148.771 35.1623 152.29 36.1729 152.276 40.963L149.165 46.1639C148.475 46.2406 146.832 46.3827 145.775 46.3377C144.718 46.2927 143.057 45.1242 142.358 44.5455C141.919 44.8636 140.738 45.4871 139.529 45.4356C138.321 45.3842 136.563 44.4859 135.835 44.0432C135.334 44.2964 134.111 44.782 133.222 44.6993C132.332 44.6165 129.604 43.4412 128.351 42.8638C127.851 43.117 126.673 43.6195 125.962 43.6043C125.074 43.5852 118.836 42.4962 116.67 48.2427C114.505 53.9891 119.909 57.2913 120.589 57.8629C121.133 58.3202 121.686 59.4754 121.895 59.9958C123.218 60.3889 126.043 61.3064 126.766 61.8312C127.489 62.356 128.087 63.528 128.296 64.0484C129.135 64.1964 131.049 64.6821 131.991 65.4408C132.932 66.1995 133.408 67.4473 133.529 67.9765C134.435 68.0026 136.454 68.2208 137.278 68.8846C138.102 69.5485 139.243 70.7398 139.71 71.2525L138.615 77.213C135.465 80.8216 132.154 79.2584 130.893 78.0257C125.94 73.6355 115.581 64.469 113.759 62.9243C111.937 61.3796 111.12 58.3332 110.939 57.003C110.594 56.7887 109.816 56.1505 109.467 55.3123C109.118 54.474 109.21 53.4487 109.3 53.0408C109.01 52.6791 108.542 51.4553 108.989 49.4533C109.437 47.4513 110.273 46.2736 110.624 45.9642C110.564 45.5001 110.712 44.0667 111.697 42.2672C112.682 40.4677 113.842 39.8571 114.298 39.7767C114.5 39.411 115.107 38.5798 115.923 38.1803C116.738 37.7809 117.744 37.815 118.145 37.8819C119.159 37.0019 121.783 35.2522 124.171 35.294C126.559 35.3358 140.392 35.2859 147.01 35.2557Z" stroke="white" stroke-width="0.659947"/>
<path d="M113.072 45.3014C112.957 45.0359 112.941 44.2815 113.182 43.6439C113.422 43.0063 114.004 42.5988 114.342 42.4429M115.297 41.1038C115.646 40.6893 116.505 39.8114 117.145 39.6157C117.785 39.42 118.942 39.3424 119.441 39.3281M119.127 41.6976C119.465 41.825 120.267 42.0542 120.768 41.9521C121.27 41.8499 121.971 41.4346 122.259 41.2397M120.992 38.4563C121.553 38.1622 122.869 37.5739 123.641 37.5736C124.413 37.5734 125.625 37.7146 126.135 37.7853M124.117 41.0903C124.372 41.2673 125.053 41.6128 125.735 41.5786C126.417 41.5443 127.048 41.224 127.278 41.0681M128.311 37.8165C128.619 37.5684 129.545 37.0681 130.787 37.0507C132.029 37.0333 133.168 37.2199 133.583 37.3154M128.991 40.6213C129.194 40.8797 129.95 41.4561 131.354 41.6936C132.757 41.9312 133.791 41.8841 134.133 41.8308M135.406 37.9417C135.883 37.7573 137.124 37.412 138.272 37.5051C139.421 37.5982 140.811 37.9966 141.362 38.1841M135.589 41.8941C136.039 42.1242 137.236 42.6118 138.43 42.722C139.624 42.8321 141 42.6184 141.538 42.4978M142.882 37.9074C143.48 37.6876 145.01 37.3499 146.349 37.7575C147.688 38.1651 149.016 39.0458 149.513 39.4352M143.72 43.1984C144.182 43.393 145.357 43.8035 146.355 43.8881C147.353 43.9728 148.629 43.7741 149.142 43.6641" stroke="white" stroke-width="0.659947"/>
<path d="M112.025 48.0805C111.763 48.2045 111.254 48.7608 111.013 49.3983C110.773 50.0359 110.942 50.7265 111.093 51.0664M110.926 52.7028C110.915 53.2446 110.981 54.4707 111.332 55.0401C111.684 55.6095 112.502 56.4316 112.868 56.7715M114.196 54.7842C114.534 54.9116 115.287 55.2684 115.597 55.6763C115.906 56.0842 116.159 56.859 116.247 57.1954M113.458 58.4501C113.685 59.0415 114.285 60.3517 114.865 60.8615C115.445 61.3713 116.449 62.0652 116.879 62.3484M117.544 58.5338C117.852 58.5691 118.592 58.7587 119.081 59.2345C119.571 59.7104 119.834 60.3676 119.904 60.6368M118.534 63.761C118.602 64.1505 118.967 65.1378 119.889 65.9706C120.811 66.8033 121.79 67.4149 122.164 67.6167M120.896 62.1027C121.219 62.0424 122.168 62.1087 123.379 62.8563C124.59 63.6039 125.336 64.3219 125.558 64.5875M123.947 68.3493C124.184 68.8025 124.888 69.8811 125.813 70.5693C126.737 71.2575 128.044 71.8754 128.582 72.0984M126.693 65.5008C127.183 65.6246 128.404 66.0485 129.374 66.7537C130.344 67.4589 131.236 68.5275 131.562 68.9737M129.542 73.3093C129.846 73.8688 130.772 75.1322 132.047 75.7098C133.322 76.2874 134.901 76.5022 135.532 76.5374M133.662 69.8867C134.139 70.046 135.292 70.5131 136.098 71.1078C136.903 71.7026 137.731 72.694 138.044 73.1153" stroke="white" stroke-width="0.659947"/>
<g clip-path="url(#clip1_204_3567)">
<rect x="186.989" y="0.329973" width="28.3777" height="91.7326" rx="4.9496" stroke="white" stroke-width="0.659947"/>
<g clip-path="url(#clip2_204_3567)">
<path d="M216.543 42.4569C216.513 42.4372 216.474 42.4274 216.445 42.4372C216.406 42.447 216.376 42.4667 216.357 42.4962C216.347 42.5061 216.337 42.5257 216.327 42.5356C216.043 42.9093 215.613 43.1158 215.152 43.1158C214.673 43.1158 214.222 42.8798 213.948 42.4962C213.928 42.4667 213.899 42.447 213.86 42.4372C213.85 42.4372 213.84 42.4372 213.84 42.4372C213.811 42.4372 213.782 42.447 213.762 42.4667C213.703 42.5061 213.684 42.5946 213.733 42.6536C214.065 43.1158 214.594 43.3912 215.162 43.3912C215.71 43.3912 216.22 43.1453 216.553 42.7028C216.562 42.6831 216.572 42.6733 216.592 42.6536C216.611 42.5847 216.601 42.4962 216.543 42.4569Z" fill="white"/>
<path d="M193.513 43.3715C193.484 43.401 193.454 43.4109 193.415 43.4109C193.366 43.4109 193.327 43.401 193.298 43.3715C193.268 43.342 193.259 43.3027 193.259 43.2633V38.4244C193.259 38.385 193.268 38.3457 193.298 38.3162C193.327 38.2867 193.366 38.2769 193.405 38.2769C193.445 38.2769 193.484 38.2867 193.513 38.3162C193.542 38.3457 193.552 38.385 193.552 38.4244V43.2633C193.562 43.3027 193.542 43.342 193.513 43.3715Z" fill="white"/>
<path d="M201.346 40.0964C201.562 40.3619 201.669 40.7062 201.669 41.1291V43.2732C201.669 43.3125 201.66 43.342 201.63 43.3715C201.601 43.401 201.571 43.4108 201.523 43.4108C201.474 43.4108 201.444 43.401 201.415 43.3715C201.385 43.342 201.376 43.3125 201.376 43.2732V41.1586C201.376 40.8143 201.288 40.5291 201.121 40.3127C200.955 40.0964 200.7 39.9882 200.357 39.9882C200.152 39.9882 199.936 40.0374 199.74 40.1455C199.535 40.2537 199.368 40.4013 199.241 40.5783C199.114 40.7553 199.055 40.952 199.055 41.1586V43.2732C199.055 43.3125 199.045 43.342 199.016 43.3715C198.987 43.401 198.957 43.4108 198.908 43.4108C198.869 43.4108 198.83 43.401 198.8 43.3715C198.771 43.342 198.761 43.3125 198.761 43.2732V41.1192C198.761 40.7848 198.683 40.5094 198.517 40.2931C198.36 40.0865 198.115 39.9783 197.782 39.9783C197.577 39.9783 197.381 40.0275 197.185 40.1357C196.989 40.2341 196.832 40.3816 196.705 40.5586C196.578 40.7357 196.519 40.9225 196.519 41.1291V43.283C196.519 43.3223 196.509 43.3518 196.48 43.3813C196.451 43.4108 196.421 43.4207 196.382 43.4207C196.343 43.4207 196.304 43.4108 196.274 43.3813C196.245 43.3518 196.235 43.3223 196.235 43.283V39.8898C196.235 39.8505 196.245 39.821 196.274 39.7915C196.304 39.762 196.333 39.7521 196.372 39.7521C196.411 39.7521 196.451 39.762 196.48 39.7915C196.509 39.821 196.519 39.8505 196.519 39.8898V40.4013C196.656 40.1947 196.842 40.0275 197.077 39.8898C197.302 39.762 197.547 39.6931 197.792 39.6931C198.056 39.6931 198.301 39.762 198.507 39.8997C198.712 40.0374 198.869 40.2341 198.967 40.4996C199.065 40.2734 199.261 40.0865 199.545 39.9292C199.829 39.7718 200.113 39.6931 200.387 39.6931C200.808 39.703 201.121 39.8308 201.346 40.0964Z" fill="white"/>
<path d="M206.614 42.9783C206.83 42.8406 206.996 42.6537 207.123 42.4078C207.251 42.1619 207.309 41.8866 207.309 41.5817C207.309 41.2768 207.251 41.0014 207.123 40.7653C206.996 40.5195 206.83 40.3326 206.614 40.1949C206.399 40.0572 206.154 39.9883 205.89 39.9883C205.615 39.9883 205.371 40.0572 205.155 40.1949C204.94 40.3326 204.773 40.5195 204.646 40.7653C204.529 41.0112 204.47 41.2866 204.47 41.5915C204.47 41.8964 204.529 42.1816 204.646 42.4177C204.764 42.6635 204.93 42.8504 205.155 42.9881C205.371 43.1258 205.615 43.1946 205.89 43.1946C206.154 43.1848 206.399 43.116 206.614 42.9783ZM206.781 39.9392C207.035 40.0965 207.241 40.3227 207.388 40.608C207.535 40.8932 207.603 41.2178 207.603 41.5718C207.603 41.9259 207.525 42.2406 207.378 42.5357C207.231 42.8209 207.025 43.0471 206.771 43.2143C206.516 43.3815 206.223 43.4602 205.909 43.4602C205.615 43.4602 205.351 43.3914 205.106 43.2438C204.862 43.0963 204.666 42.8898 204.509 42.6144V44.7388C204.509 44.7781 204.499 44.8076 204.47 44.8371C204.441 44.8666 204.411 44.8765 204.362 44.8765C204.323 44.8765 204.294 44.8666 204.264 44.8371C204.235 44.8076 204.225 44.7781 204.225 44.7388V39.8507C204.225 39.8113 204.235 39.7818 204.264 39.7523C204.294 39.7228 204.323 39.713 204.372 39.713C204.411 39.713 204.45 39.7228 204.48 39.7523C204.509 39.7818 204.519 39.8113 204.519 39.8507V40.5293C204.666 40.2539 204.862 40.0375 205.106 39.9097C205.351 39.772 205.625 39.7031 205.929 39.7031C206.223 39.7031 206.516 39.7818 206.781 39.9392Z" fill="white"/>
<path d="M211.872 39.7915C211.872 39.8309 211.862 39.8702 211.833 39.8997C211.813 39.9292 211.774 39.9391 211.735 39.9391C211.725 39.9391 211.686 39.9292 211.627 39.9096C211.569 39.8899 211.51 39.8801 211.451 39.8801C211.255 39.8801 211.05 39.9587 210.854 40.1161C210.658 40.2735 210.492 40.48 210.364 40.7161C210.237 40.9521 210.178 41.198 210.178 41.4144V43.2536C210.178 43.2929 210.159 43.3224 210.129 43.3519C210.1 43.3814 210.071 43.3912 210.031 43.3912C209.982 43.3912 209.953 43.3814 209.924 43.3519C209.894 43.3224 209.885 43.2929 209.885 43.2536V39.8899C209.885 39.8505 209.894 39.821 209.924 39.7915C209.953 39.762 209.982 39.7522 210.022 39.7522C210.061 39.7522 210.1 39.762 210.129 39.7915C210.159 39.821 210.168 39.8505 210.168 39.8899V40.6669C210.276 40.3718 210.452 40.1161 210.687 39.9194C210.922 39.7227 211.206 39.6243 211.529 39.6145C211.764 39.6243 211.872 39.6833 211.872 39.7915Z" fill="white"/>
<path d="M216.494 41.1782L215.143 41.1782H213.791V41.1093C213.821 40.8634 213.899 40.6471 214.026 40.47C214.163 40.293 214.33 40.1553 214.526 40.0569C214.721 39.9684 214.927 39.9193 215.133 39.9193C215.348 39.9193 215.554 39.9684 215.74 40.0569C215.936 40.1455 216.102 40.2832 216.239 40.47C216.376 40.6471 216.455 40.8634 216.474 41.1093V41.1782H216.494ZM216.543 40.3815C216.386 40.1356 216.18 39.9389 215.936 39.8209C215.691 39.693 215.426 39.634 215.143 39.634C214.859 39.634 214.594 39.693 214.349 39.8209C214.105 39.9488 213.899 40.1356 213.742 40.3815C213.586 40.6274 213.507 40.9421 213.498 41.306C213.498 41.3454 213.507 41.3847 213.537 41.4142C213.556 41.4339 213.586 41.4536 213.605 41.4634H215.133L216.66 41.4634C216.69 41.4536 216.709 41.4437 216.729 41.4142C216.758 41.3847 216.768 41.3454 216.768 41.306C216.788 40.9323 216.699 40.6274 216.543 40.3815Z" fill="white"/>
</g>
<path d="M188.309 25.7381C188.309 20.0887 192.888 15.5089 198.538 15.5089L203.817 15.5089C209.467 15.5089 214.047 20.0887 214.047 25.7381V28.7079L188.309 28.7079V25.7381Z" stroke="white" stroke-width="0.659947"/>
<path d="M186.989 31.0177C186.989 29.742 188.023 28.7079 189.299 28.7079L213.057 28.7079C214.332 28.7079 215.367 29.742 215.367 31.0177V31.3477L186.989 31.3477V31.0177Z" stroke="white" stroke-width="0.659947"/>
<mask id="path-27-inside-1_204_3567" fill="white">
<path d="M193.918 7.66777C193.918 6.79746 194.746 6.16539 195.586 6.39438L200.496 7.73351C200.948 7.85698 201.416 7.91954 201.885 7.91954L205.138 7.91954C205.867 7.91954 206.457 8.51047 206.457 9.23943L206.457 15.8389L195.898 15.8389L195.898 13.069C195.898 12.3257 195.527 11.6316 194.908 11.2193C194.29 10.807 193.918 10.1129 193.918 9.36959V7.66777Z"/>
</mask>
<path d="M206.457 15.8389V16.4988H207.117V15.8389L206.457 15.8389ZM195.898 15.8389L195.238 15.8389V16.4988L195.898 16.4988V15.8389ZM205.797 9.23943L205.797 15.8389L207.117 15.8389L207.117 9.23943L205.797 9.23943ZM206.457 15.179L195.898 15.179V16.4988L206.457 16.4988V15.179ZM196.558 15.8389L196.558 13.069H195.238L195.238 15.8389L196.558 15.8389ZM194.578 9.36959V7.66777L193.259 7.66777V9.36959L194.578 9.36959ZM195.412 7.03108L200.322 8.3702L200.669 7.09681L195.759 5.75769L195.412 7.03108ZM201.885 8.57948L205.138 8.57948V7.25959L201.885 7.25959V8.57948ZM196.558 13.069C196.558 12.105 196.076 11.2049 195.274 10.6702L194.542 11.7684C194.977 12.0583 195.238 12.5463 195.238 13.069H196.558ZM200.322 8.3702C200.831 8.5091 201.357 8.57948 201.885 8.57948V7.25959C201.474 7.25959 201.066 7.20485 200.669 7.09681L200.322 8.3702ZM207.117 9.23943C207.117 8.14599 206.231 7.25959 205.138 7.25959V8.57948C205.502 8.57948 205.797 8.87495 205.797 9.23943L207.117 9.23943ZM195.274 10.6702C194.84 10.3803 194.578 9.89221 194.578 9.36959L193.259 9.36959C193.259 10.3335 193.74 11.2337 194.542 11.7684L195.274 10.6702ZM194.578 7.66777C194.578 7.23262 194.992 6.91658 195.412 7.03108L195.759 5.75769C194.5 5.4142 193.259 6.36231 193.259 7.66777L194.578 7.66777Z" fill="white" mask="url(#path-27-inside-1_204_3567)"/>
<path d="M186.989 5.27958C186.989 2.54599 189.205 0.329973 191.939 0.329973L210.417 0.329973C213.151 0.329973 215.367 2.54598 215.367 5.27957L215.367 31.3475L186.989 31.3475L186.989 5.27958Z" stroke="white" stroke-width="0.659947"/>
</g>
<rect x="241.287" y="70.9813" width="8.57931" height="20.4583" rx="0.98992" stroke="white" stroke-width="0.659947"/>
<rect x="241.287" y="42.6037" width="8.57931" height="20.4583" rx="0.98992" stroke="white" stroke-width="0.659947"/>
<line x1="242.277" y1="90.1197" x2="244.917" y2="90.1197" stroke="white" stroke-width="0.659947"/>
<line x1="242.277" y1="61.742" x2="244.917" y2="61.742" stroke="white" stroke-width="0.659947"/>
<defs>
<clipPath id="clip0_204_3567">
<rect width="52.7957" height="10.5591" fill="white" transform="translate(13.699 58.0754)"/>
</clipPath>
<clipPath id="clip1_204_3567">
<rect width="29.0377" height="92.3925" fill="white" transform="translate(186.659)"/>
</clipPath>
<clipPath id="clip2_204_3567">
<rect width="32.9973" height="6.59947" fill="white" transform="translate(193.259 38.2769)"/>
</clipPath>
</defs>
</svg>
